<svg id="Layer_1" height="20" viewBox="0 0 512 512" width="20" xmlns="http://www.w3.org/2000/svg" xmlns:xlink="http://www.w3.org/1999/xlink" data-name="Layer 1"><linearGradient id="linear-gradient" gradientUnits="userSpaceOnUse" x1="256" x2="256" y1="471" y2="83.495"><stop offset=".322" stop-color="#a163f5"/><stop offset=".466" stop-color="#b074ee"/><stop offset=".752" stop-color="#d8a1dd"/><stop offset=".898" stop-color="#efbad3"/></linearGradient><linearGradient id="linear-gradient-2" x1="290.406" x2="290.406" xlink:href="#linear-gradient" y1="471" y2="83.497"/><linearGradient id="linear-gradient-3" x1="221.594" x2="221.594" xlink:href="#linear-gradient" y1="471" y2="83.497"/><linearGradient id="linear-gradient-4" xlink:href="#linear-gradient" y1="471" y2="83.496"/><linearGradient id="linear-gradient-5" x1="342.811" x2="342.811" xlink:href="#linear-gradient" y1="471" y2="83.495"/><linearGradient id="linear-gradient-6" x1="355.814" x2="355.814" xlink:href="#linear-gradient" y1="471" y2="83.495"/><linearGradient id="linear-gradient-7" x1="314.044" x2="314.044" xlink:href="#linear-gradient" y1="471" y2="83.494"/><linearGradient id="linear-gradient-8" x1="335.814" x2="335.814" xlink:href="#linear-gradient" y1="471" y2="83.495"/><path d="m383.913 90.792a66.525 66.525 0 0 0 -128.692-23.642v.014a80.9 80.9 0 0 0 -78.7 66.4 66.825 66.825 0 0 1 -12.8 3.07 6 6 0 0 0 .51 11.978c.168 0 .337-.007.508-.022a65.081 65.081 0 0 0 10.516-2.071c-.008.475-.036.945-.036 1.422v13.042c-2.085.063-4 .106-5.7.143-2.168.048-4.031.089-5.535.153a6 6 0 0 0 .508 11.99c1.439-.061 3.22-.1 5.292-.146 1.637-.036 3.468-.078 5.435-.135v10.341a18.106 18.106 0 0 0 -13.529 2.905 20.551 20.551 0 0 0 -8.718 14.1 20.717 20.717 0 0 0 20.523 23.625c.576 0 1.151-.034 1.724-.082v.038a80.821 80.821 0 0 0 40.456 69.957v29.21a14.016 14.016 0 0 1 -14 14h-26.975a49.76 49.76 0 0 0 -49.7 49.7v94.932a6 6 0 0 0 6 6h250a6 6 0 0 0 6-6v-94.928a49.457 49.457 0 0 0 -3.087-17.24zm-208.7 120.974a8.8 8.8 0 0 1 -5.056-.463 8.7 8.7 0 0 1 -1.649-15.2 6.373 6.373 0 0 1 6.705-.161zm142.187-175.484a54.571 54.571 0 0 1 54.509 54.51v260.375a49.526 49.526 0 0 0 -34.609-14.085h-26.964a14.016 14.016 0 0 1 -14-14v-29.21a80.821 80.821 0 0 0 40.456-69.957v-.022c.522.04 1.044.066 1.567.066a20.717 20.717 0 0 0 20.523-23.625 20.548 20.548 0 0 0 -8.717-14.1 18.1 18.1 0 0 0 -13.373-2.927v-8.41q1.4.162 2.838.286c.175.015.347.022.519.022a6 6 0 0 0 .506-11.978c-1.322-.114-2.606-.259-3.863-.425v-14.866a80.686 80.686 0 0 0 -31.556-63.991 5.985 5.985 0 0 0 .617-1.158l2.757-7.162a23.458 23.458 0 0 0 .936-3.065c.877.085 1.779.141 2.716.141 7.514 0 16.782-3.007 24.551-13.2a6 6 0 0 0 -9.546-7.272c-6.837 8.975-14.238 8.983-18.086 8.169a23.316 23.316 0 0 0 -15.866-15.766 32 32 0 0 0 -3.544-.8 54.432 54.432 0 0 1 27.629-7.55zm19.392 175.518v-15.953a6.357 6.357 0 0 1 6.548.252 8.7 8.7 0 0 1 -1.649 15.2 8.816 8.816 0 0 1 -4.899.501zm-64.646-151.4c.551-.818 1.13-1.61 1.72-2.392 5.69-2.66 11.107-3.3 16.111-1.854a11.222 11.222 0 0 1 7 5.865 11.438 11.438 0 0 1 .435 9.3l-2.3 5.962a80.2 80.2 0 0 0 -27.24-9.252 54.581 54.581 0 0 1 4.274-7.629zm-84.938 87.537c0-1.867.1-3.712.243-5.542 12.757-5.151 29.466-14.519 46.4-31.514a6 6 0 1 0 -8.5-8.469 131.445 131.445 0 0 1 -35.176 25.559 68.79 68.79 0 0 1 134.619 19.966v12.257c-32.737-10.268-36-40.547-36.133-41.99a6 6 0 0 0 -11.282-2.287c-18.379 34.764-61.742 42.512-90.171 44.483zm0 75.979v-51.484c27.491-1.8 69.2-8.666 93.061-39.02a65.687 65.687 0 0 0 6.022 12.052c6.342 9.952 17.94 21.83 38.5 27.2v51.248a68.792 68.792 0 1 1 -137.584 0zm187.792 251.802h-36.539a62.533 62.533 0 0 0 -2.248-43.384 6 6 0 0 0 -11.013 4.766 50.453 50.453 0 0 1 .518 38.621h-139.436a50.453 50.453 0 0 1 .518-38.621 6 6 0 1 0 -11.013-4.763 62.533 62.533 0 0 0 -2.248 43.384h-36.539v-88.935a37.747 37.747 0 0 1 37.7-37.7h24.034c4.681 5.7 17.834 20.014 41.344 33.257 22.6 12.729 58.85 26.469 110.065 26.469q11.882 0 24.854-1.048zm0-80c-61.643 5.282-103.731-9.718-128.4-23.483a146.706 146.706 0 0 1 -33.924-25.606 26.03 26.03 0 0 0 14.992-23.547v-23.517a80.647 80.647 0 0 0 56.672 0v23.517a26.029 26.029 0 0 0 26 26h26.96a37.747 37.747 0 0 1 37.7 37.7z" fill="url(#linear-gradient)"/><path d="m277.5 198.377a6 6 0 0 0 6-6 6.9 6.9 0 1 1 13.8 0 6 6 0 0 0 12 0 18.9 18.9 0 1 0 -37.8 0 6 6 0 0 0 6 6z" fill="url(#linear-gradient-2)"/><path d="m234.5 198.377a6 6 0 0 0 6-6 18.9 18.9 0 0 0 -37.8 0 6 6 0 0 0 12 0 6.9 6.9 0 0 1 13.8 0 6 6 0 0 0 6 6z" fill="url(#linear-gradient-3)"/><path d="m281.752 244.953a6 6 0 0 0 -8.485-8.485 24.449 24.449 0 0 1 -34.534 0 6 6 0 0 0 -8.485 8.485 36.46 36.46 0 0 0 51.5 0z" fill="url(#linear-gradient-4)"/><path d="m327.774 75.157a6 6 0 0 0 3.769 7.6c.67.226 16.4 5.738 14.454 23.224a6 6 0 0 0 5.3 6.626 6.084 6.084 0 0 0 .67.037 6 6 0 0 0 5.956-5.338c2.4-21.59-13.7-32.936-22.546-35.92a6 6 0 0 0 -7.603 3.771z" fill="url(#linear-gradient-5)"/><path d="m349.814 252.958v71.85a6 6 0 0 0 12 0v-71.85a6 6 0 0 0 -12 0z" fill="url(#linear-gradient-6)"/><path d="m314.044 298.883a6 6 0 0 0 -6 6v22.238a6 6 0 0 0 12 0v-22.238a6 6 0 0 0 -6-6z" fill="url(#linear-gradient-7)"/><path d="m335.814 276.958a6 6 0 0 0 -6 6v41.85a6 6 0 0 0 12 0v-41.85a6 6 0 0 0 -6-6z" fill="url(#linear-gradient-8)"/></svg>