<svg id="Layer_1" height="512" viewBox="0 0 512 512" width="512" xmlns="http://www.w3.org/2000/svg" xmlns:xlink="http://www.w3.org/1999/xlink" data-name="Layer 1"><linearGradient id="linear-gradient" gradientUnits="userSpaceOnUse" x1="256" x2="256" y1="451" y2="68.168"><stop offset=".322" stop-color="#a163f5"/><stop offset=".466" stop-color="#b074ee"/><stop offset=".752" stop-color="#d8a1dd"/><stop offset=".898" stop-color="#efbad3"/></linearGradient><linearGradient id="linear-gradient-2" xlink:href="#linear-gradient" y1="451" y2="68.168"/><linearGradient id="linear-gradient-3" x1="257.479" x2="257.479" xlink:href="#linear-gradient" y1="451" y2="68.168"/><linearGradient id="linear-gradient-4" x1="287.595" x2="287.595" xlink:href="#linear-gradient" y1="451" y2="68.169"/><linearGradient id="linear-gradient-5" x1="228.348" x2="228.348" xlink:href="#linear-gradient" y1="450.999" y2="68.166"/><linearGradient id="linear-gradient-6" x1="290.406" x2="290.406" xlink:href="#linear-gradient" y1="450.999" y2="68.166"/><linearGradient id="linear-gradient-7" x1="221.594" x2="221.594" xlink:href="#linear-gradient" y1="450.999" y2="68.166"/><path d="m364.923 326.086-.067-.043a47.052 47.052 0 0 0 -3.105-8.386q-.961-1.98-2.082-3.834v-172.017c0-.115 0-.229-.01-.343a103.833 103.833 0 0 0 -207.491 6.027v82.5a130.988 130.988 0 0 0 33.379 87.715h-10.847a49.759 49.759 0 0 0 -49.7 49.7v94.932a6 6 0 0 0 6 6h250a6 6 0 0 0 6-6v-94.927a49.655 49.655 0 0 0 -22.077-41.324zm-34.216 40.531a6 6 0 0 0 -6 6c0 29.6-13.256 48.074-17.631 53.364l-8.148.586a200.045 200.045 0 0 0 14.323-67.37l.011-.3q4.716-1.17 9.357-2.7a151.526 151.526 0 0 0 23.769-10.197l7.88-4.214c-.017.167-.021.333-.041.5l-6.5 57.231a27.668 27.668 0 0 1 -25.14 25.317c6.4-10.443 14.116-28.035 14.116-52.221a6 6 0 0 0 -5.996-5.996zm-166.539-136.625v-82.5a91.833 91.833 0 0 1 183.5-5.509v158.417a76.343 76.343 0 0 0 -13.216-8.809v-17.853a6 6 0 0 0 -12 0v12.848a76.626 76.626 0 0 0 -23.43-3.667h-.589a80.914 80.914 0 0 0 38.358-68.771v-35.6a80.792 80.792 0 1 0 -161.584.016l.086 33.167a83 83 0 0 0 82.867 82.917l4.275.036 28.169.236h8.418a64.339 64.339 0 0 1 26.545 5.7 5.889 5.889 0 0 0 .8.358 64.538 64.538 0 0 1 17.679 12.254 34.337 34.337 0 0 1 6.909 9.662 35.064 35.064 0 0 1 2.2 5.884l-12.428 6.646a139.327 139.327 0 0 1 -21.881 9.39q-5.346 1.771-10.814 2.994c-.119-.012-.238-.027-.36-.032a5.951 5.951 0 0 0 -3.156.765 114.873 114.873 0 0 1 -103.056-31.567l-2.16-2.16a119.169 119.169 0 0 1 -35.132-84.822zm151.819-85.058a68.337 68.337 0 0 1 8.8 33.613v35.6a68.8 68.8 0 0 1 -62.766 68.531l-3.815-.031a71 71 0 0 1 -70.917-70.934l-.086-33.167a68.343 68.343 0 0 1 8.781-33.572 156.067 156.067 0 0 1 120.003-.04zm-105.853-17.6a68.628 68.628 0 0 1 91.7-.029 168.442 168.442 0 0 0 -91.7.027zm115.6 329.01h-139.452a50.45 50.45 0 0 1 .518-38.62 6 6 0 1 0 -11.013-4.764 62.533 62.533 0 0 0 -2.248 43.384h-36.539v-88.934a37.746 37.746 0 0 1 37.7-37.7h22.761a126.516 126.516 0 0 0 103.671 31.566 188.184 188.184 0 0 1 -16.312 67.807l-.773 1.724a6 6 0 0 0 5.473 8.455q.216 0 .432-.015l32.9-2.367a40.6 40.6 0 0 0 6.421-.989 50.25 50.25 0 0 1 -3.542 20.451zm49.269 0h-36.537a62.259 62.259 0 0 0 2.49-25.265 39.612 39.612 0 0 0 18.732-30.543l6.458-56.845c.019-.161.025-.322.043-.483a37.632 37.632 0 0 1 8.811 24.202z" fill="url(#linear-gradient)"/><path d="m230.248 217.092a6 6 0 0 0 0 8.486 36.462 36.462 0 0 0 51.5 0 6 6 0 0 0 -8.485-8.486 24.447 24.447 0 0 1 -34.534 0 6 6 0 0 0 -8.481 0z" fill="url(#linear-gradient-2)"/><path d="m282.551 343.817a132.94 132.94 0 0 0 30.674-3.717 6 6 0 0 0 -2.771-11.676c-41.692 9.893-79.068-2.31-102.544-33.475a6 6 0 1 0 -9.585 7.219c20.502 27.218 50.238 41.649 84.226 41.649z" fill="url(#linear-gradient-3)"/><path d="m263.933 320.878a115.009 115.009 0 0 0 17.181 1.271 132.65 132.65 0 0 0 30.632-3.709 6 6 0 1 0 -2.77-11.675 113.562 113.562 0 0 1 -43.252 2.248 6 6 0 0 0 -1.791 11.865z" fill="url(#linear-gradient-4)"/><path d="m203.789 105.631a5.985 5.985 0 0 0 4.411-1.931 57.366 57.366 0 0 1 8.743-7.752c10.009-7.156 22.024-10.49 35.7-9.895a6 6 0 0 0 .518-11.99c-16.429-.7-30.96 3.371-43.2 12.124a69.4 69.4 0 0 0 -10.579 9.372 6 6 0 0 0 4.407 10.07z" fill="url(#linear-gradient-5)"/><path d="m277.5 183.379a6 6 0 0 0 6-6 6.9 6.9 0 1 1 13.8 0 6 6 0 1 0 12 0 18.9 18.9 0 1 0 -37.8 0 6 6 0 0 0 6 6z" fill="url(#linear-gradient-6)"/><path d="m208.692 183.379a6 6 0 0 0 6-6 6.9 6.9 0 0 1 13.8 0 6 6 0 0 0 12 0 18.9 18.9 0 0 0 -37.8 0 6 6 0 0 0 6 6z" fill="url(#linear-gradient-7)"/></svg>