<svg id="Layer_1" height="512" viewBox="0 0 512 512" width="512" xmlns="http://www.w3.org/2000/svg" xmlns:xlink="http://www.w3.org/1999/xlink" data-name="Layer 1"><linearGradient id="linear-gradient" gradientUnits="userSpaceOnUse" x1="256.001" x2="256.001" y1="451" y2="68.168"><stop offset=".322" stop-color="#a163f5"/><stop offset=".466" stop-color="#b074ee"/><stop offset=".752" stop-color="#d8a1dd"/><stop offset=".898" stop-color="#efbad3"/></linearGradient><linearGradient id="linear-gradient-2" x1="290.406" x2="290.406" xlink:href="#linear-gradient" y1="451" y2="68.169"/><linearGradient id="linear-gradient-3" x1="221.594" x2="221.594" xlink:href="#linear-gradient" y1="451" y2="68.169"/><linearGradient id="linear-gradient-4" x1="256" x2="256" xlink:href="#linear-gradient" y1="451" y2="68.169"/><path d="m387.421 169.754a14.1 14.1 0 0 1 -5.834-13.544l1.215-8.551a26.068 26.068 0 0 0 -14.511-27.226l-13.2-6.38a14.163 14.163 0 0 1 -7.454-8.872l-8.5-29.888a25.992 25.992 0 0 0 -22.689-18.885l-29.076-2.756-12.031-6.992a70.163 70.163 0 0 0 -78.054 4.921l-9 6.872a15.5 15.5 0 0 1 -4.411 2.355l-18.888 6.439a27.516 27.516 0 0 0 -18.638 26.053v14.366a15.5 15.5 0 0 1 -8.182 13.675l-5.985 3.212a27.5 27.5 0 0 0 -12.54 34.47l3.078 7.7a15.48 15.48 0 0 1 -2.6 15.836 27.521 27.521 0 0 0 5.8 40.844l9.606 6.326a15.586 15.586 0 0 1 4.962 5.3l7.9 13.916a27.441 27.441 0 0 0 27.347 13.724l14.073-1.759a15.561 15.561 0 0 1 7.154.788l5.825 2.085a81.43 81.43 0 0 0 12.876 9.217v1.4a52.318 52.318 0 0 0 -29.4 13.257c-13.114 11.921-22.833 25.322-28.4 39.081a49.459 49.459 0 0 0 -32.864 46.772v94.933a6 6 0 0 0 6 6h250a6 6 0 0 0 6-6v-94.933a49.977 49.977 0 0 0 -32.871-46.767c-5.487-13.549-15.107-27.109-27.574-38.742a51.965 51.965 0 0 0 -30.219-13.66v-1.325c.332-.192.668-.377 1-.574.834.08 1.67.134 2.5.134a26.255 26.255 0 0 0 16.376-5.724l13.753-11a14.09 14.09 0 0 1 11.948-2.757l3.761.846a26.152 26.152 0 0 0 31.41-20.506l1.568-8.038a14.134 14.134 0 0 1 3.743-7.155l8.663-8.91a26.151 26.151 0 0 0 -3.64-39.577zm-159.757 121.191v-12.245a80.529 80.529 0 0 0 56.672 0v10.524a39.25 39.25 0 0 0 17.92 32.927 100.744 100.744 0 0 1 -91.834.346 37.534 37.534 0 0 0 17.242-31.552zm-24.671 7.16a72.959 72.959 0 0 1 7.116-10.4 40.8 40.8 0 0 1 5.555-1.214v4.458a25.579 25.579 0 0 1 -17.451 24.219c-.584-.411-1.158-.842-1.735-1.266a71.069 71.069 0 0 1 6.515-15.797zm-35.827 38.207c3.468-11.031 10.465-22.4 20.042-32.725-5.154 13.5-6.512 27.778-4.1 43.468a5.955 5.955 0 0 0 -1.522-1.129l-13.246-6.813a2.353 2.353 0 0 1 -1.174-2.801zm6.253 126.131h-36.419v-88.933a37.514 37.514 0 0 1 18.609-32.537 14.327 14.327 0 0 0 2.041 4.288h-3.9a9.152 9.152 0 0 0 -8.25 13.112l29.855 62.173a62.532 62.532 0 0 0 -1.936 41.897zm12.694 0a50.468 50.468 0 0 1 -2.894-25.523l12.256 25.523zm22.525 0a6.068 6.068 0 0 0 -.424-1.195l-49.935-103.987h20.56a6 6 0 0 0 5.49-3.585 143.585 143.585 0 0 0 5.519 18.911l32.664 89.856zm117.249 0h-9.362l12.256-25.523a50.469 50.469 0 0 1 -2.894 25.523zm40.107-112.9a9.1 9.1 0 0 0 -7.745-4.278h-3.9a14.325 14.325 0 0 0 2.033-4.265 37.944 37.944 0 0 1 18.618 32.51v88.933h-36.419a62.532 62.532 0 0 0 -1.937-41.9l29.856-62.171a9.1 9.1 0 0 0 -.506-8.833zm-21.161-13.228a2.352 2.352 0 0 1 -1.17 2.8l-13.246 6.813a5.955 5.955 0 0 0 -1.522 1.129 90.643 90.643 0 0 0 .649-23.821 5.814 5.814 0 0 0 -.383-2.983 79.224 79.224 0 0 0 -4.592-17.228c9.638 10.45 16.731 22.038 20.264 33.286zm-17.162 17.365a6 6 0 0 0 5.49 3.585h20.56l-49.935 103.983a6.068 6.068 0 0 0 -.424 1.195h-13.874l32.664-89.855a143.641 143.641 0 0 0 5.519-18.912zm-9.819-25.615c.743 12.288-1.585 25.594-6.977 40.427l-34.155 93.951h-41.44l-34.155-93.956c-5.362-14.748-7.7-27.988-6.992-40.219q.889-.094 1.765-.228a112.639 112.639 0 0 0 120.546-.22c.467.087.935.171 1.408.241zm-16.109-40.542a73.121 73.121 0 0 1 7.264 10.586 71.116 71.116 0 0 1 6.516 15.795c-.423.31-.84.633-1.267.936a27.306 27.306 0 0 1 -17.92-25.61v-2.808a40.944 40.944 0 0 1 5.407 1.097zm23.049-84.46a68.792 68.792 0 1 1 -137.584 0v-51.577a27.99 27.99 0 0 0 20.1-21.095 22.15 22.15 0 0 0 19.687-21.984 7.272 7.272 0 0 1 7.264-7.264h8.851v1.9a21.916 21.916 0 0 0 21.89 21.891h15.8a9.9 9.9 0 0 1 9.892 9.891 21.915 21.915 0 0 0 21.891 21.891h12.216zm57.666-2.094-8.663 8.911a26.085 26.085 0 0 0 -6.917 13.222l-1.568 8.038a14.156 14.156 0 0 1 -17 11.1l-3.76-.846a25.994 25.994 0 0 0 -19.231 3.116 80.291 80.291 0 0 0 11.473-41.444v-.023c.522.04 1.044.066 1.568.066a20.714 20.714 0 0 0 20.522-23.625 20.551 20.551 0 0 0 -8.718-14.1 18.1 18.1 0 0 0 -13.372-2.927v-10.404a6.007 6.007 0 0 0 -5.851-7.337h-18.365a9.9 9.9 0 0 1 -9.891-9.891 21.916 21.916 0 0 0 -21.892-21.891h-15.793a9.9 9.9 0 0 1 -9.89-9.892v-2.9a18.817 18.817 0 0 0 12.8-17.8 6 6 0 1 0 -12 0 6.8 6.8 0 0 1 -6.8 6.8h-14.855a19.286 19.286 0 0 0 -19.264 19.264 10.133 10.133 0 0 1 -10.121 10.121h-14.141a6 6 0 0 0 0 12h4.015a15.917 15.917 0 0 1 -14.715 9.9h-14.547a6 6 0 0 0 0 12h9.726v10.04a18.1 18.1 0 0 0 -13.528 2.905 20.547 20.547 0 0 0 -8.719 14.1 20.714 20.714 0 0 0 20.522 23.628c.577 0 1.152-.034 1.725-.082v.039a80.319 80.319 0 0 0 14.3 45.823c-.4.031-.8.063-1.192.113l-14.071 1.758a15.477 15.477 0 0 1 -15.424-7.74l-7.9-13.915a27.643 27.643 0 0 0 -8.8-9.4l-9.606-6.326a15.52 15.52 0 0 1 -3.272-23.034 27.448 27.448 0 0 0 4.613-28.079l-3.078-7.7a15.509 15.509 0 0 1 7.071-19.44l5.986-3.211a27.482 27.482 0 0 0 14.508-24.25v-14.356a15.517 15.517 0 0 1 10.512-14.69l18.888-6.439a27.472 27.472 0 0 0 7.821-4.176l9-6.872a58.194 58.194 0 0 1 64.744-4.082l13.173 7.653a5.974 5.974 0 0 0 2.448.785l30.385 2.881a14.065 14.065 0 0 1 12.286 10.214l8.5 29.889a26.175 26.175 0 0 0 13.774 16.393l13.2 6.381a14.106 14.106 0 0 1 7.853 14.734l-1.215 8.552a26.052 26.052 0 0 0 10.781 25.025 14.152 14.152 0 0 1 1.971 21.417zm-45.666-10.019v-15.96a6.357 6.357 0 0 1 6.548.252 8.7 8.7 0 0 1 -1.649 15.2 8.809 8.809 0 0 1 -4.899.504zm-161.584-15.869v15.829a8.8 8.8 0 0 1 -5.056-.464 8.7 8.7 0 0 1 -1.648-15.2 6.369 6.369 0 0 1 6.704-.165z" fill="url(#linear-gradient)"/><path d="m290.406 152.618a18.923 18.923 0 0 0 -18.9 18.9 6 6 0 0 0 12 0 6.9 6.9 0 0 1 13.805 0 6 6 0 1 0 12 0 18.924 18.924 0 0 0 -18.905-18.9z" fill="url(#linear-gradient-2)"/><path d="m234.5 177.52a6 6 0 0 0 6-6 18.9 18.9 0 0 0 -37.805 0 6 6 0 0 0 12 0 6.9 6.9 0 0 1 13.805 0 6 6 0 0 0 6 6z" fill="url(#linear-gradient-3)"/><path d="m273.268 215.611a24.449 24.449 0 0 1 -34.536 0 6 6 0 1 0 -8.484 8.486 36.462 36.462 0 0 0 51.5 0 6 6 0 1 0 -8.484-8.486z" fill="url(#linear-gradient-4)"/></svg>