<svg id="Layer_1" height="512" viewBox="0 0 512 512" width="512" xmlns="http://www.w3.org/2000/svg" xmlns:xlink="http://www.w3.org/1999/xlink" data-name="Layer 1"><linearGradient id="linear-gradient" gradientUnits="userSpaceOnUse" x1="241.584" x2="241.584" y1="451" y2="68.168"><stop offset=".322" stop-color="#a163f5"/><stop offset=".466" stop-color="#b074ee"/><stop offset=".752" stop-color="#d8a1dd"/><stop offset=".898" stop-color="#efbad3"/></linearGradient><linearGradient id="linear-gradient-2" x1="348.606" x2="348.606" xlink:href="#linear-gradient" y1="451" y2="68.169"/><linearGradient id="linear-gradient-3" x1="256.009" x2="256.009" xlink:href="#linear-gradient" y1="451" y2="68.169"/><linearGradient id="linear-gradient-4" x1="219.728" x2="219.728" xlink:href="#linear-gradient" y1="451" y2="68.168"/><linearGradient id="linear-gradient-5" x1="254.133" x2="254.133" xlink:href="#linear-gradient" y1="451" y2="68.17"/><circle cx="241.584" cy="357.999" fill="url(#linear-gradient)" r="6.5"/><path d="m337.529 426.971h22.154a6 6 0 0 0 0-12h-22.154a6 6 0 0 0 0 12z" fill="url(#linear-gradient-2)"/><path d="m337.883 334.188a6 6 0 0 0 6.553-1.355l9.658-9.853a145.448 145.448 0 0 0 27.816-39.445c21.112-44.555 17.278-93.522-9.823-128.7a52.672 52.672 0 0 0 4.577-21.3c0-21.285-13.007-41.085-36.628-55.789a55.025 55.025 0 0 0 -42.136-50.263 191.459 191.459 0 0 0 -82.883-.979 53.354 53.354 0 0 0 -41.687 48.421q-2.277 1.275-4.468 2.627c-23.812 14.723-36.927 34.6-36.927 55.979 0 14.559 6.226 28.677 17.99 40.9a98.794 98.794 0 0 1 -17.363 30.581 68.781 68.781 0 0 0 -9.163 73.943l2.241 4.634a6 6 0 0 0 11.342-3.452 40.018 40.018 0 0 1 .222-10.486 61.987 61.987 0 0 0 24.067 43.965l6.516 4.987a6 6 0 0 0 9.518-6l-2.822-13.4a29.193 29.193 0 0 1 -.621-5.66 108.218 108.218 0 0 0 9.563 13.768c1.082 1.317 2.186 2.562 3.3 3.774a31.932 31.932 0 0 0 -4.056 15.644v12.195h-7.969a49.76 49.76 0 0 0 -49.7 49.7v94.932a6 6 0 0 0 6 6h250a6 6 0 0 0 6-6v-94.929a49.76 49.76 0 0 0 -49.7-49.7h-7.97v-12.199a32.266 32.266 0 0 0 -.7-6.668l5.52-3.437v12.01a6 6 0 0 0 3.733 5.555zm-120.362-295.948a176.291 176.291 0 0 1 36.779-3.8 174.535 174.535 0 0 1 40.788 4.709 43.038 43.038 0 0 1 31.768 31.479c-20.871-9.757-46.086-15.046-72.556-15.046-24.514 0-47.95 4.539-67.859 12.959a41.2 41.2 0 0 1 31.08-30.301zm-73.586 95.291c0-17.062 11.094-33.317 31.238-45.772 21.043-13.011 49.144-20.177 79.127-20.177s58.084 7.166 79.127 20.177c20.143 12.455 31.237 28.71 31.237 45.772a39.623 39.623 0 0 1 -1.3 10.017c-66.827-37.7-122.92-35.552-158.329-27.03-31.888 7.675-52.835 21.482-59.876 26.651a39.391 39.391 0 0 1 -1.224-9.638zm131.7 66.687a6 6 0 0 0 6-6 6.9 6.9 0 1 1 13.8 0 6 6 0 0 0 12 0 18.912 18.912 0 0 0 -9.748-16.526c1.043-.06 2.077-.126 3.087-.205 10.382-.807 20.014 6.8 22.145 17.383v30.886a68.794 68.794 0 0 1 -126 38.211 165.265 165.265 0 0 1 -11.576-60.382 33.1 33.1 0 0 0 3.521 1.265l4.347 1.263a6 6 0 0 0 6.955-8.611c-13.845-25.654-12.5-49.732 3.566-64.382l4.274-3.841a71.674 71.674 0 0 0 14.584 23.41c16.035 17.195 37.48 23.437 56.979 24.892a18.917 18.917 0 0 0 -9.94 16.637 6 6 0 0 0 6.009 6zm-62.1 149.53h28.239a7.965 7.965 0 0 1 0 15.93h-21.6a25.491 25.491 0 0 1 -25.421-23.365 27.4 27.4 0 0 0 18.786 7.435zm-15.557-27.662v-.543c0-.123.009-.244.012-.367a56.4 56.4 0 0 0 16.86 8.436 13.983 13.983 0 0 1 -6.088 7.374 15.674 15.674 0 0 1 -10.78-14.9zm17.682-24.559c-.317-.414-.642-.809-.956-1.231.316.177.638.343.956.515zm24.44 22.419a78.355 78.355 0 0 1 -12.431-9.278v-8.568a80.757 80.757 0 0 0 56.672-1.419v24.246a25.975 25.975 0 0 0 3.374 12.825h-3.524a19.965 19.965 0 0 0 0 39.93h7.633a37.562 37.562 0 0 0 18.076-4.642q1.091-.6 2.127-1.268l1.187 6.724a123.962 123.962 0 0 1 -114.506.44l1.265-7.164c.692.443 1.4.868 2.127 1.268a37.562 37.562 0 0 0 18.081 4.638h21.6a19.965 19.965 0 0 0 0-39.93h-17.491a25.946 25.946 0 0 0 2.489-6.086c.838.041 1.676.078 2.519.078a53.6 53.6 0 0 0 8.695-.72 6 6 0 0 0 2.1-11.074zm58.6-13.4a20.115 20.115 0 0 1 10.442 3.922c.168.154.315.333.477.495a73.522 73.522 0 0 1 -6.955 11.64 6 6 0 0 0 8.014 8.635l.681-.424a15.634 15.634 0 0 1 -8.12 6.17 13.975 13.975 0 0 1 -6.9-12.063v-18.373zm-2.268-12a81.494 81.494 0 0 0 20.726-18.319 81.293 81.293 0 0 1 -3.066 22.94 26.859 26.859 0 0 0 -15.058-4.621h-2.6zm2.034 55.2a27.4 27.4 0 0 0 18.779-7.435 25.494 25.494 0 0 1 -25.421 23.365h-7.633a7.965 7.965 0 0 1 0-15.93zm-101.882 41.537a135.916 135.916 0 0 0 118.765-.417 208.23 208.23 0 0 1 2.349 22.557 123.55 123.55 0 0 1 -123.422.535 208.089 208.089 0 0 1 2.308-22.675zm-13.758-203.564a21.89 21.89 0 0 1 -6.042-11.712 6 6 0 1 0 -11.83 2.007 33.4 33.4 0 0 0 2.054 7.127 17.93 17.93 0 0 0 -7.194 2.928 20.753 20.753 0 0 0 -4.614 4.359 111.148 111.148 0 0 0 12.326-47.622c.017-.586.032-1.055.043-1.415a167.155 167.155 0 0 1 19.346-8.752 52.931 52.931 0 0 0 -8.035 24.281 71.753 71.753 0 0 0 3.946 28.799zm-9.166 25.81a8.677 8.677 0 0 1 -10.69-9.629 8.67 8.67 0 0 1 3.668-5.96 6.371 6.371 0 0 1 6.7-.161v5.09q.004 5.344.322 10.66zm-23.8-58.858c.118-.084.236-.167.349-.261.059-.048 1.739-1.422 4.905-3.564-.306 3.238-.758 6.457-1.38 9.64a54.929 54.929 0 0 1 -3.871-5.815zm27.852 119.71a6 6 0 0 0 -10.894-.752 41.146 41.146 0 0 0 -4.651 24.615 49.974 49.974 0 0 1 -13.034-29.932l-1.069-13.812a6 6 0 0 0 -7.38-5.371 18.454 18.454 0 0 0 -11.5 8.281 56.761 56.761 0 0 1 12.583-44.7 109.835 109.835 0 0 0 10.37-14.71 21.279 21.279 0 0 0 -1.042 4.175 20.711 20.711 0 0 0 20.522 23.625 20.492 20.492 0 0 0 3.169-.256 175.14 175.14 0 0 0 11.063 43.029 5.8 5.8 0 0 0 .381.925q2.484 6.1 5.413 11.963c6.91 13.727 14.949 25.213 24.021 34.36v1.349c-25.07-9.51-37.795-42.382-37.949-42.789zm10.861 203.178h-51.573v-88.932a37.746 37.746 0 0 1 37.7-37.7h9.561a37.582 37.582 0 0 0 5.283 10.867l-4.186 23.726a222.917 222.917 0 0 0 3.218 92.039zm12.406 0q-1.376-5.208-2.482-10.487a135.423 135.423 0 0 0 33.356 10.487zm110.036 0h-31.815a135.524 135.524 0 0 0 34.4-10.987q-1.14 5.528-2.582 10.987zm5.114-25.8a123.56 123.56 0 0 1 -120.181.581 211.78 211.78 0 0 1 -1.886-24.858 135.443 135.443 0 0 0 123.874-.5 212 212 0 0 1 -1.804 24.776zm21.171-100.836a37.746 37.746 0 0 1 37.7 37.7v88.932h-51.576a222.917 222.917 0 0 0 3.215-92.043l-4.186-23.726a37.582 37.582 0 0 0 5.283-10.867zm-13.785-41.812a91.438 91.438 0 0 0 3.993-49.593 80.269 80.269 0 0 0 7.421-33.762v-.023c.521.04 1.044.066 1.567.066a20.712 20.712 0 0 0 20.523-23.625 20.556 20.556 0 0 0 -8.718-14.105 18.169 18.169 0 0 0 -15.7-2.368 32.9 32.9 0 0 0 -32.754-20.178c-57.117 4.457-75.247-26.423-80.37-39.723a182.311 182.311 0 0 1 54.4-.931c24.866 3.253 50.126 11.519 75.232 24.592l11.159 10.012a5.947 5.947 0 0 0 1.012 1.019c25.512 31.681 29.284 76.76 9.79 117.9a133.16 133.16 0 0 1 -24.915 35.539v-8.116a6 6 0 0 0 -9.171-5.093zm11.414-95.467v-15.956a6.357 6.357 0 0 1 6.547.252 8.7 8.7 0 0 1 -1.648 15.2 8.817 8.817 0 0 1 -4.902.504z" fill="url(#linear-gradient-3)"/><path d="m232.63 200.218a6 6 0 0 0 6-6 18.9 18.9 0 1 0 -37.805 0 6 6 0 1 0 12 0 6.9 6.9 0 1 1 13.805 0 6 6 0 0 0 6 6z" fill="url(#linear-gradient-4)"/><path d="m236.866 238.309a6 6 0 1 0 -8.484 8.485 36.418 36.418 0 0 0 51.5 0 6 6 0 0 0 -8.487-8.485 24.419 24.419 0 0 1 -34.533 0z" fill="url(#linear-gradient-5)"/></svg>