<svg id="Layer_1" height="512" viewBox="0 0 512 512" width="512" xmlns="http://www.w3.org/2000/svg" xmlns:xlink="http://www.w3.org/1999/xlink" data-name="Layer 1"><linearGradient id="linear-gradient" gradientUnits="userSpaceOnUse" x1="256" x2="256" y1="451" y2="68.168"><stop offset=".322" stop-color="#a163f5"/><stop offset=".466" stop-color="#b074ee"/><stop offset=".752" stop-color="#d8a1dd"/><stop offset=".898" stop-color="#efbad3"/></linearGradient><linearGradient id="linear-gradient-2" x1="290.406" x2="290.406" xlink:href="#linear-gradient" y1="451" y2="68.168"/><linearGradient id="linear-gradient-3" x1="221.594" x2="221.594" xlink:href="#linear-gradient" y1="451" y2="68.168"/><linearGradient id="linear-gradient-4" xlink:href="#linear-gradient" y1="451" y2="68.168"/><linearGradient id="linear-gradient-5" x1="202.175" x2="202.175" xlink:href="#linear-gradient" y1="451" y2="68.168"/><linearGradient id="linear-gradient-6" x1="330.284" x2="330.284" xlink:href="#linear-gradient" y1="451" y2="68.169"/><path d="m359.835 325.835c-2.492-9.519-7.681-20.729-17.778-32.665 1.069-3.569 1.286-8.444-.869-14.869a19.556 19.556 0 0 0 -2.92-5.546 61.239 61.239 0 0 0 13.982-17.238c6.137-11.407 10.722-29.62-.476-53.141a20.842 20.842 0 0 0 7.108-18.685 20.545 20.545 0 0 0 -8.538-13.967c.187-.018.37-.031.558-.051a5.883 5.883 0 0 0 .835-.147l15.795-3.948a6 6 0 0 0 1.212-11.2 108.307 108.307 0 0 1 -18.667-12.677v-13.37a75.488 75.488 0 0 0 -80.187-75.34h-16.4l-3.462-.061a12.02 12.02 0 0 0 -12.007-12.007h-11a64.451 64.451 0 0 0 -64.369 64.326l-.026 39.392h-18.42a6 6 0 1 0 0 12h18.415l-.008 12.359c-.314.19-.63.375-.934.585a20.556 20.556 0 0 0 -8.718 14.106 20.864 20.864 0 0 0 9.628 20.541l-.016 22.919c0 .088 0 .176.006.265q.047 1.082.131 2.156c1.942 24.772 20.627 45.807 45.437 51.153l7.517 1.619v24.096a14.015 14.015 0 0 1 -14 14h-26.964a49.76 49.76 0 0 0 -49.7 49.7v94.932a6 6 0 0 0 6 6h250a6 6 0 0 0 6-6v-94.928a49.622 49.622 0 0 0 -27.165-44.309zm-31.926-60.186a20.176 20.176 0 0 0 -5.617-.807 19.055 19.055 0 0 0 -13.565 5.62 19.5 19.5 0 0 0 -1.613 1.86c-1.49.354-3.013.64-4.458.848a80.73 80.73 0 0 0 34.136-65.9v-.022c.522.04 1.044.065 1.567.065a20.762 20.762 0 0 0 2.4-.156c17.432 36.172-9.699 56.315-12.85 58.492zm2.159 17.287a27.171 27.171 0 0 0 -4.729-1.746 15.138 15.138 0 0 0 -9.921.748 7.193 7.193 0 0 1 6.875-5.1 7.858 7.858 0 0 1 7.518 5.276c.089.254.17.531.257.822zm-26.952 12.375a63.787 63.787 0 0 0 -6.351 14.523 14.053 14.053 0 0 1 -.429-3.394v-21.017c.768.065 1.591.106 2.487.106a37.966 37.966 0 0 0 4.289-.258zm38.575-100.65a8.817 8.817 0 0 1 -4.9.5v-15.956a6.355 6.355 0 0 1 6.547.252 8.7 8.7 0 0 1 -1.648 15.2zm-167.036-89.4a52.435 52.435 0 0 1 52.369-52.333l11.007.007a12.06 12.06 0 0 0 11.819 12.002l3.549.054h16.682q.195 0 .39-.012a63.485 63.485 0 0 1 67.606 63.352v1.569a72.678 72.678 0 0 1 -12.089-19.328 6 6 0 1 0 -11.093 4.573c8.261 20.042 24.478 34.223 35.892 42.246l-1.54.385a59.3 59.3 0 0 1 -16.509-.52 5.983 5.983 0 0 0 -1.636-.313c-21.855-4.79-27.232-22.674-27.49-23.581-.033-.122-.07-.242-.111-.362-8.928-26.236-26.132-35.333-38.992-38.344a58.165 58.165 0 0 0 -14.009-1.474 25.1 25.1 0 0 0 .666-5.728v-12.863a6 6 0 0 0 -12 0v12.863a13.172 13.172 0 0 1 -13.166 13.157 25.185 25.185 0 0 0 -25.156 25.157v5.717a13.172 13.172 0 0 1 -13.158 13.157h-13.057zm-.034 51.385h.587v10.04c-.2-.035-.4-.055-.594-.084zm-2.906 38.474a5.945 5.945 0 0 0 -2.362-.831 8.7 8.7 0 0 1 -.849-14.828 6.371 6.371 0 0 1 6.7-.161v15.829a8.724 8.724 0 0 1 -3.489-.013zm2.958 33.518q-.063-.8-.1-1.61l.014-19.744c.207-.011.414-.028.621-.045v.038a80.54 80.54 0 0 0 24.458 57.834c-13.981-7.026-23.766-20.805-24.993-36.477zm12.535-21.361v-50.635h.482a25.186 25.186 0 0 0 25.158-25.157v-5.717a13.171 13.171 0 0 1 13.152-13.157 25.058 25.058 0 0 0 17.117-6.744c7.041-1.331 36.813-4.66 48.979 30.88a47.146 47.146 0 0 0 11.4 18.489 48.941 48.941 0 0 0 21.291 12.475v39.562a68.792 68.792 0 1 1 -137.584 0zm40.456 99.167v-23.544a80.369 80.369 0 0 0 56.672.016v23.524a25.829 25.829 0 0 0 7.616 18.385 26.154 26.154 0 0 0 2.174 1.93 58.592 58.592 0 0 0 3.037 19.521 154.151 154.151 0 0 1 -13.837 40.838 30.675 30.675 0 0 1 -54.788-.27 153.218 153.218 0 0 1 -15.906-56.838 26.031 26.031 0 0 0 15.032-23.566zm-52.371 110.42a62.546 62.546 0 0 0 -1.751 42.212h-36.542v-88.932a37.746 37.746 0 0 1 37.7-37.7h.59zm150.426 42.212h-139.438a50.457 50.457 0 0 1 .519-38.621 6 6 0 0 0 .493-2.382v-85.633h13.507a165.123 165.123 0 0 0 17.011 59.79 42.674 42.674 0 0 0 76.224.29 166.074 166.074 0 0 0 11.522-29.62 61.254 61.254 0 0 0 5.366 6.477c8.493 9 6.716 16.871 3.727 21.89a6 6 0 0 0 8.408 8.111c.556-.358 1.1-.72 1.645-1.081v19.776a6 6 0 0 0 .493 2.382 50.457 50.457 0 0 1 .523 38.621zm3.236-78.944c-.682-6.627-3.815-13.178-9.3-18.991a45.611 45.611 0 0 1 -5.584-7.081 54.1 54.1 0 0 1 -4.982-10.111c-.016-.05-.034-.1-.051-.149-8.356-23.069 4-41.842 4.951-43.226l4.94-6.608a3.166 3.166 0 0 1 3.355-1.171 15.275 15.275 0 0 1 7.288 4.374c20.8 22.321 20.926 41.73 20.015 49.039-1.51 12.092-8.433 23.464-20.632 33.924zm46.045 78.944h-36.542a62.546 62.546 0 0 0 -1.751-42.212v-27.573c14.574-12.475 22.894-26.418 24.786-41.6a52.077 52.077 0 0 0 .386-6.136 37.637 37.637 0 0 1 13.121 28.589z" fill="url(#linear-gradient)"/><path d="m277.5 181.735a6 6 0 0 0 6-6 6.9 6.9 0 0 1 13.805 0 6 6 0 0 0 12 0 18.9 18.9 0 0 0 -37.805 0 6 6 0 0 0 6 6z" fill="url(#linear-gradient-2)"/><path d="m234.5 181.735a6 6 0 0 0 6-6 18.9 18.9 0 0 0 -37.805 0 6 6 0 0 0 12 0 6.9 6.9 0 0 1 13.805 0 6 6 0 0 0 6 6z" fill="url(#linear-gradient-3)"/><path d="m281.752 228.311a6 6 0 1 0 -8.484-8.485 24.449 24.449 0 0 1 -34.536 0 6 6 0 1 0 -8.484 8.485 36.46 36.46 0 0 0 51.5 0z" fill="url(#linear-gradient-4)"/><path d="m193.416 109.9a32.059 32.059 0 0 1 17.817-28.831l8.382-4.19a6 6 0 1 0 -5.365-10.733l-8.383 4.19a43.993 43.993 0 0 0 -24.451 39.564 6 6 0 1 0 12 0z" fill="url(#linear-gradient-5)"/><path d="m326.823 302.52a6 6 0 0 0 -8.184 8.775c.8.753 19.455 18.757 10.914 45.076a6 6 0 1 0 11.414 3.7c10.947-33.731-13.113-56.594-14.144-57.551z" fill="url(#linear-gradient-6)"/></svg>