<svg id="Layer_1" height="512" viewBox="0 0 512 512" width="512" xmlns="http://www.w3.org/2000/svg" xmlns:xlink="http://www.w3.org/1999/xlink" data-name="Layer 1"><linearGradient id="linear-gradient" gradientUnits="userSpaceOnUse" x1="256" x2="256" y1="455" y2="100.639"><stop offset=".322" stop-color="#a163f5"/><stop offset=".466" stop-color="#b074ee"/><stop offset=".752" stop-color="#d8a1dd"/><stop offset=".898" stop-color="#efbad3"/></linearGradient><linearGradient id="linear-gradient-2" x1="277.504" x2="277.504" xlink:href="#linear-gradient" y1="455" y2="100.639"/><linearGradient id="linear-gradient-5" x1="233.504" x2="233.504" xlink:href="#linear-gradient" y1="455" y2="100.639"/><linearGradient id="linear-gradient-8" x1="290.406" x2="290.406" xlink:href="#linear-gradient" y1="454.999" y2="100.639"/><linearGradient id="linear-gradient-9" x1="221.594" x2="221.594" xlink:href="#linear-gradient" y1="454.999" y2="100.639"/><linearGradient id="linear-gradient-10" xlink:href="#linear-gradient" y1="455" y2="100.638"/><linearGradient id="linear-gradient-11" x1="299.481" x2="299.481" xlink:href="#linear-gradient" y1="455" y2="100.639"/><linearGradient id="linear-gradient-12" x1="299.481" x2="299.481" xlink:href="#linear-gradient" y1="455.001" y2="100.64"/><linearGradient id="linear-gradient-13" x1="190.925" x2="190.925" xlink:href="#linear-gradient" y1="455" y2="100.638"/><linearGradient id="linear-gradient-14" x1="172.714" x2="172.714" xlink:href="#linear-gradient" y1="455" y2="100.639"/><path d="m357.747 341.484a74.117 74.117 0 0 0 14.586-44.316v-190.729a82.231 82.231 0 0 0 -82.139-82.139h-59.655a6 6 0 0 0 -6 6v12.916h-10.262a74.694 74.694 0 0 0 -74.61 74.61v179.342a74.046 74.046 0 0 0 14.574 44.321 49.761 49.761 0 0 0 -29.241 45.278v94.933a6 6 0 0 0 6 6h250a6 6 0 0 0 6-6v-94.933a49.762 49.762 0 0 0 -29.253-45.283zm-121.208-305.184h53.655a70.218 70.218 0 0 1 70.139 70.138v190.73a62.2 62.2 0 0 1 -14.933 40.566 49.818 49.818 0 0 0 -8.1-.67h-26.964a14.017 14.017 0 0 1 -14-14v-29.211a80.821 80.821 0 0 0 40.456-69.953v-.022c.522.04 1.044.066 1.567.066a20.714 20.714 0 0 0 20.523-23.625 20.548 20.548 0 0 0 -8.717-14.1 18.1 18.1 0 0 0 -13.373-2.926v-23.83a33.345 33.345 0 0 0 -33.307-33.308h-22.323a44.674 44.674 0 0 1 -44.623-44.623zm100.253 175.484v-15.956a6.357 6.357 0 0 1 6.548.252 8.7 8.7 0 0 1 -1.649 15.2 8.816 8.816 0 0 1 -4.899.504zm-105.792-104.037a56.668 56.668 0 0 0 50.161 30.4h22.323a21.332 21.332 0 0 1 21.307 21.308v64.445a68.792 68.792 0 1 1 -137.584 0v-63.488a27.753 27.753 0 0 0 27.484-27.718 27.2 27.2 0 0 1 16.309-24.947zm-79.333 189.421v-179.342a62.681 62.681 0 0 1 62.61-62.61h10.262v26.307a56.446 56.446 0 0 0 2.046 15.048 39.2 39.2 0 0 0 -23.893 36.123 15.742 15.742 0 0 1 -15.724 15.724h-17.142a6 6 0 0 0 0 12h5.382v22.887a18.111 18.111 0 0 0 -13.529 2.905 20.551 20.551 0 0 0 -8.718 14.1 20.714 20.714 0 0 0 20.523 23.625c.576 0 1.151-.033 1.724-.081v.037a80.821 80.821 0 0 0 40.456 69.957v29.211a14.017 14.017 0 0 1 -14 14h-26.964a49.83 49.83 0 0 0 -8.1.67 62.132 62.132 0 0 1 -14.933-40.561zm23.541-101.249v15.829a8.811 8.811 0 0 1 -5.056-.464 8.7 8.7 0 0 1 -1.649-15.2 6.371 6.371 0 0 1 6.705-.165zm74.792 279.781h-63.718a50.462 50.462 0 0 1 .518-38.621 6 6 0 1 0 -11.013-4.763 62.533 62.533 0 0 0 -2.248 43.384h-36.539v-88.933a37.746 37.746 0 0 1 37.7-37.7h26.961a25.864 25.864 0 0 0 15.95-5.49 46.2 46.2 0 0 0 16.458 23.614l15.931 11.932zm-8.731-118.115a34.143 34.143 0 0 1 -13.605-27.195v-30.843a80.647 80.647 0 0 0 56.672 0v30.847a34.146 34.146 0 0 1 -13.6 27.188l-14.736 11.041zm133.731 118.115h-36.539a62.533 62.533 0 0 0 -2.248-43.384 6 6 0 0 0 -11.013 4.763 50.462 50.462 0 0 1 .518 38.621h-63.718v-96.578l15.929-11.937a46.185 46.185 0 0 0 16.456-23.612 25.864 25.864 0 0 0 15.951 5.491h26.964a37.746 37.746 0 0 1 37.7 37.7z" fill="url(#linear-gradient)"/><g fill="url(#linear-gradient-2)"><circle cx="277.504" cy="403.793" r="7"/><circle cx="277.504" cy="431.336" r="7"/><circle cx="277.504" cy="458.879" r="7"/></g><circle cx="233.504" cy="403.793" fill="url(#linear-gradient-5)" r="7"/><circle cx="233.504" cy="431.336" fill="url(#linear-gradient-5)" r="7"/><circle cx="233.504" cy="458.879" fill="url(#linear-gradient-5)" r="7"/><path d="m277.5 198.358a6 6 0 0 0 6-6 6.9 6.9 0 1 1 13.8 0 6 6 0 0 0 12 0 18.9 18.9 0 1 0 -37.8 0 6 6 0 0 0 6 6z" fill="url(#linear-gradient-8)"/><path d="m202.692 192.358a6 6 0 0 0 12 0 6.9 6.9 0 0 1 13.8 0 6 6 0 0 0 12 0 18.9 18.9 0 0 0 -37.8 0z" fill="url(#linear-gradient-9)"/><path d="m230.248 236.449a6 6 0 0 0 0 8.486 36.462 36.462 0 0 0 51.5 0 6 6 0 0 0 -8.485-8.486 24.447 24.447 0 0 1 -34.534 0 6 6 0 0 0 -8.481 0z" fill="url(#linear-gradient-10)"/><path d="m291.046 106.892h16.871a30.817 30.817 0 0 1 30.783 30.782 6 6 0 1 0 12 0 42.831 42.831 0 0 0 -42.782-42.782h-16.872a30.817 30.817 0 0 1 -30.782-30.782v-9.275a6 6 0 1 0 -12 0v9.275a42.831 42.831 0 0 0 42.782 42.782z" fill="url(#linear-gradient-11)"/><path d="m306.314 84.767h10.267a6 6 0 0 0 0-12h-10.267a17.952 17.952 0 0 1 -17.932-17.932 6 6 0 1 0 -12 0 29.965 29.965 0 0 0 29.932 29.932z" fill="url(#linear-gradient-12)"/><path d="m170.09 121.07a6 6 0 0 0 6-6 35.709 35.709 0 0 1 35.669-35.67 6 6 0 0 0 0-12 47.723 47.723 0 0 0 -47.669 47.67 6 6 0 0 0 6 6z" fill="url(#linear-gradient-13)"/><path d="m177.338 325.441a6 6 0 0 0 4.243-10.242 25.411 25.411 0 0 1 -7.491-18.084v-35.848a6 6 0 0 0 -12 0v35.848a37.327 37.327 0 0 0 11 26.569 5.984 5.984 0 0 0 4.248 1.757z" fill="url(#linear-gradient-14)"/></svg>