<svg id="Layer_1" height="512" viewBox="0 0 512 512" width="512" xmlns="http://www.w3.org/2000/svg" xmlns:xlink="http://www.w3.org/1999/xlink" data-name="Layer 1"><linearGradient id="linear-gradient" gradientUnits="userSpaceOnUse" x1="255.987" x2="255.987" y1="455" y2="100.639"><stop offset=".322" stop-color="#a163f5"/><stop offset=".466" stop-color="#b074ee"/><stop offset=".752" stop-color="#d8a1dd"/><stop offset=".898" stop-color="#efbad3"/></linearGradient><linearGradient id="linear-gradient-2" x1="303.847" x2="303.847" xlink:href="#linear-gradient" y1="455" y2="100.638"/><linearGradient id="linear-gradient-3" x1="269.441" x2="269.441" xlink:href="#linear-gradient" y1="455" y2="100.638"/><path d="m350.737 323.35h-26.96a14.016 14.016 0 0 1 -13.454-10.169 81.569 81.569 0 0 0 66.067-74.193l4.9-67.442c.011-.144.016-.29.016-.435a19.052 19.052 0 0 0 -8.4-15.8 10.106 10.106 0 0 1 -4.659-8.253v-28.965a40.9 40.9 0 0 0 -35.177-40.44 45.315 45.315 0 0 0 -44.9-39.638h-37.419a79.218 79.218 0 0 0 -79.129 79.129v5.148c-4 4.955-15.548 19.827-23.765 35.878a61.752 61.752 0 0 0 -3.96 46.274l.094.313a50.631 50.631 0 0 1 .234 28.635l-3.073 10.766a9.1 9.1 0 0 1 -4.207-7.759 6 6 0 0 0 -11.492-2.416l-10.8 24.555a36.313 36.313 0 0 0 8.79 41.614l-.624 7.1a56.57 56.57 0 0 0 18.418 46.773 5.941 5.941 0 0 0 .774.575 49.418 49.418 0 0 0 -3.567 18.453v94.932a6 6 0 0 0 6 6h250a6 6 0 0 0 6-6v-94.932a49.759 49.759 0 0 0 -49.707-49.703zm-26.96 12h14.37v46.486c-35.049-3.472-60.847-13.705-78.11-23.334a146.686 146.686 0 0 1 -33.924-25.602 26.03 26.03 0 0 0 14.992-23.547v-23.533a80.551 80.551 0 0 0 56.672.013v21.056a6.014 6.014 0 0 0 -.1 1.933c.018.163.068.313.1.471v.057a26.029 26.029 0 0 0 26 26zm-107.777-64.634a81.447 81.447 0 0 0 13.1 9.41v29.224a14.017 14.017 0 0 1 -14 14h-1.752l4.981-16.276a6.041 6.041 0 0 0 .2-.889 83.15 83.15 0 0 0 -2.529-35.469zm148.417-32.6a69.57 69.57 0 0 1 -54.644 62.937v-20.914a80.82 80.82 0 0 0 40.455-69.956v-.023c.522.04 1.044.066 1.568.066a20.93 20.93 0 0 0 7.793-1.516 20.3 20.3 0 0 0 7.336-5.075zm-14.185-40.046v-15.955a6.359 6.359 0 0 1 6.548.251 8.7 8.7 0 0 1 -1.649 15.2 8.814 8.814 0 0 1 -4.899.504zm-14.932-107.705a28.876 28.876 0 0 1 20.955 27.728v28.965a22.079 22.079 0 0 0 9.941 18.2 7.063 7.063 0 0 1 3.115 5.672l-.494 6.784a20.652 20.652 0 0 0 -5.209-5.215 17.928 17.928 0 0 0 -4.46-2.236c-.062-.092-.12-.186-.187-.276a115.891 115.891 0 0 1 -9.171-14.254 5.96 5.96 0 0 0 -.66-1.2 118 118 0 0 1 -13.83-55.177zm2.935 69.251v50.567a68.785 68.785 0 0 1 -137.385 5.056q.762-2.142 1.627-4.258l.982-2.4a107.828 107.828 0 0 1 14.741-25.414 5.994 5.994 0 0 0 9.934-4.523 6.9 6.9 0 1 1 13.8 0 6 6 0 0 0 12 0 18.917 18.917 0 0 0 -12.3-17.687 107.819 107.819 0 0 1 38.268-16.8 66.712 66.712 0 0 0 43.968-32.9 130.466 130.466 0 0 0 14.362 48.359zm-179.693 4.022c9.235-18.041 23.536-35.176 23.68-35.346a6.006 6.006 0 0 0 1.4-3.857v-7.291a67.205 67.205 0 0 1 67.129-67.129h37.422a33.286 33.286 0 0 1 33.248 33.248 5.992 5.992 0 0 0 .062.819 61.411 61.411 0 0 1 -50.989 27.245h-16.033a103.106 103.106 0 0 0 -73.391 30.4 84.91 84.91 0 0 0 -25.035 60.438v1.085c-.176-.656-.359-1.31-.556-1.962l-.094-.313a49.823 49.823 0 0 1 3.154-37.337zm-2.5 72.027v.365a9.3 9.3 0 0 1 -1.545 5.118l1.274-4.463c.089-.339.173-.68.264-1.02zm-30.4 27.705 5.332-12.119a21.4 21.4 0 0 0 13.515 6.366c.153.02.306.036.459.044a21.227 21.227 0 0 0 13.736-3.988l.509-.367a21.34 21.34 0 0 0 8.85-17.276v-33.865a72.994 72.994 0 0 1 21.521-51.954 91.184 91.184 0 0 1 64.905-26.884h16.033a73.327 73.327 0 0 0 38.166-10.727 54.734 54.734 0 0 1 -31.362 19.841 119.973 119.973 0 0 0 -84.953 71.592l-.983 2.4a106.264 106.264 0 0 0 -7.975 40.492 61.263 61.263 0 0 1 -18.062 43.6 24.469 24.469 0 0 1 -39.7-27.156zm9.134 44.933.095-1.09a36.684 36.684 0 0 0 38.955-8.2 73.116 73.116 0 0 0 21.234-44.962l1.105 1.754a71.144 71.144 0 0 1 10.566 48.205l-5.931 19.34h-12.656a49.657 49.657 0 0 0 -40.189 20.508 44.515 44.515 0 0 1 -13.187-35.558zm253.664 153.682h-36.54a62.533 62.533 0 0 0 -2.248-43.384 6 6 0 0 0 -11.013 4.763 50.457 50.457 0 0 1 .518 38.621h-139.434a50.453 50.453 0 0 1 .518-38.621 6 6 0 1 0 -11.013-4.763 62.533 62.533 0 0 0 -2.248 43.384h-36.54v-88.932a37.746 37.746 0 0 1 37.7-37.7h24.034c4.682 5.7 17.835 20.014 41.344 33.257 19.422 10.941 48.947 22.621 89.38 25.688l1.534.116c6.136.429 12.515.664 19.15.664q11.88 0 24.854-1.048zm0-80a281.36 281.36 0 0 1 -38.293.746v-47.381h.59a37.745 37.745 0 0 1 37.7 37.7z" fill="url(#linear-gradient)"/><path d="m284.944 178.644a6 6 0 0 0 12 0 6.9 6.9 0 0 1 13.805 0 6 6 0 0 0 12 0 18.9 18.9 0 0 0 -37.805 0z" fill="url(#linear-gradient-2)"/><path d="m286.708 222.735a24.416 24.416 0 0 1 -34.533 0 6 6 0 0 0 -8.486 8.486 36.417 36.417 0 0 0 51.5 0 6 6 0 1 0 -8.484-8.486z" fill="url(#linear-gradient-3)"/></svg>