<svg id="Layer_1" height="512" viewBox="0 0 512 512" width="512" xmlns="http://www.w3.org/2000/svg" xmlns:xlink="http://www.w3.org/1999/xlink" data-name="Layer 1"><linearGradient id="linear-gradient" gradientUnits="userSpaceOnUse" x1="256" x2="256" y1="455" y2="100.638"><stop offset=".322" stop-color="#a163f5"/><stop offset=".466" stop-color="#b074ee"/><stop offset=".752" stop-color="#d8a1dd"/><stop offset=".898" stop-color="#efbad3"/></linearGradient><linearGradient id="linear-gradient-2" x1="237" x2="237" xlink:href="#linear-gradient" y1="455" y2="100.638"/><linearGradient id="linear-gradient-4" x1="275" x2="275" xlink:href="#linear-gradient" y1="455" y2="100.638"/><linearGradient id="linear-gradient-6" xlink:href="#linear-gradient" y1="455" y2="100.638"/><linearGradient id="linear-gradient-7" x1="290.406" x2="290.406" xlink:href="#linear-gradient" y1="455.001" y2="100.639"/><linearGradient id="linear-gradient-8" x1="221.594" x2="221.594" xlink:href="#linear-gradient" y1="455.001" y2="100.639"/><path d="m337.3 326.111h-27.78a52.841 52.841 0 0 0 -9.029-20.208l-3.351-4.6v-18.858a80.82 80.82 0 0 0 39.652-69.495v-.023c.522.04 1.044.066 1.567.066a20.714 20.714 0 0 0 20.523-23.624 20.532 20.532 0 0 0 -7.465-13.142v-67.973a53.134 53.134 0 0 0 -34.163-49.566 27.793 27.793 0 0 0 8.77-5.916 6 6 0 1 0 -8.484-8.485 16.018 16.018 0 0 1 -17.974 3.206l-8.144-3.76a92.2 92.2 0 0 0 -130.839 83.715v48.659a20.52 20.52 0 0 0 -7.622 13.262 20.714 20.714 0 0 0 20.523 23.624c.576 0 1.151-.033 1.724-.081v.038a80.82 80.82 0 0 0 39.652 69.5v18.864l-3.35 4.594a52.828 52.828 0 0 0 -9.03 20.208h-27.78a49.76 49.76 0 0 0 -49.7 49.7v94.932a6 6 0 0 0 6 6h250a6 6 0 0 0 6-6v-94.933a49.76 49.76 0 0 0 -49.7-49.704zm-40.21 22.136a40.6 40.6 0 0 1 -7.98 15.063l-7.457 8.9a.369.369 0 0 1 -.32.139.352.352 0 0 1 -.3-.176l-16.381-25.283 10.13-5.627a43.485 43.485 0 0 0 19.518-22.563 40.578 40.578 0 0 1 2.79 29.547zm46.25-163.113a8.7 8.7 0 0 1 -1.649 15.2 8.818 8.818 0 0 1 -4.9.5v-15.951a6.359 6.359 0 0 1 6.549.251zm-168.132 15.666a8.813 8.813 0 0 1 -5.056-.464 8.7 8.7 0 0 1 -1.648-15.2 6.371 6.371 0 0 1 6.7-.161zm0-32.21v3.767a18.378 18.378 0 0 0 -2.625-.27v-44.639a80.2 80.2 0 0 1 113.81-72.819l6.987 3.225a6 6 0 0 0 4.981 9.345 41.1 41.1 0 0 1 41.056 41.055v63.827a18.372 18.372 0 0 0 -2.625.256v-4.325a12.442 12.442 0 0 0 -12.428-12.428.428.428 0 0 1 -.428-.428v-26.746a23.038 23.038 0 0 0 -27.565-22.6 44.908 44.908 0 0 0 -16.449-33.959l-23.653-21.751a6 6 0 0 0 -8.123 8.833l23.789 21.877c.095.087.192.171.292.252a32.873 32.873 0 0 1 12.03 28.542 102.822 102.822 0 0 1 -12.257 2.654 34.877 34.877 0 0 0 -12.723-28.258l-16.994-15.587a6 6 0 1 0 -8.111 8.843l17.128 15.707c.093.085.187.166.285.245a22.833 22.833 0 0 1 8.313 20.2 103.089 103.089 0 0 1 -12.5-.326 26.906 26.906 0 0 0 -9.93-19.649l-5.342-4.315a6 6 0 1 0 -7.541 9.335l5.342 4.315a14.842 14.842 0 0 1 5.173 8.472 102.738 102.738 0 0 1 -14.755-4.261 23.053 23.053 0 0 0 -31.119 21.6v26.007a1.008 1.008 0 0 1 -1.008 1.007 13.022 13.022 0 0 0 -13.01 12.999zm12 44.358v-44.356a1.008 1.008 0 0 1 1.007-1.008 13.022 13.022 0 0 0 13.008-13.007v-26.007a11.086 11.086 0 0 1 11.016-11.07 11.133 11.133 0 0 1 3.9.714 115 115 0 0 0 79.766.245l1.17-.429a11.053 11.053 0 0 1 14.857 10.378v26.746a12.442 12.442 0 0 0 12.428 12.428.428.428 0 0 1 .428.428v44.94a68.792 68.792 0 1 1 -137.584 0zm30.492 105.752a43.485 43.485 0 0 0 19.522 22.562l10.13 5.627-16.382 25.286a.35.35 0 0 1 -.3.175.366.366 0 0 1 -.32-.139l-7.457-8.9a40.9 40.9 0 0 1 -5.193-44.611zm-80.7 146.047v-88.932a37.745 37.745 0 0 1 37.7-37.7h5.129l-23.147 41a6 6 0 0 0 .854 7.061l11.907 12.664-17.7 1.762a6 6 0 0 0 -4.575 9.015l32.476 55.137zm56.577 0-31.3-53.141 20.481-2.039a6 6 0 0 0 3.776-10.081l-17.226-18.321 20.23-35.832a200.167 200.167 0 0 0 29.92 119.414zm56.548 0h-16.353a188.276 188.276 0 0 1 -32.052-121.463 53.613 53.613 0 0 0 1.647 8.246 52.58 52.58 0 0 0 10.323 19.488l7.458 8.9a12.256 12.256 0 0 0 9.469 4.433q.391 0 .785-.024a12.27 12.27 0 0 0 9.635-5.628l9.088-14.027zm-7.079-133.975a31.484 31.484 0 0 1 -16.186-27.507v-14.982a80.5 80.5 0 0 0 58.28 0v14.982a31.484 31.484 0 0 1 -16.186 27.507l-12.954 7.196zm19.079 133.975v-99.688l8.837 13.64a12.271 12.271 0 0 0 9.636 5.629q.393.024.785.024a12.261 12.261 0 0 0 9.47-4.433l7.457-8.9a52.568 52.568 0 0 0 10.323-19.487 54.036 54.036 0 0 0 1.32-5.873 188.28 188.28 0 0 1 -32.227 119.09zm29.916 0a200.171 200.171 0 0 0 29.793-121.137l21.2 37.554-17.224 18.322a6 6 0 0 0 3.777 10.081l20.48 2.039-31.3 53.141zm82.959 0h-42.307l32.477-55.137a6 6 0 0 0 -4.57-9.01l-17.7-1.762 11.908-12.664a6 6 0 0 0 .853-7.061l-23.147-41h4.786a37.745 37.745 0 0 1 37.7 37.7z" fill="url(#linear-gradient)"/><circle cx="237" cy="401.43" fill="url(#linear-gradient-2)" r="6.5"/><circle cx="237" cy="434.43" fill="url(#linear-gradient-2)" r="6.5"/><circle cx="275" cy="401.43" fill="url(#linear-gradient-4)" r="6.5"/><circle cx="275" cy="434.43" fill="url(#linear-gradient-4)" r="6.5"/><path d="m281.752 233.988a6 6 0 1 0 -8.484-8.485 24.451 24.451 0 0 1 -34.536 0 6 6 0 1 0 -8.484 8.485 36.46 36.46 0 0 0 51.5 0z" fill="url(#linear-gradient-6)"/><path d="m277.5 197.412a6 6 0 0 0 6-6 6.9 6.9 0 1 1 13.805 0 6 6 0 0 0 12 0 18.9 18.9 0 1 0 -37.805 0 6 6 0 0 0 6 6z" fill="url(#linear-gradient-7)"/><path d="m234.5 197.412a6 6 0 0 0 6-6 18.9 18.9 0 1 0 -37.805 0 6 6 0 0 0 12 0 6.9 6.9 0 1 1 13.805 0 6 6 0 0 0 6 6z" fill="url(#linear-gradient-8)"/></svg>