<svg id="Layer_1" height="512" viewBox="0 0 512 512" width="512" xmlns="http://www.w3.org/2000/svg" xmlns:xlink="http://www.w3.org/1999/xlink" data-name="Layer 1"><linearGradient id="linear-gradient" gradientUnits="userSpaceOnUse" x1="256" x2="256" y1="457" y2="105.95"><stop offset=".322" stop-color="#a163f5"/><stop offset=".466" stop-color="#b074ee"/><stop offset=".752" stop-color="#d8a1dd"/><stop offset=".898" stop-color="#efbad3"/></linearGradient><linearGradient id="linear-gradient-2" x1="277.504" x2="277.504" xlink:href="#linear-gradient" y1="457" y2="105.95"/><linearGradient id="linear-gradient-5" x1="233.504" x2="233.504" xlink:href="#linear-gradient" y1="457" y2="105.95"/><linearGradient id="linear-gradient-8" x1="290.406" x2="290.406" xlink:href="#linear-gradient" y1="456.999" y2="105.949"/><linearGradient id="linear-gradient-9" x1="221.594" x2="221.594" xlink:href="#linear-gradient" y1="456.999" y2="105.949"/><linearGradient id="linear-gradient-10" xlink:href="#linear-gradient" y1="457.001" y2="105.95"/><path d="m337.3 310.651h-26.964a14.016 14.016 0 0 1 -14-14v-28.413a83.23 83.23 0 0 0 41.164-55.921 79.35 79.35 0 0 0 1.54-14.827 20.633 20.633 0 0 0 19.84-23.587 20.55 20.55 0 0 0 -8.718-14.106 18.094 18.094 0 0 0 -13.372-2.926v-25.366a80.792 80.792 0 1 0 -161.584 0v25.387a18.11 18.11 0 0 0 -13.529 2.906 20.55 20.55 0 0 0 -8.718 14.1 20.649 20.649 0 0 0 20 23.6 79.422 79.422 0 0 0 1.54 14.818 83.23 83.23 0 0 0 41.166 55.921v28.413a14.016 14.016 0 0 1 -14 14h-26.965a49.76 49.76 0 0 0 -49.7 49.7v94.933a6 6 0 0 0 6 6h250a6 6 0 0 0 6-6v-94.929a49.76 49.76 0 0 0 -49.7-49.703zm6.042-140.984a8.7 8.7 0 0 1 -1.649 15.205 8.952 8.952 0 0 1 -3.136.639l-1.065-16.411a6.293 6.293 0 0 1 5.847.567zm-169.896 15.852a8.924 8.924 0 0 1 -3.294-.648 8.7 8.7 0 0 1 -1.649-15.2 6.308 6.308 0 0 1 6-.509zm13.762-54.014a68.792 68.792 0 1 1 137.584 0v18.139a35.986 35.986 0 0 0 -67.6 10.485 36 36 0 0 0 -69.979-4.607zm129.5 34.44a24 24 0 1 1 -24-24 24.027 24.027 0 0 1 24.002 24zm-71.046 0a24 24 0 1 1 -24-24 24.027 24.027 0 0 1 24.002 24zm-59.409 43.966a71.2 71.2 0 0 1 -1.146-18.808l1.193-18.435a35.995 35.995 0 0 0 70.885-.907 35.991 35.991 0 0 0 68.94 7.549l.764 11.793a71.114 71.114 0 0 1 -140.636 18.808zm63.747 239.376h-63v-54a6 6 0 0 0 -12 0v54h-38v-88.933a37.746 37.746 0 0 1 37.7-37.7h26.961a25.873 25.873 0 0 0 16.41-5.851 35.413 35.413 0 0 0 27.683 22.3c1.411.206 2.826.359 4.243.48zm-2.5-122.059a23.5 23.5 0 0 1 -19.831-23.251v-30.238a82.653 82.653 0 0 0 56.672 0v30.241a23.5 23.5 0 0 1 -19.841 23.248 58.748 58.748 0 0 1 -17 0zm127.5 122.059h-38v-54a6 6 0 0 0 -12 0v54h-63v-109.7c1.417-.121 2.831-.274 4.241-.48a35.412 35.412 0 0 0 27.684-22.3 25.877 25.877 0 0 0 16.411 5.852h26.964a37.746 37.746 0 0 1 37.7 37.7z" fill="url(#linear-gradient)"/><g fill="url(#linear-gradient-2)"><circle cx="277.504" cy="377.381" r="7"/><circle cx="277.504" cy="404.924" r="7"/><circle cx="277.504" cy="432.467" r="7"/></g><circle cx="233.504" cy="377.381" fill="url(#linear-gradient-5)" r="7"/><circle cx="233.504" cy="404.924" fill="url(#linear-gradient-5)" r="7"/><circle cx="233.504" cy="432.467" fill="url(#linear-gradient-5)" r="7"/><path d="m271.5 165.945a6 6 0 0 0 12 0 6.9 6.9 0 0 1 13.8 0 6 6 0 0 0 12 0 18.9 18.9 0 0 0 -37.8 0z" fill="url(#linear-gradient-8)"/><path d="m202.692 165.945a6 6 0 0 0 12 0 6.9 6.9 0 0 1 13.8 0 6 6 0 0 0 12 0 18.9 18.9 0 0 0 -37.8 0z" fill="url(#linear-gradient-9)"/><path d="m281.752 218.522a6 6 0 1 0 -8.485-8.485 24.417 24.417 0 0 1 -34.534 0 6 6 0 1 0 -8.485 8.485 36.416 36.416 0 0 0 51.5 0z" fill="url(#linear-gradient-10)"/></svg>