<svg id="Layer_1" height="512" viewBox="0 0 512 512" width="512" xmlns="http://www.w3.org/2000/svg" xmlns:xlink="http://www.w3.org/1999/xlink" data-name="Layer 1"><linearGradient id="linear-gradient" gradientUnits="userSpaceOnUse" x1="256" x2="256" y1="457" y2="105.95"><stop offset=".322" stop-color="#a163f5"/><stop offset=".466" stop-color="#b074ee"/><stop offset=".752" stop-color="#d8a1dd"/><stop offset=".898" stop-color="#efbad3"/></linearGradient><linearGradient id="linear-gradient-2" x1="306.557" x2="306.557" xlink:href="#linear-gradient" y1="457" y2="105.95"/><linearGradient id="linear-gradient-3" x1="290.406" x2="290.406" xlink:href="#linear-gradient" y1="456.999" y2="105.95"/><linearGradient id="linear-gradient-4" x1="221.594" x2="221.594" xlink:href="#linear-gradient" y1="456.999" y2="105.95"/><linearGradient id="linear-gradient-5" x1="260.469" x2="260.469" xlink:href="#linear-gradient" y1="457" y2="105.95"/><path d="m337.3 315.685h-24.626c2.1-1.811 3.673-3.184 4.186-3.683a115.754 115.754 0 0 0 8.875-9.628c.029-.033.057-.068.084-.1a112.173 112.173 0 0 0 25.711-70.8v-13.547a22.863 22.863 0 0 0 22.048-26.117 22.755 22.755 0 0 0 -9.651-15.618 19.85 19.85 0 0 0 -12.4-3.47v-9.785a6.123 6.123 0 0 0 0-.742v-6.45a5.984 5.984 0 0 0 .241-1.671v-37.5a34.872 34.872 0 0 0 -29.884-34.393c-.43-.06-1.5-.209-18.961-.1.189-5.954.008-9.885-.545-11.723a34.962 34.962 0 0 0 -33.244-24.678h-118.916a6 6 0 0 0 -6 6v37.488c0 14.315 8.667 27.469 21.157 32.943v51.482a20 20 0 0 0 -17.3 2.6 22.755 22.755 0 0 0 -9.651 15.617 22.93 22.93 0 0 0 22.719 26.15 22.622 22.622 0 0 0 4.234-.406v14.371a112.172 112.172 0 0 0 25.746 70.821c2.171 2.643 8.618 9.2 12.383 12.809a14.37 14.37 0 0 1 -1.84.131h-26.966a49.759 49.759 0 0 0 -49.7 49.7v94.934a6 6 0 0 0 6 6h250a6 6 0 0 0 6-6v-94.932a49.759 49.759 0 0 0 -49.7-49.703zm14.23-130.934a7.923 7.923 0 0 1 5.573 1.313 10.914 10.914 0 0 1 -2.077 19.077 11.215 11.215 0 0 1 -3.5.779zm-186.155 20.325a10.91 10.91 0 0 1 -10.475-19.012 8.275 8.275 0 0 1 10.477 1.094zm174.155-43.566-21.868 57.023a18.326 18.326 0 0 1 -27.717 8.383l-.369-.262a54.028 54.028 0 0 0 -62.237-.125 18.326 18.326 0 0 1 -27.6-8.292l-21.5-54.769a57.828 57.828 0 0 0 33.619-39.351c9.834-.028 22.009-.081 37.123-.164h.067a12.009 12.009 0 0 1 9.842 5.158 72.313 72.313 0 0 0 59.275 30.963h21.365zm-162.155-10.9v-26.552c4.249.059 11.04.092 22.011.083a45.851 45.851 0 0 1 -22.011 26.468zm-21.157-61.442v-31.488h112.916a22.882 22.882 0 0 1 21.714 16c.276 1.73.123 8.618-.2 14.093a6 6 0 0 0 1.64 4.487 6.069 6.069 0 0 0 4.4 1.867c10.234-.079 21.855-.117 23.73-.032a22.816 22.816 0 0 1 19.356 22.481v31.5h-21.61a60.3 60.3 0 0 1 -49.431-25.826 24.007 24.007 0 0 0 -19.686-10.3h-.134c-43.167.238-72.121.245-76.415.022-9.314-2.79-16.28-12.502-16.28-22.804zm45.547 207.513v-34.321a6 6 0 0 0 -12 0v17.027a98.755 98.755 0 0 1 -12.39-47.463v-37.814l11.192 28.512a30.326 30.326 0 0 0 45.677 13.722 42 42 0 0 1 48.391.1l.369.262a30.144 30.144 0 0 0 17.486 5.61 30.493 30.493 0 0 0 8.843-1.316 30.123 30.123 0 0 0 19.533-18.167l10.664-27.808v19.351l-.247.421c.081.048.165.088.247.134v16.54a98.813 98.813 0 0 1 -12.382 47.477v-18.325a6 6 0 1 0 -12 0v35.689c-2.092 2.446-4.315 4.821-6.646 7.08-.8.775-6.2 5.394-12.7 10.91v-34.527a6 6 0 0 0 -12 0v44.653l-19.339 16.18v-46.9a6 6 0 0 0 -12 0v46.492l-19.348-15.222v-45.2a6 6 0 0 0 -12 0v35.158l-7.558-6.414c-1.604-1.362-8.448-8.195-11.792-11.841zm85.758 40.279a26.262 26.262 0 0 1 -22.134 24.746 64.866 64.866 0 0 1 -18.78 0 26.29 26.29 0 0 1 -22.19-26.01v-2.287l30.883 24.3a6 6 0 0 0 7.56-.114zm-112.523 117.36h-38v-51.136a67.368 67.368 0 0 0 38 20.485zm200 0h-38v-30.529a67.981 67.981 0 0 0 38-20.713zm0-71.533a57.537 57.537 0 0 1 -38 28.753v-3.22a6 6 0 1 0 -12 0v46h-138v-46a6 6 0 1 0 -12 0v3.136c-21.394-4.494-32.721-18.891-38-28.351v-17.717a37.746 37.746 0 0 1 37.7-37.7h26.961a26.037 26.037 0 0 0 10.755-2.337v10.349a38.356 38.356 0 0 0 32.452 37.883 76.7 76.7 0 0 0 22.256 0 38.359 38.359 0 0 0 32.456-37.883v-8.868l1.164-.985a25.963 25.963 0 0 0 9.592 1.843h26.964a37.746 37.746 0 0 1 37.7 37.7z" fill="url(#linear-gradient)"/><path d="m325.436 380.856h-37.758a6 6 0 0 0 0 12h37.758a6 6 0 0 0 0-12z" fill="url(#linear-gradient-2)"/><path d="m290.406 166.1a18.924 18.924 0 0 0 -18.906 18.9 6 6 0 0 0 12 0 6.9 6.9 0 0 1 13.805 0 6 6 0 0 0 12 0 18.923 18.923 0 0 0 -18.899-18.9z" fill="url(#linear-gradient-3)"/><path d="m221.594 166.1a18.924 18.924 0 0 0 -18.9 18.9 6 6 0 0 0 12 0 6.9 6.9 0 0 1 13.805 0 6 6 0 0 0 12 0 18.923 18.923 0 0 0 -18.905-18.9z" fill="url(#linear-gradient-4)"/><path d="m245.252 269.317q1.51.124 3 .123a36.359 36.359 0 0 0 32.254-19.549 6 6 0 0 0 -10.634-5.561 24.411 24.411 0 0 1 -23.645 13.028 6 6 0 1 0 -.98 11.959z" fill="url(#linear-gradient-5)"/></svg>