<svg id="Layer_1" height="512" viewBox="0 0 512 512" width="512" xmlns="http://www.w3.org/2000/svg" xmlns:xlink="http://www.w3.org/1999/xlink" data-name="Layer 1"><linearGradient id="linear-gradient" gradientUnits="userSpaceOnUse" x1="256" x2="256" y1="457" y2="105.95"><stop offset=".322" stop-color="#a163f5"/><stop offset=".466" stop-color="#b074ee"/><stop offset=".752" stop-color="#d8a1dd"/><stop offset=".898" stop-color="#efbad3"/></linearGradient><linearGradient id="linear-gradient-2" x1="290.406" x2="290.406" xlink:href="#linear-gradient" y1="456.999" y2="105.949"/><linearGradient id="linear-gradient-3" x1="221.594" x2="221.594" xlink:href="#linear-gradient" y1="456.999" y2="105.949"/><linearGradient id="linear-gradient-4" xlink:href="#linear-gradient" y1="457" y2="105.951"/><path d="m337.3 319.25h-27.78a52.817 52.817 0 0 0 -9.029-20.209l-3.351-4.594v-18.869a80.805 80.805 0 0 0 39.652-69.478v-.038c.522.04 1.044.066 1.567.066a20.711 20.711 0 0 0 20.523-23.628 20.565 20.565 0 0 0 -5.761-11.609v-52.52a32.386 32.386 0 0 0 -32.349-32.349 15.975 15.975 0 0 1 -15.957-15.956 27.988 27.988 0 0 0 -27.956-27.957h-36.383a81.69 81.69 0 0 0 -81.6 81.6v47.038a20.558 20.558 0 0 0 -5.918 11.757 20.711 20.711 0 0 0 20.522 23.624c.577 0 1.152-.033 1.725-.082v.04a80.82 80.82 0 0 0 39.652 69.495v18.869l-3.35 4.594a52.819 52.819 0 0 0 -9.03 20.209h-27.777a49.76 49.76 0 0 0 -49.7 49.7v94.932a6 6 0 0 0 6 6h250a6 6 0 0 0 6-6v-94.932a49.76 49.76 0 0 0 -49.7-49.703zm-40.21 22.136a40.608 40.608 0 0 1 -7.98 15.063l-7.457 8.9a.336.336 0 0 1 -.319.137.349.349 0 0 1 -.3-.176l-16.381-25.284 10.13-5.628a43.483 43.483 0 0 0 19.517-22.559 40.59 40.59 0 0 1 2.79 29.547zm-51.432 26.122-1.167-1 11.509-17.765 11.364 17.541-1.364 1.122a21.144 21.144 0 0 0 -20.342.102zm18.493 35.066-17.892 9.861 4.623-34.059a8.984 8.984 0 0 1 9.976-.065zm-21.105-78.664a31.485 31.485 0 0 1 -16.186-27.51v-14.984a80.5 80.5 0 0 0 58.28 0v14.984a31.485 31.485 0 0 1 -16.186 27.507l-12.954 7.2zm103.961-139.683a8.7 8.7 0 0 1 -5.316 9.243 8.815 8.815 0 0 1 -4.872.5l.037-16a6.356 6.356 0 0 1 6.483.288 8.676 8.676 0 0 1 3.668 5.969zm-26.235-86.2a20.371 20.371 0 0 1 20.349 20.349v46.873a18.461 18.461 0 0 0 -4.238.212l.058-25.72v-.013a50.405 50.405 0 0 0 -23.751-42.759 27.868 27.868 0 0 0 7.582 1.053zm-145.564 95.906a8.8 8.8 0 0 1 -5.056-.463 8.7 8.7 0 0 1 -1.648-15.2 6.373 6.373 0 0 1 6.7-.162zm0-39.628v11.187a18.426 18.426 0 0 0 -4.329-.252v-41.534a69.676 69.676 0 0 1 69.6-69.6h36.383a15.975 15.975 0 0 1 15.956 15.957 27.933 27.933 0 0 0 11.244 22.4 50.137 50.137 0 0 0 -17.523-3.147h-30.471a20.314 20.314 0 0 0 -20.29 20.29 8.3 8.3 0 0 1 -8.29 8.29h-15.873a36.448 36.448 0 0 0 -36.407 36.409zm12 51.778v-51.778a24.436 24.436 0 0 1 24.407-24.405h15.873a20.313 20.313 0 0 0 20.29-20.29 8.3 8.3 0 0 1 8.29-8.29h30.468a38.449 38.449 0 0 1 38.4 38.394l-.149 66.372a68.792 68.792 0 1 1 -137.584 0zm30.492 105.756a43.483 43.483 0 0 0 19.518 22.561l10.13 5.628-16.382 25.286a.348.348 0 0 1 -.3.174.34.34 0 0 1 -.319-.136l-7.457-8.9a40.9 40.9 0 0 1 -5.194-44.61zm-80.7 146.046v-88.932a37.745 37.745 0 0 1 37.7-37.7h5.13l-23.148 41a6 6 0 0 0 .854 7.061l11.907 12.664-17.7 1.761a6 6 0 0 0 -4.575 9.016l32.477 55.137zm56.577 0-31.3-53.141 20.481-2.039a6 6 0 0 0 3.776-10.081l-17.228-18.324 20.23-35.832a200.174 200.174 0 0 0 29.92 119.414zm35.408-7.4a188.217 188.217 0 0 1 -27.266-114.06 53.748 53.748 0 0 0 1.648 8.247 52.565 52.565 0 0 0 10.323 19.485l7.457 8.9a12.264 12.264 0 0 0 9.469 4.432q.391 0 .785-.024a12.363 12.363 0 0 0 5.5-1.659l1.988 1.7zm15.264-23.236 21.633-11.924 2.57 18.933-27.132 14.565zm5.56 30.639 20.366-10.935 1.484 10.935zm23.025-80.56 2.032-1.672a12.34 12.34 0 0 0 5.733 1.813q.393.024.785.024a12.262 12.262 0 0 0 9.469-4.433l7.457-8.9a52.565 52.565 0 0 0 10.323-19.485 54.089 54.089 0 0 0 1.32-5.873 188.2 188.2 0 0 1 -27.234 111.353zm19.207 80.56a200.185 200.185 0 0 0 29.794-121.137l21.2 37.554-17.225 18.319a6 6 0 0 0 3.777 10.081l20.48 2.039-31.3 53.141zm82.959 0h-42.307l32.477-55.137a6 6 0 0 0 -4.575-9.016l-17.7-1.761 11.908-12.664a6 6 0 0 0 .853-7.061l-23.147-41h4.791a37.745 37.745 0 0 1 37.7 37.7z" fill="url(#linear-gradient)"/><path d="m277.5 180.544a6 6 0 0 0 6-6 6.9 6.9 0 0 1 13.805 0 6 6 0 1 0 12 0 18.9 18.9 0 0 0 -37.805 0 6 6 0 0 0 6 6z" fill="url(#linear-gradient-2)"/><path d="m234.5 180.544a6 6 0 0 0 6-6 18.9 18.9 0 0 0 -37.805 0 6 6 0 0 0 12 0 6.9 6.9 0 0 1 13.805 0 6 6 0 0 0 6 6z" fill="url(#linear-gradient-3)"/><path d="m281.752 227.12a6 6 0 1 0 -8.484-8.484 24.453 24.453 0 0 1 -34.536 0 6 6 0 0 0 -8.484 8.484 36.457 36.457 0 0 0 51.5 0z" fill="url(#linear-gradient-4)"/></svg>