<svg id="Layer_1" height="512" viewBox="0 0 512 512" width="512" xmlns="http://www.w3.org/2000/svg" xmlns:xlink="http://www.w3.org/1999/xlink" data-name="Layer 1"><linearGradient id="linear-gradient" gradientUnits="userSpaceOnUse" x1="256" x2="256" y1="457" y2="105.951"><stop offset=".322" stop-color="#a163f5"/><stop offset=".466" stop-color="#b074ee"/><stop offset=".752" stop-color="#d8a1dd"/><stop offset=".898" stop-color="#efbad3"/></linearGradient><linearGradient id="linear-gradient-2" xlink:href="#linear-gradient" y1="457" y2="105.95"/><linearGradient id="linear-gradient-4" x1="290.406" x2="290.406" xlink:href="#linear-gradient" y1="456.999" y2="105.949"/><linearGradient id="linear-gradient-5" x1="221.594" x2="221.594" xlink:href="#linear-gradient" y1="456.999" y2="105.949"/><path d="m256 394.1a7.279 7.279 0 1 0 7.279 7.279 7.287 7.287 0 0 0 -7.279-7.279z" fill="url(#linear-gradient)"/><circle cx="256" cy="459.199" fill="url(#linear-gradient-2)" r="7.279"/><path d="m336.792 225.312v-.023c.522.04 1.044.065 1.567.065a20.686 20.686 0 0 0 20.677-19.511c.112-.058.228-.106.338-.173 21-12.695 32.569-29.162 32.569-46.368 0-19.708-14.7-37.894-41.381-51.2a154.014 154.014 0 0 0 -16.1-6.863v-.639c0-1.178-.036-2.35-.089-3.519a6 6 0 0 0 -.174-2.773 76.9 76.9 0 0 0 -34.846-58.428l-.785-.511a77.205 77.205 0 0 0 -119.006 57.978 6.106 6.106 0 0 0 -.1 1.259c-.128 1.817-.2 3.644-.2 5.482v.536a156.092 156.092 0 0 0 -17.827 7.473c-26.685 13.311-41.381 31.5-41.381 51.205 0 17.206 11.566 33.673 32.569 46.368.058.035.117.062.176.094a20.686 20.686 0 0 0 20.681 19.59c.577 0 1.152-.033 1.725-.081v.039a80.819 80.819 0 0 0 39.652 69.494v18.87l-3.35 4.6a52.817 52.817 0 0 0 -9.03 20.207h-27.777a49.76 49.76 0 0 0 -49.7 49.7v94.931a6 6 0 0 0 6 6h250a6 6 0 0 0 6-6v-94.931a49.76 49.76 0 0 0 -49.7-49.7h-27.78a52.83 52.83 0 0 0 -9.029-20.207l-3.351-4.6v-18.87a80.819 80.819 0 0 0 39.652-69.494zm4.9-12.613a8.818 8.818 0 0 1 -4.9.5v-15.955a6.359 6.359 0 0 1 6.548.252 8.7 8.7 0 0 1 -1.649 15.2zm-4.9-28v-41.221q3.709 1.668 7.077 3.464v37.94a18.29 18.29 0 0 0 -7.077-.182zm19.144 8.954c-.021-.034-.047-.066-.07-.1 0-.017 0-.033 0-.05v-38.965c8.217 6.245 13.7 13.168 15.934 20.358a5.961 5.961 0 0 0 1.707 2.665c-4.054 5.692-9.962 11.139-17.571 16.092zm-135.621-147.83a65.153 65.153 0 0 1 71.71-.4l.785.511a64.968 64.968 0 0 1 27.327 37.35c-16.157-8.417-39.29-13.377-64.137-13.377-24.036 0-46.225 4.516-62.275 12.4a65.065 65.065 0 0 1 26.59-36.484zm35.685 36.084c25.106 0 48.685 5.523 62.771 14.393a245.492 245.492 0 0 0 -62.771-7.821 245.453 245.453 0 0 0 -62.784 7.821c14.173-8.952 37.589-14.393 62.784-14.393zm-99.666 111.129c-.125.184-.261.36-.38.549-7.56-4.942-13.431-10.363-17.469-16.031a5.937 5.937 0 0 0 1.715-2.654c2.247-7.249 7.808-14.226 16.138-20.511zm-23.975-29.936a26.482 26.482 0 0 1 -.3-3.8c0-31.885 56.758-58.823 123.943-58.823s123.941 26.94 123.941 58.823a26.508 26.508 0 0 1 -.3 3.8c-15.821-27.67-65.443-46.985-123.643-46.985s-107.821 19.314-123.641 46.985zm42.849 50.066a8.793 8.793 0 0 1 -5.056-.464 8.7 8.7 0 0 1 -1.647-15.2 6.365 6.365 0 0 1 6.7-.16zm0-28.443a18.312 18.312 0 0 0 -6.874.088v-37.976q3.276-1.737 6.874-3.358zm42.492 146.345a43.485 43.485 0 0 0 19.522 22.562l10.13 5.628-16.382 25.285a.386.386 0 0 1 -.619.038l-7.457-8.9a40.9 40.9 0 0 1 -5.194-44.611zm9.164-15.435v-14.989a80.5 80.5 0 0 0 58.28 0v14.989a31.485 31.485 0 0 1 -16.186 27.507l-12.958 7.196-12.954-7.2a31.485 31.485 0 0 1 -16.186-27.503zm-66.724 161.481h-23.14v-88.931a37.718 37.718 0 0 1 18.917-32.67 189.252 189.252 0 0 1 4.223 121.601zm12.505 0a201.308 201.308 0 0 0 -5.513-125.871 37.7 37.7 0 0 1 7.571-.765h15.446a200.225 200.225 0 0 0 29.307 126.636zm202.355-88.931v88.931h-23.643a189.277 189.277 0 0 1 4.313-121.839 37.727 37.727 0 0 1 19.33 32.908zm-37.7-37.7a37.767 37.767 0 0 1 7.1.68 201.306 201.306 0 0 0 -5.545 125.956h-46.814a200.225 200.225 0 0 0 29.307-126.636zm-28.667 13.417a54.036 54.036 0 0 0 1.32-5.873 188.275 188.275 0 0 1 -32.227 119.089h-43.954a188.28 188.28 0 0 1 -32.053-121.462 53.735 53.735 0 0 0 1.648 8.246 52.57 52.57 0 0 0 10.323 19.486l7.458 8.9a12.258 12.258 0 0 0 9.468 4.433q.391 0 .785-.025a12.267 12.267 0 0 0 9.636-5.628l14.963-23.094 14.962 23.094a12.269 12.269 0 0 0 9.638 5.634q.393.026.785.025a12.26 12.26 0 0 0 9.469-4.434l7.457-8.9a52.57 52.57 0 0 0 10.322-19.491zm-11.543-3.283a40.612 40.612 0 0 1 -7.98 15.064l-7.457 8.9a.385.385 0 0 1 -.62-.038l-16.381-25.284 10.13-5.628a43.485 43.485 0 0 0 19.518-22.563 40.59 40.59 0 0 1 2.79 29.547zm-41.09-66.517a68.869 68.869 0 0 1 -68.792-68.791v-86.566c19.985-6.882 44-10.628 68.792-10.628s48.807 3.746 68.792 10.628v86.569a68.869 68.869 0 0 1 -68.792 68.788z" fill="url(#linear-gradient-2)"/><path d="m309.309 193.773a18.9 18.9 0 0 0 -37.805 0 6 6 0 1 0 12 0 6.9 6.9 0 0 1 13.805 0 6 6 0 0 0 12 0z" fill="url(#linear-gradient-4)"/><path d="m234.5 199.773a6 6 0 0 0 6-6 18.9 18.9 0 0 0 -37.805 0 6 6 0 0 0 12 0 6.9 6.9 0 0 1 13.805 0 6 6 0 0 0 6 6z" fill="url(#linear-gradient-5)"/><path d="m273.268 237.865a24.451 24.451 0 0 1 -34.536 0 6 6 0 0 0 -8.484 8.485 36.46 36.46 0 0 0 51.5 0 6 6 0 0 0 -8.484-8.485z" fill="url(#linear-gradient-2)"/></svg>