<svg id="Layer_1" height="512" viewBox="0 0 512 512" width="512" xmlns="http://www.w3.org/2000/svg" xmlns:xlink="http://www.w3.org/1999/xlink" data-name="Layer 1"><linearGradient id="linear-gradient" gradientUnits="userSpaceOnUse" x1="256" x2="256" y1="465" y2="86.979"><stop offset=".322" stop-color="#a163f5"/><stop offset=".466" stop-color="#b074ee"/><stop offset=".752" stop-color="#d8a1dd"/><stop offset=".898" stop-color="#efbad3"/></linearGradient><linearGradient id="linear-gradient-2" x1="290.406" x2="290.406" xlink:href="#linear-gradient" y1="465.001" y2="86.981"/><linearGradient id="linear-gradient-3" x1="221.594" x2="221.594" xlink:href="#linear-gradient" y1="465.001" y2="86.981"/><linearGradient id="linear-gradient-4" x1="258.846" x2="258.846" xlink:href="#linear-gradient" y1="465" y2="86.979"/><linearGradient id="linear-gradient-5" xlink:href="#linear-gradient" y1="464.999" y2="86.978"/><linearGradient id="linear-gradient-6" x1="251.594" x2="251.594" xlink:href="#linear-gradient" y1="464.999" y2="86.979"/><path d="m337.3 315.651-30.019-.344a53.235 53.235 0 0 0 -6.787-12.554l-3.352-4.595v-26.089a80.564 80.564 0 0 0 39.653-69.585v-.023c.522.041 1.044.066 1.567.066a20.711 20.711 0 0 0 20.52-23.627 20.53 20.53 0 0 0 -7.571-13.224 48.046 48.046 0 0 0 22.133-40.431v-15.74a6 6 0 0 0 -6-6h-22.173a48.529 48.529 0 0 0 .384-6.049 21.765 21.765 0 0 0 -21.74-21.74h-5.142a80.664 80.664 0 0 0 -125.546 0h-6.552a21.765 21.765 0 0 0 -21.74 21.74 48.351 48.351 0 0 0 .384 6.049h-22.173a6 6 0 0 0 -6 6v15.74a48.064 48.064 0 0 0 22.817 40.871 20.546 20.546 0 0 0 -7 12.783 20.713 20.713 0 0 0 20.523 23.625c.577 0 1.151-.033 1.724-.081v.038a80.614 80.614 0 0 0 39.653 69.578v26.1l-3.352 4.595a53.235 53.235 0 0 0 -6.787 12.554l-30.019.344a49.76 49.76 0 0 0 -49.7 49.7v94.933a6 6 0 0 0 6 6h249.995a6 6 0 0 0 6-6v-94.931a49.76 49.76 0 0 0 -49.7-49.703zm-162.092-125.315a8.811 8.811 0 0 1 -5.056-.465 8.7 8.7 0 0 1 -1.649-15.2 6.373 6.373 0 0 1 6.705-.16zm0-63.831v33.378a36.111 36.111 0 0 1 -26.062-34.635v-9.74h17.064a22.746 22.746 0 0 1 9.5 2.074 81.163 81.163 0 0 0 -.502 8.923zm2.767-20.937-.126-.043a36.215 36.215 0 0 1 -.914-8.066 9.747 9.747 0 0 1 8.132-9.6 80.329 80.329 0 0 0 -7.092 17.709zm-2.975 348.719h-38v-88.933a37.746 37.746 0 0 1 37.7-37.7h.3zm27.256-109.549v109.549h-15.256v-126.636h14.689a52.688 52.688 0 0 0 .631 16.256 6.009 6.009 0 0 0 -.064.831zm139.434-154.866a8.805 8.805 0 0 1 -4.9.5v-15.956a6.362 6.362 0 0 1 6.547.251 8.7 8.7 0 0 1 -1.649 15.205zm2.689-74.364h17.065v9.74a36.11 36.11 0 0 1 -24.652 34.2v-32.943a81.271 81.271 0 0 0 -.576-9.492 22.773 22.773 0 0 1 8.163-1.505zm-10.724-18.049a36.417 36.417 0 0 1 -.406 5.383 80.257 80.257 0 0 0 -6.089-14.555 9.746 9.746 0 0 1 6.495 9.172zm-146.447 29.046a68.746 68.746 0 0 1 97.039-62.7 20.093 20.093 0 0 0 -19.347 20.048 6 6 0 1 0 12 0 8.094 8.094 0 0 1 8.085-8.085h.891a5.991 5.991 0 0 0 5.582-8.189 68.815 68.815 0 0 1 33.335 58.926v39a36 36 0 0 0 -68.792.069 36 36 0 0 0 -68.792-.069zm127.2 49.671a24 24 0 1 1 -24-24 24.027 24.027 0 0 1 23.998 24zm-68.812 0a24 24 0 1 1 -24-24 24.027 24.027 0 0 1 23.998 24zm-58.386 26.308v-15.641a36 36 0 0 0 68.79-.069 36 36 0 0 0 68.792.069v15.641a68.582 68.582 0 0 1 -52.515 66.857 6 6 0 0 0 -3.076 1.852 17.78 17.78 0 0 1 -13.247 5.984h-.046a17.789 17.789 0 0 1 -13.242-5.925l-.135-.15a6 6 0 0 0 -3.028-1.815 68.621 68.621 0 0 1 -52.295-66.803zm97.931 75.373v22.257a31.486 31.486 0 0 1 -16.185 27.508l-12.956 7.196-12.954-7.2a31.486 31.486 0 0 1 -16.185-27.508v-22.255a81.168 81.168 0 0 0 8.035 2.636 29.787 29.787 0 0 0 21.012 8.686h.076a29.789 29.789 0 0 0 20.866-8.616 81.574 81.574 0 0 0 8.289-2.704zm-67.441 37.694a43.489 43.489 0 0 0 19.523 22.561l10.129 5.627-16.381 25.285a.348.348 0 0 1 -.3.175.342.342 0 0 1 -.32-.137l-7.457-8.9a40.895 40.895 0 0 1 -5.194-44.609zm79.612 138.736h-83.056v-85.747l6.892 8.228a12.259 12.259 0 0 0 9.469 4.433q.39 0 .783-.024a12.271 12.271 0 0 0 9.638-5.627l14.962-23.096 14.963 23.1a12.267 12.267 0 0 0 9.637 5.627q.393.024.783.024a12.26 12.26 0 0 0 9.469-4.433l6.456-7.708zm.4-111.694a5.98 5.98 0 0 0 -.372 1.551c-.082.317-.157.636-.247.953a40.611 40.611 0 0 1 -7.981 15.063l-7.457 8.9a.35.35 0 0 1 -.319.137.345.345 0 0 1 -.3-.175l-16.382-25.285 10.13-5.627a43.491 43.491 0 0 0 19.516-22.559 40.514 40.514 0 0 1 3.41 27.042zm27.288 111.694h-15.692v-108.564a52.764 52.764 0 0 0 1-18.072h14.692zm50 0h-38v-126.636h.3a37.746 37.746 0 0 1 37.7 37.7z" fill="url(#linear-gradient)"/><path d="m271.5 178.945a6 6 0 0 0 12 0 6.9 6.9 0 0 1 13.8 0 6 6 0 0 0 12 0 18.9 18.9 0 0 0 -37.8 0z" fill="url(#linear-gradient-2)"/><path d="m202.692 178.945a6 6 0 0 0 12 0 6.9 6.9 0 0 1 13.8 0 6 6 0 0 0 12 0 18.9 18.9 0 0 0 -37.8 0z" fill="url(#linear-gradient-3)"/><path d="m267.627 249.485a15.925 15.925 0 0 1 -17.513-.084 6 6 0 1 0 -6.64 10 27.918 27.918 0 0 0 30.7.148 6 6 0 0 0 -6.544-10.059z" fill="url(#linear-gradient-4)"/><path d="m251.888 239.475a6.944 6.944 0 0 1 10.545-1.019l3.9 3.8a18.972 18.972 0 0 0 18.5 4.606l12.46-3.628a6 6 0 0 0 3.067-9.434l-7.643-9.868a28.487 28.487 0 0 0 -22.375-10.973 6 6 0 0 0 -2.016.349l-.588.21a35.038 35.038 0 0 1 -23.99-.179 6 6 0 0 0 -2.1-.38 28.487 28.487 0 0 0 -22.375 10.973l-7.643 9.868a6 6 0 0 0 3.432 9.528l17.121 3.835a19.109 19.109 0 0 0 4.177.463 18.862 18.862 0 0 0 15.528-8.151zm19.41-14.491a16.423 16.423 0 0 1 11.936 6.292l2.245 2.9-4 1.163a6.953 6.953 0 0 1 -6.781-1.688l-3.9-3.8a19 19 0 0 0 -4.782-3.389 46.607 46.607 0 0 0 5.284-1.478zm-29.268 7.648a6.916 6.916 0 0 1 -7.221 2.817l-7.905-1.77 1.862-2.4a16.422 16.422 0 0 1 11.925-6.291 46.852 46.852 0 0 0 7.625 1.928 18.937 18.937 0 0 0 -6.286 5.716z" fill="url(#linear-gradient-5)"/><path d="m244.106 85.853a6 6 0 0 0 6-6 8.094 8.094 0 0 1 8.085-8.085h.891a6 6 0 0 0 0-12h-.891a20.107 20.107 0 0 0 -20.085 20.085 6 6 0 0 0 6 6z" fill="url(#linear-gradient-6)"/></svg>