<svg id="Layer_1" height="512" viewBox="0 0 512 512" width="512" xmlns="http://www.w3.org/2000/svg" xmlns:xlink="http://www.w3.org/1999/xlink" data-name="Layer 1"><linearGradient id="linear-gradient" gradientUnits="userSpaceOnUse" x1="256" x2="256" y1="465" y2="86.979"><stop offset=".322" stop-color="#a163f5"/><stop offset=".466" stop-color="#b074ee"/><stop offset=".752" stop-color="#d8a1dd"/><stop offset=".898" stop-color="#efbad3"/></linearGradient><linearGradient id="linear-gradient-2" x1="290.406" x2="290.406" xlink:href="#linear-gradient" y1="465" y2="86.979"/><linearGradient id="linear-gradient-3" x1="221.594" x2="221.594" xlink:href="#linear-gradient" y1="465" y2="86.979"/><linearGradient id="linear-gradient-4" xlink:href="#linear-gradient" y1="465.001" y2="86.979"/><path d="m337.3 314.865h-11.158a45.153 45.153 0 0 0 -.667-4.617l-15.945-26.433a6 6 0 0 0 -5.1-2.833h-8.1v-9.322a80.823 80.823 0 0 0 40.462-69.96v-.023c.522.04 1.044.066 1.567.066a20.711 20.711 0 0 0 20.523-23.624 20.554 20.554 0 0 0 -8.718-14.106 18.1 18.1 0 0 0 -13.372-2.926v-45.545a31.9 31.9 0 0 0 -16.785-28.068v-.208a40.813 40.813 0 0 0 -40.767-40.766h-48.578c-14.969 0-29 6.676-39.507 18.8-10.283 11.884-15.947 27.622-15.947 44.315v29.142a5.94 5.94 0 0 0 0 3.764v18.586a18.112 18.112 0 0 0 -13.529 2.906 20.549 20.549 0 0 0 -8.718 14.1 20.713 20.713 0 0 0 20.523 23.624c.576 0 1.151-.033 1.724-.081v.038a80.823 80.823 0 0 0 40.456 69.958v9.322h-8.1a6 6 0 0 0 -5.1 2.835l-15.945 26.433a45.153 45.153 0 0 0 -.667 4.617h-11.152a49.76 49.76 0 0 0 -49.7 49.7v94.941a6 6 0 0 0 6 6h250a6 6 0 0 0 6-6v-94.932a49.76 49.76 0 0 0 -49.7-49.703zm-.505-141.235a6.362 6.362 0 0 1 6.547.251 8.7 8.7 0 0 1 -1.649 15.205 8.814 8.814 0 0 1 -4.9.5zm-161.587 15.92a8.688 8.688 0 0 1 -10.372-9.708 8.672 8.672 0 0 1 3.668-5.96 6.373 6.373 0 0 1 6.7-.161zm133.323 115.422 5.362 8.645a32.094 32.094 0 0 1 -14.15 32.244 25.848 25.848 0 0 1 -33.445-4.238l21.166-11.437a44.075 44.075 0 0 0 21.067-25.214zm-20.12 9.87a32.529 32.529 0 0 1 -6.652 4.786l-25.759 13.919-25.759-13.919a32.519 32.519 0 0 1 -6.651-4.785 25.8 25.8 0 0 0 4.074-13.978v-23.517a80.647 80.647 0 0 0 56.672 0v23.517a25.819 25.819 0 0 0 4.075 13.977zm10.21-21.864a32.088 32.088 0 0 1 -2.12 9.934 14.036 14.036 0 0 1 -.165-2.047v-7.887zm26.171-177.436v19.1h-17.813a23.5 23.5 0 0 1 -23.469-23.469v-15.5h21.412a19.893 19.893 0 0 1 19.87 19.869zm-137.584-5.928c0-13.81 4.624-26.76 13.019-36.459 8.191-9.451 19-14.656 30.435-14.656h48.578a28.81 28.81 0 0 1 28.56 25.301q-1.422-.128-2.878-.129h-27.412a6 6 0 0 0 -6 6v12.049h-20.555a22.484 22.484 0 0 0 -22.455 22.46 10.47 10.47 0 0 1 -10.459 10.458h-30.833zm0 92.084v-55.06h30.829a22.483 22.483 0 0 0 22.463-22.458 10.47 10.47 0 0 1 10.459-10.459h20.657a35.507 35.507 0 0 0 35.367 32.917h17.813v55.062a68.792 68.792 0 1 1 -137.584 0zm28.456 91.28v7.887a14.177 14.177 0 0 1 -.164 2.047 32.06 32.06 0 0 1 -2.121-9.934zm-17.557 20.639 5.362-8.645a44.078 44.078 0 0 0 21.067 25.213l21.164 11.437a25.849 25.849 0 0 1 -33.445 4.238 32.094 32.094 0 0 1 -14.148-32.243zm176.893 139.883h-38v-54a6 6 0 0 0 -12 0v54h-138v-54a6 6 0 0 0 -12 0v54h-38v-88.932a37.745 37.745 0 0 1 37.7-37.7h11.668a44.047 44.047 0 0 0 19.317 29.032 37.615 37.615 0 0 0 25.745 5.938v56.443a6.937 6.937 0 0 0 -1 3.586 7.007 7.007 0 0 0 6.385 6.969c.2.02.408.031.615.031s.412-.011.614-.031a6.98 6.98 0 0 0 5.386-10.555v-60.111a37.935 37.935 0 0 0 12.57-10.143 37.91 37.91 0 0 0 12.57 10.143v60.112a6.98 6.98 0 0 0 5.386 10.555c.2.02.407.031.614.031s.412-.011.615-.031a7.007 7.007 0 0 0 6.385-6.969 6.937 6.937 0 0 0 -1-3.586v-56.443a37.615 37.615 0 0 0 25.745-5.938 44.047 44.047 0 0 0 19.314-29.035h11.671a37.745 37.745 0 0 1 37.7 37.7z" fill="url(#linear-gradient)"/><path d="m277.5 186.159a6 6 0 0 0 6-6 6.9 6.9 0 0 1 13.805 0 6 6 0 0 0 12 0 18.9 18.9 0 0 0 -37.805 0 6 6 0 0 0 6 6z" fill="url(#linear-gradient-2)"/><path d="m234.5 186.159a6 6 0 0 0 6-6 18.9 18.9 0 0 0 -37.805 0 6 6 0 0 0 12 0 6.9 6.9 0 0 1 13.805 0 6 6 0 0 0 6 6z" fill="url(#linear-gradient-3)"/><path d="m281.752 222.735a6 6 0 1 0 -8.484-8.484 24.451 24.451 0 0 1 -34.536 0 6 6 0 0 0 -8.484 8.484 36.457 36.457 0 0 0 51.5 0z" fill="url(#linear-gradient-4)"/></svg>