<svg id="Layer_1" height="512" viewBox="0 0 512 512" width="512" xmlns="http://www.w3.org/2000/svg" xmlns:xlink="http://www.w3.org/1999/xlink" data-name="Layer 1"><linearGradient id="linear-gradient" gradientUnits="userSpaceOnUse" x1="282.61" x2="282.61" y1="471.001" y2="83.497"><stop offset=".322" stop-color="#a163f5"/><stop offset=".466" stop-color="#b074ee"/><stop offset=".752" stop-color="#d8a1dd"/><stop offset=".898" stop-color="#efbad3"/></linearGradient><linearGradient id="linear-gradient-2" x1="213.799" x2="213.799" xlink:href="#linear-gradient" y1="471.001" y2="83.497"/><linearGradient id="linear-gradient-3" x1="248.205" x2="248.205" xlink:href="#linear-gradient" y1="471.001" y2="83.495"/><linearGradient id="linear-gradient-4" x1="331.192" x2="331.192" xlink:href="#linear-gradient" y1="471" y2="83.495"/><linearGradient id="linear-gradient-5" x1="256" x2="256" xlink:href="#linear-gradient" y1="471" y2="83.495"/><path d="m301.513 185.155a18.9 18.9 0 1 0 -37.8 0 6 6 0 1 0 12 0 6.9 6.9 0 1 1 13.8 0 6 6 0 1 0 12 0z" fill="url(#linear-gradient)"/><path d="m226.7 191.155a6 6 0 0 0 6-6 18.9 18.9 0 1 0 -37.8 0 6 6 0 1 0 12 0 6.9 6.9 0 1 1 13.8 0 6 6 0 0 0 6 6z" fill="url(#linear-gradient-2)"/><path d="m265.471 229.246a24.446 24.446 0 0 1 -34.533 0 6 6 0 1 0 -8.485 8.485 36.46 36.46 0 0 0 51.5 0 6 6 0 1 0 -8.486-8.485z" fill="url(#linear-gradient-3)"/><path d="m340.425 237.724h-.054a6 6 0 0 0 -5.947 6.053c.166 18.646-13.492 23.214-14.19 23.434a6 6 0 0 0 3.4 11.508 31.546 31.546 0 0 0 11.729-7.068c5.116-4.775 11.187-13.506 11.059-27.98a6 6 0 0 0 -5.997-5.947z" fill="url(#linear-gradient-4)"/><path d="m384.553 170.654-33 33c-.407-.475-.837-.932-1.26-1.394a20.335 20.335 0 0 0 .792-9.148 20.554 20.554 0 0 0 -8.717-14.1c-.439-.3-.888-.582-1.345-.842.145.016.288.04.434.055a5.775 5.775 0 0 0 .629.033 6 6 0 0 0 6-6l-.023-46.331a94.473 94.473 0 0 0 -188.946.058v36.171c-2.161.478-4.245.916-6.206 1.3a6 6 0 1 0 2.319 11.774c3.715-.732 7.813-1.624 12.182-2.685v3.555a18.113 18.113 0 0 0 -13.529 2.9 20.552 20.552 0 0 0 -8.718 14.1 20.712 20.712 0 0 0 20.522 23.625c.577 0 1.151-.033 1.725-.081v.038a80.823 80.823 0 0 0 40.455 69.958v29.22a14.015 14.015 0 0 1 -14 14h-26.96a49.76 49.76 0 0 0 -49.7 49.7v94.94a6 6 0 0 0 6 6h250a6 6 0 0 0 6-6v-94.936a49.76 49.76 0 0 0 -49.7-49.7h-26.96a14.015 14.015 0 0 1 -14-14v-16.893a59.291 59.291 0 0 0 75.126-72.737h18.085a6 6 0 0 0 0-12h-22.958c-.1-.186-.193-.377-.3-.563l34.532-34.532a6 6 0 0 0 -8.485-8.485zm-217.14 33.89a8.8 8.8 0 0 1 -5.056-.463 8.7 8.7 0 0 1 -1.649-15.2 6.371 6.371 0 0 1 6.705-.161zm171.8-9.707a8.627 8.627 0 0 1 -1.064 5.509c-.035.054-.067.109-.1.164a8.58 8.58 0 0 1 -4.151 3.571 8.818 8.818 0 0 1 -4.9.5v-15.956a6.355 6.355 0 0 1 6.547.252 8.67 8.67 0 0 1 3.666 5.96zm-168.095-67.114a175.768 175.768 0 0 0 24.416-6.971 6 6 0 1 0 -4.133-11.265 162.849 162.849 0 0 1 -19.563 5.767 82.338 82.338 0 0 1 90.973-71.221c-10.621 25.178-28.834 44.652-54.189 57.87a6 6 0 1 0 5.548 10.641c28.384-14.8 48.678-36.762 60.317-65.282a6.021 6.021 0 0 0 .3-.982 82.625 82.625 0 0 1 61.277 79.646l.02 39.306c-15.469-3.245-42.4-14.24-63.38-50.988a122.935 122.935 0 0 0 21.027-34.534 6 6 0 0 0 -11.141-4.456c-10.475 26.19-30.908 47.73-60.733 64.022a233.236 233.236 0 0 1 -50.739 19.931zm196.087 340.777h-36.539a62.536 62.536 0 0 0 -2.248-43.385 6 6 0 0 0 -11.014 4.764 50.457 50.457 0 0 1 .519 38.621h-139.437a50.462 50.462 0 0 1 .514-38.625 6 6 0 1 0 -11.013-4.764 62.536 62.536 0 0 0 -2.248 43.385h-36.534v-77.596a491.1 491.1 0 0 0 117.346 14.214 491.3 491.3 0 0 0 120.654-15.037zm-1.3-98.725a37.549 37.549 0 0 1 1.251 7.936 479.944 479.944 0 0 1 -237.927.837 37.643 37.643 0 0 1 1.066-7.977 471.014 471.014 0 0 0 116.257 14.548 471.146 471.146 0 0 0 119.355-15.348zm-63.364-27.915h26.959a37.7 37.7 0 0 1 31.367 16.811 459.9 459.9 0 0 1 -225.787.718 37.7 37.7 0 0 1 31.827-17.529h26.96a26.029 26.029 0 0 0 26-26v-23.516a80.547 80.547 0 0 0 56.673-.016v23.532a26.029 26.029 0 0 0 26.001 26zm-54.336-56.375a68.869 68.869 0 0 1 -68.792-68.792v-47.345a241.51 241.51 0 0 0 48.2-19.541 167.193 167.193 0 0 0 36.546-26.481 141.808 141.808 0 0 0 22.3 27.977 101.492 101.492 0 0 0 30.541 20.561v44.829a68.869 68.869 0 0 1 -68.795 68.792zm58.367 4.288a46.907 46.907 0 0 1 -17.572-3.385 80.817 80.817 0 0 0 40-69.695v-.022c.521.039 1.044.065 1.568.065a20.944 20.944 0 0 0 7.792-1.515 20.071 20.071 0 0 0 4.876-2.82q1.431 1.738 2.68 3.585l.068.1a46.6 46.6 0 0 1 3.57 6.325 6.068 6.068 0 0 0 .33.713 47.434 47.434 0 0 1 -43.309 66.646z" fill="url(#linear-gradient-5)"/></svg>