<svg id="Layer_1" height="512" viewBox="0 0 512 512" width="512" xmlns="http://www.w3.org/2000/svg" xmlns:xlink="http://www.w3.org/1999/xlink" data-name="Layer 1"><linearGradient id="linear-gradient" gradientUnits="userSpaceOnUse" x1="256" x2="256" y1="471" y2="83.495"><stop offset=".322" stop-color="#a163f5"/><stop offset=".466" stop-color="#b074ee"/><stop offset=".752" stop-color="#d8a1dd"/><stop offset=".898" stop-color="#efbad3"/></linearGradient><linearGradient id="linear-gradient-2" x1="290.406" x2="290.406" xlink:href="#linear-gradient" y1="471.001" y2="83.496"/><linearGradient id="linear-gradient-3" x1="221.594" x2="221.594" xlink:href="#linear-gradient" y1="471.001" y2="83.496"/><linearGradient id="linear-gradient-4" xlink:href="#linear-gradient" y1="471" y2="83.494"/><linearGradient id="linear-gradient-5" x1="224.944" x2="224.944" xlink:href="#linear-gradient" y1="471" y2="83.495"/><linearGradient id="linear-gradient-6" x1="239.642" x2="239.642" xlink:href="#linear-gradient" y1="471" y2="83.495"/><linearGradient id="linear-gradient-7" x1="313.196" x2="313.196" xlink:href="#linear-gradient" y1="470.999" y2="83.493"/><linearGradient id="linear-gradient-8" x1="319.196" x2="319.196" xlink:href="#linear-gradient" y1="471" y2="83.495"/><linearGradient id="linear-gradient-9" x1="346.986" x2="346.986" xlink:href="#linear-gradient" y1="471" y2="83.495"/><linearGradient id="linear-gradient-10" x1="184.058" x2="184.058" xlink:href="#linear-gradient" y1="471" y2="83.494"/><linearGradient id="linear-gradient-11" x1="198.974" x2="198.974" xlink:href="#linear-gradient" y1="471" y2="83.494"/><path d="m374.641 141.658a110.946 110.946 0 1 0 -221.891 0v111.62a69.012 69.012 0 0 0 61.907 68.56 14.014 14.014 0 0 1 -12.993 8.813h-26.964a49.76 49.76 0 0 0 -49.7 49.7v94.933a6 6 0 0 0 6 6h250a6 6 0 0 0 6-6v-94.93a49.266 49.266 0 0 0 -12.359-32.782zm-209.891 0a98.946 98.946 0 1 1 197.891 0v209.462a57.226 57.226 0 0 1 -57.161 57.161h-9.074v-120.881a80.821 80.821 0 0 0 40.387-69.917v-.023c.522.04 1.044.066 1.567.066a20.714 20.714 0 0 0 20.522-23.626 20.552 20.552 0 0 0 -8.718-14.1 18.1 18.1 0 0 0 -13.372-2.926v-30.646a98.4 98.4 0 0 1 6.371 15.691 6 6 0 1 0 11.453-3.583c-9.974-31.877-28.839-47.054-42.908-54.172-15.391-7.787-28.477-7.876-29.026-7.876a6 6 0 0 0 -4.769 2.358c-34.824 45.594-73.817 46.417-95.479 46.417-.414 0-.823.037-1.226 0a6 6 0 0 0 -6 6v25.829a18.206 18.206 0 0 0 -10.458 1.208zm91.25 144.618a68.87 68.87 0 0 1 -68.792-68.792v-60.448c22.971-.311 62.933-4.1 98.245-48.543a64.6 64.6 0 0 1 39.339 20.451v88.54a68.87 68.87 0 0 1 -68.792 68.792zm28.406 6.83v71.371a36.372 36.372 0 0 1 -57.009-.522 49.632 49.632 0 0 1 -10.239-26.439 25.977 25.977 0 0 0 10.506-20.865v-23.517a80.634 80.634 0 0 0 56.742-.028zm52.386-87.734v-15.956a6.357 6.357 0 0 1 6.547.251 8.7 8.7 0 0 1 -1.648 15.205 8.818 8.818 0 0 1 -4.899.5zm-161.584-15.865v15.829a8.812 8.812 0 0 1 -5.056-.464 8.7 8.7 0 0 1 -1.648-15.205 6.373 6.373 0 0 1 6.704-.16zm-10.458 63.771v-37.693c.312.145.62.3.941.426a20.93 20.93 0 0 0 7.793 1.516c.576 0 1.151-.033 1.724-.082v.039a80.821 80.821 0 0 0 40.456 69.957v22.433a56.993 56.993 0 0 1 -50.914-56.596zm31.924 89.373h4.99a26.039 26.039 0 0 0 3.964-.3 61.709 61.709 0 0 0 12.3 28.976 48.08 48.08 0 0 0 38.187 18.673 48.09 48.09 0 0 0 28.288-9.1v23.7a76.507 76.507 0 0 1 -88.577-24.08c-.989-1.271-1.937-2.589-2.86-3.92zm-5.551 50.866a88.6 88.6 0 0 0 94.009 23.626 6 6 0 0 0 5.274 3.138h7.89a96.576 96.576 0 0 1 -42.178 9.719 95.534 95.534 0 0 1 -66.118-26.219zm-2.7 24.79a108.485 108.485 0 0 0 134.516.648l1.137 9.158a116.88 116.88 0 0 1 -67.959 21.887 114.878 114.878 0 0 1 -68.787-22.445zm-14.01 10.781a54.462 54.462 0 0 0 -1.136 40.2h-36.277v-88.934a37.746 37.746 0 0 1 37.7-37.7h9.9l-8.9 81.53a16.936 16.936 0 0 1 -1.292 4.904zm11.834 40.2-.82-1.9a41.856 41.856 0 0 1 -1.489-4q5.751 3.225 11.73 5.893zm139.617-1.9-.82 1.9h-8.895q5.626-2.481 11.038-5.408c-.396 1.184-.829 2.358-1.328 3.51zm-55.943 1.9h-28.657l.008-.069a133.147 133.147 0 0 1 -59.234-21 42.387 42.387 0 0 1 1.414-8.706 126.794 126.794 0 0 0 72.665 22.487 129 129 0 0 0 71.852-22 42.41 42.41 0 0 1 1.3 8.727 137.359 137.359 0 0 1 -59.353 20.56zm105.079-88.934v88.933h-36.991a54.465 54.465 0 0 0 -1.136-40.2 16.955 16.955 0 0 1 -1.3-4.9l-1.119-10.287a69.424 69.424 0 0 0 38.246-46.566 37.736 37.736 0 0 1 2.3 13.02z" fill="url(#linear-gradient)"/><path d="m309.309 185.945a18.9 18.9 0 0 0 -37.805 0 6 6 0 0 0 12 0 6.9 6.9 0 0 1 13.805 0 6 6 0 0 0 12 0z" fill="url(#linear-gradient-2)"/><path d="m234.5 191.945a6 6 0 0 0 6-6 18.9 18.9 0 0 0 -37.805 0 6 6 0 0 0 12 0 6.9 6.9 0 0 1 13.805 0 6 6 0 0 0 6 6z" fill="url(#linear-gradient-3)"/><path d="m273.268 230.037a24.451 24.451 0 0 1 -34.536 0 6 6 0 1 0 -8.484 8.485 36.462 36.462 0 0 0 51.5 0 6 6 0 1 0 -8.484-8.485z" fill="url(#linear-gradient-4)"/><path d="m184.94 130.9h.951c17.73 0 53.179-.692 83.822-40.811a6 6 0 0 0 -9.537-7.285c-27.084 35.462-57.435 36.1-74.288 36.1h-.944a6 6 0 0 0 0 12z" fill="url(#linear-gradient-5)"/><path d="m221.594 95.275a6 6 0 0 0 1.814-.282c15.651-4.958 28.482-14.968 39.226-30.6a6 6 0 0 0 -9.891-6.8c-9.172 13.347-19.953 21.838-32.959 25.959a6 6 0 0 0 1.81 11.721z" fill="url(#linear-gradient-6)"/><path d="m291.886 84.087c.237-.058 23.788-5.73 39.025 18.44a6 6 0 1 0 10.15-6.4c-15.871-25.176-41.042-26.491-52.134-23.668a6 6 0 1 0 2.959 11.628z" fill="url(#linear-gradient-7)"/><path d="m319.2 325.126a6 6 0 0 0 -6 6v48.781a6 6 0 1 0 12 0v-48.781a6 6 0 0 0 -6-6z" fill="url(#linear-gradient-8)"/><path d="m346.986 265.052a6 6 0 0 0 -6 6v62.32a6 6 0 0 0 12 0v-62.32a6 6 0 0 0 -6-6z" fill="url(#linear-gradient-9)"/><path d="m184.058 267.816a6 6 0 0 0 -6 6v7.224a6 6 0 0 0 12 0v-7.224a6 6 0 0 0 -6-6z" fill="url(#linear-gradient-10)"/><path d="m198.974 282.732a6 6 0 0 0 -6 6v7.224a6 6 0 0 0 12 0v-7.224a6 6 0 0 0 -6-6z" fill="url(#linear-gradient-11)"/></svg>