<svg id="Layer_1" height="512" viewBox="0 0 512 512" width="512" xmlns="http://www.w3.org/2000/svg" xmlns:xlink="http://www.w3.org/1999/xlink" data-name="Layer 1"><linearGradient id="linear-gradient" gradientUnits="userSpaceOnUse" x1="256" x2="256" y1="471" y2="83.495"><stop offset=".322" stop-color="#a163f5"/><stop offset=".466" stop-color="#b074ee"/><stop offset=".752" stop-color="#d8a1dd"/><stop offset=".898" stop-color="#efbad3"/></linearGradient><linearGradient id="linear-gradient-2" x1="279.493" x2="279.493" xlink:href="#linear-gradient" y1="471.001" y2="83.496"/><linearGradient id="linear-gradient-3" x1="210.682" x2="210.682" xlink:href="#linear-gradient" y1="471.001" y2="83.496"/><linearGradient id="linear-gradient-4" x1="245.087" x2="245.087" xlink:href="#linear-gradient" y1="471" y2="83.495"/><linearGradient id="linear-gradient-5" x1="218.94" x2="218.94" xlink:href="#linear-gradient" y1="471" y2="83.495"/><linearGradient id="linear-gradient-6" x1="282.958" x2="282.958" xlink:href="#linear-gradient" y1="470.999" y2="83.494"/><path d="m376.088 416.845v-15.961a49.76 49.76 0 0 0 -49.7-49.7h-26.96a14.016 14.016 0 0 1 -14-14v-29.21a81.1 81.1 0 0 0 38.084-50.574 45.513 45.513 0 0 0 9.678.825c1.482.023 3.648.055 5.19.22a54.513 54.513 0 0 1 -2.841 5.613c-2.694 4.851-5.48 9.867-4 14.723 1.7 5.578 7.644 8.549 12.886 11.171a53.635 53.635 0 0 1 4.9 2.659c-1.129 1.847-4.624 4.806-6.438 6.341-1.312 1.111-2.551 2.159-3.643 3.214a6 6 0 1 0 8.334 8.632c.81-.781 1.9-1.707 3.061-2.686 5.224-4.423 11.727-9.925 10.974-17.387-.595-5.89-6.3-8.745-11.824-11.506-1.913-.956-5.29-2.645-6.528-3.8a43.887 43.887 0 0 1 2.763-5.538c3.189-5.741 6.8-12.248 3.372-18.138-3.1-5.325-9.97-5.429-16.029-5.521a38.407 38.407 0 0 1 -7.269-.536 44.646 44.646 0 0 1 .112-6.075c.032-.526.061-1.063.091-1.6.379.021.76.038 1.141.038a20.713 20.713 0 0 0 20.523-23.625 20.556 20.556 0 0 0 -8.718-14.106 18.108 18.108 0 0 0 -13.367-2.918v-45.366a81.674 81.674 0 0 0 -12.6-43.779 61 61 0 1 0 -107.325-21.1 58.306 58.306 0 0 0 -41.658 55.8v32.5c-1.754.046-3.4.074-4.93.1-2.178.036-4.06.066-5.763.139a6 6 0 1 0 .509 11.989c1.545-.066 3.355-.095 5.449-.129 1.478-.024 3.061-.05 4.735-.091v9.965a18.116 18.116 0 0 0 -13.53 2.905 20.55 20.55 0 0 0 -8.717 14.1 20.819 20.819 0 0 0 12.729 22.109 21.078 21.078 0 0 0 4.744 1.265 21.045 21.045 0 0 0 4.669 26.507 9.057 9.057 0 0 1 .025 13.8l-.03.024a21.058 21.058 0 0 0 0 32.13l.046.038a9.056 9.056 0 0 1 -.037 13.788 6 6 0 0 0 7.758 9.155 21.056 21.056 0 0 0 0-32.129c-.014-.013-.029-.025-.045-.038a9.056 9.056 0 0 1 .013-13.767l.029-.025a21.061 21.061 0 0 0 4.922-6.071 81.458 81.458 0 0 0 27.88 26.756v29.207a14.016 14.016 0 0 1 -14 14h-26.96a49.76 49.76 0 0 0 -49.7 49.7v94.932a6 6 0 0 0 6 6h250a6 6 0 0 0 6-6v-37.614q8.094-.3 16.278-.92a6 6 0 0 0 5.546-5.983v-1.83a34.966 34.966 0 0 0 -10.591-25.182 35.428 35.428 0 0 0 -11.238-7.44zm-50.208-206.911a6.268 6.268 0 0 1 6.547.263 8.7 8.7 0 0 1 -1.648 15.2 8.827 8.827 0 0 1 -4.9.5zm-161.58 15.931a8.8 8.8 0 0 1 -5.056-.464 8.7 8.7 0 0 1 -1.649-15.2 6.373 6.373 0 0 1 6.7-.16zm166.46 137.577a37.753 37.753 0 0 1 33.332 37.442v13.323c-.792-.034-1.586-.052-2.388-.035-10.864.234-21.168-.063-30.944-.794zm-65.924-341.258a49.054 49.054 0 0 1 48.985 48.133 83.473 83.473 0 0 0 -96.921-9.317 49.086 49.086 0 0 1 47.936-38.816zm-5.977 39.5a71.338 71.338 0 0 1 52.949 23.47 48.883 48.883 0 0 1 -6.061 13.014 78.726 78.726 0 0 0 -51.306-26.5 15.738 15.738 0 0 0 -16.392 10.267 5.8 5.8 0 0 0 -.239.838 2.487 2.487 0 0 1 -2.424 1.971h-12.88c-1.591 0-3.163.082-4.722.208a48.552 48.552 0 0 1 -1.73-9.037 71.646 71.646 0 0 1 42.805-14.233zm-82.559 81.266a46.262 46.262 0 0 1 46.21-46.21h12.88a14.538 14.538 0 0 0 14.039-10.949 3.718 3.718 0 0 1 3.794-2.189c34.582 3.544 60.661 32.963 60.661 68.432v12.366c-18.986-26.01-49.74-36.714-51.369-37.265a6 6 0 0 0 -6.821 2.214c-24.866 35.1-56.66 43.342-79.394 45.431zm0 95.064v-51.159c24.184-1.977 58.581-10.107 86.394-46.761 11.111 4.746 41.947 20.365 51.19 50.572v47.348a68.792 68.792 0 1 1 -137.584 0zm40.455 99.167v-23.514a80.627 80.627 0 0 0 56.673-.009v23.523a26.029 26.029 0 0 0 26 26h19.332v49.052c-62.013-7.208-100.682-32.245-120.96-50.033a26.041 26.041 0 0 0 18.951-25.019zm98.056 152.635h-139.442a50.457 50.457 0 0 1 .519-38.621 6 6 0 0 0 -11.014-4.763 62.527 62.527 0 0 0 -2.247 43.384h-36.539v-88.932a37.671 37.671 0 0 1 15.205-30.236c13.84 15.117 36.257 35.343 68.785 52.624 31.924 16.959 67.427 27.856 105.929 32.555a50.654 50.654 0 0 1 -1.2 33.989zm49.281 0h-36.552a62.906 62.906 0 0 0 1.263-32.669q12.839 1.094 26.091 1.3l9.194.012zm-9.013-43.367c-51.764-.782-98.653-12.146-139.367-33.775a245.482 245.482 0 0 1 -63.329-47.724 37.581 37.581 0 0 1 11.412-1.769h17.55c21.525 21.774 77.6 65.21 180.619 62.988a23.367 23.367 0 0 1 16.969 6.691 23.036 23.036 0 0 1 6.684 12.854c-10.338.64-20.585.886-30.542.735z" fill="url(#linear-gradient)"/><path d="m266.591 212.475a6 6 0 0 0 6-6 6.9 6.9 0 0 1 13.805 0 6 6 0 0 0 12 0 18.9 18.9 0 0 0 -37.805 0 6 6 0 0 0 6 6z" fill="url(#linear-gradient-2)"/><path d="m223.584 212.475a6 6 0 0 0 6-6 18.9 18.9 0 0 0 -37.805 0 6 6 0 1 0 12 0 6.9 6.9 0 0 1 13.805 0 6 6 0 0 0 6 6z" fill="url(#linear-gradient-3)"/><path d="m270.84 259.052a6 6 0 0 0 -8.486-8.486 24.417 24.417 0 0 1 -34.534 0 6 6 0 1 0 -8.484 8.486 36.418 36.418 0 0 0 51.5 0z" fill="url(#linear-gradient-4)"/><path d="m248.333 103.18a6.006 6.006 0 0 0 -7.782 3.364c-.534 1.339-13.492 32.826-49.24 35.439a6 6 0 0 0 .432 11.984c.147 0 .3-.005.443-.016 43.422-3.174 58.892-41.385 59.53-43.01a5.992 5.992 0 0 0 -3.383-7.761z" fill="url(#linear-gradient-5)"/><path d="m265.149 118.491c.225-.008 21.214-.895 30.592 17.384a6 6 0 0 0 10.678-5.477c-12.886-25.116-40.722-23.952-41.9-23.891a6 6 0 0 0 .627 11.984z" fill="url(#linear-gradient-6)"/></svg>