<svg id="Layer_1" height="512" viewBox="0 0 512 512" width="512" xmlns="http://www.w3.org/2000/svg" xmlns:xlink="http://www.w3.org/1999/xlink" data-name="Layer 1"><linearGradient id="linear-gradient" gradientUnits="userSpaceOnUse" x1="256" x2="256" y1="451" y2="68.168"><stop offset=".322" stop-color="#a163f5"/><stop offset=".466" stop-color="#b074ee"/><stop offset=".752" stop-color="#d8a1dd"/><stop offset=".898" stop-color="#efbad3"/></linearGradient><linearGradient id="linear-gradient-2" x1="256" x2="256" xlink:href="#linear-gradient" y1="451" y2="68.167"/><linearGradient id="linear-gradient-5" x1="296.793" x2="296.793" xlink:href="#linear-gradient" y1="450.999" y2="68.168"/><linearGradient id="linear-gradient-6" x1="215.208" x2="215.208" xlink:href="#linear-gradient" y1="450.999" y2="68.168"/><linearGradient id="linear-gradient-7" x1="256" x2="256" xlink:href="#linear-gradient" y1="451" y2="68.168"/><path d="m340.157 325.3h-16.89a36.341 36.341 0 0 0 -25.723-27.273v-17.787a83.454 83.454 0 0 0 41.88-72.3v-.257c.609.054 1.221.09 1.833.09a21.228 21.228 0 0 0 21.036-24.214 21.059 21.059 0 0 0 -6.751-12.7l5.067-5.213a21.459 21.459 0 0 0 -2.987-32.475 9.423 9.423 0 0 1 -3.9-9.052l.932-6.56a21.39 21.39 0 0 0 -11.906-22.339l-10.125-4.894a9.468 9.468 0 0 1 -4.982-5.931l-6.519-22.928a21.327 21.327 0 0 0 -18.617-15.495l-22-2.086-8.968-5.209a55.211 55.211 0 0 0 -61.427 3.872l-6.9 5.271a10.463 10.463 0 0 1 -2.987 1.595l-14.489 4.94a22.5 22.5 0 0 0 -15.25 21.305v11.02a10.493 10.493 0 0 1 -5.54 9.26l-4.591 2.46a22.491 22.491 0 0 0 -10.253 28.2l2.362 5.9a10.482 10.482 0 0 1 -1.762 10.723 22.495 22.495 0 0 0 2.258 31.5 21.217 21.217 0 0 0 17.627 33.056c.667 0 1.332-.043 2-.106v.273a83.454 83.454 0 0 0 41.88 72.3v17.79a36.338 36.338 0 0 0 -25.731 27.264h-16.891a51.3 51.3 0 0 0 -51.243 51.244v98.273a6 6 0 0 0 6 6h258.8a6 6 0 0 0 6-6v-98.273a51.3 51.3 0 0 0 -51.243-51.244zm-28.046 7.844v43.4l-38.572-21.2a36.746 36.746 0 0 0 24-34.387v-10.2a24.4 24.4 0 0 1 14.572 22.39zm-47.278 12.086a60.959 60.959 0 0 1 -17.668 0 24.537 24.537 0 0 1 -20.709-24.279v-35.006a83.2 83.2 0 0 0 59.088 0v35.011a24.536 24.536 0 0 1 -20.711 24.274zm79.952-150.147a9.327 9.327 0 0 1 -5.361.49v-16.818a6.7 6.7 0 0 1 7.109.219 9.218 9.218 0 0 1 -1.748 16.109zm-172.209.449a9.314 9.314 0 0 1 -5.523-.449 9.218 9.218 0 0 1 -1.748-16.109 6.718 6.718 0 0 1 7.271-.123zm0-35.036v5.683a18.666 18.666 0 0 0 -9.973.8l-.561-.369a10.507 10.507 0 0 1 -2.215-15.6 22.456 22.456 0 0 0 3.773-22.967l-2.362-5.9a10.5 10.5 0 0 1 4.788-13.162l4.592-2.464a22.475 22.475 0 0 0 11.866-19.837v-11.02a10.508 10.508 0 0 1 7.118-9.947l14.488-4.94a22.472 22.472 0 0 0 6.4-3.415l6.9-5.272a43.253 43.253 0 0 1 48.117-3.033l10.106 5.87a5.989 5.989 0 0 0 2.447.785l23.311 2.21a9.4 9.4 0 0 1 8.206 6.831l6.523 22.928a21.474 21.474 0 0 0 11.3 13.452l10.124 4.895a9.427 9.427 0 0 1 5.249 9.848l-.932 6.561a21.375 21.375 0 0 0 8.848 20.534 9.46 9.46 0 0 1 1.316 14.316l-6.645 6.836a21.387 21.387 0 0 0 -1.508 1.751 18.836 18.836 0 0 0 -4.428.273v-8.56a16.036 16.036 0 0 0 -16.89-16.013c-.129.008-.257.012-.385.011a14.032 14.032 0 0 1 -13.668-13.958 15.048 15.048 0 0 0 -15.031-15.031h-6.15a3.034 3.034 0 0 1 -3.03-3.029 15.046 15.046 0 0 0 -15.03-15.03h-7.32a17.061 17.061 0 0 1 -17.042-17.042 6 6 0 1 0 -12 0 29.009 29.009 0 0 0 11.439 23.084 15.308 15.308 0 0 1 -15.2 13.651 19.407 19.407 0 0 0 -19.386 19.386 7.4 7.4 0 0 1 -7.384 7.388h-10.272a19.52 19.52 0 0 0 -19.499 19.5zm154.773-3.659q-1.254-1.6-2.658-3.07a4.007 4.007 0 0 1 2.658 3.07zm-107.215-15.537a19.266 19.266 0 0 0 1.6-7.69 7.394 7.394 0 0 1 7.386-7.386 27.335 27.335 0 0 0 26.406-20.4 28.994 28.994 0 0 0 6.4.71h7.316a3.033 3.033 0 0 1 3.03 3.03 15.047 15.047 0 0 0 15.03 15.029h6.154a3.035 3.035 0 0 1 3.031 3.031 25.707 25.707 0 0 0 4.006 13.762 41.122 41.122 0 0 0 -45.425 30.377 41.3 41.3 0 0 0 -34.934-30.463zm24.27 40.892a29.2 29.2 0 1 1 -29.2-29.2 29.229 29.229 0 0 1 29.196 29.202zm50.513-29.192a29.2 29.2 0 1 1 -29.2 29.2 29.229 29.229 0 0 1 29.2-29.2zm-110.295 56.759a41.173 41.173 0 0 0 70.44-17.133 41.17 41.17 0 0 0 72.362 14.83v.487a71.412 71.412 0 0 1 -142.8 1.816zm15.267 123.388a24.4 24.4 0 0 1 14.567-22.391v10.2a36.742 36.742 0 0 0 24.006 34.387l-38.573 21.2zm179.511 135.67h-38.329a64.519 64.519 0 0 0 -2.229-45.039 6 6 0 1 0 -11.013 4.764 52.443 52.443 0 0 1 .485 40.275h-144.628a52.443 52.443 0 0 1 .486-40.275 6 6 0 1 0 -11.014-4.764 64.519 64.519 0 0 0 -2.228 45.039h-38.33v-92.273a39.286 39.286 0 0 1 39.243-39.244h16.046v42.438a10.141 10.141 0 0 0 13.633 9.52 5.989 5.989 0 0 0 .824-.375l53.654-29.493 53.654 29.5a5.947 5.947 0 0 0 .825.375 10.14 10.14 0 0 0 13.632-9.52v-42.445h16.046a39.286 39.286 0 0 1 39.243 39.244z" fill="url(#linear-gradient)"/><g fill="url(#linear-gradient-2)"><path d="m256 376.059a8.445 8.445 0 1 0 8.445 8.445 8.455 8.455 0 0 0 -8.445-8.445z"/><path d="m256 411.513a8.445 8.445 0 1 0 8.445 8.445 8.455 8.455 0 0 0 -8.445-8.445z"/><path d="m256 446.967a8.445 8.445 0 1 0 8.445 8.445 8.455 8.455 0 0 0 -8.445-8.445z"/></g><path d="m283.436 190.612a6 6 0 0 0 6-6 7.357 7.357 0 1 1 14.713 0 6 6 0 0 0 12 0 19.357 19.357 0 1 0 -38.713 0 6 6 0 0 0 6 6z" fill="url(#linear-gradient-5)"/><path d="m195.852 184.612a6 6 0 0 0 12 0 7.356 7.356 0 1 1 14.712 0 6 6 0 0 0 12 0 19.356 19.356 0 1 0 -38.712 0z" fill="url(#linear-gradient-6)"/><path d="m282.509 240.959a6 6 0 0 0 -8.486-8.485 25.515 25.515 0 0 1 -36.046 0 6 6 0 0 0 -8.486 8.485 37.531 37.531 0 0 0 53.018 0z" fill="url(#linear-gradient-7)"/></svg>