<svg id="Layer_1" height="512" viewBox="0 0 512 512" width="512" xmlns="http://www.w3.org/2000/svg" xmlns:xlink="http://www.w3.org/1999/xlink" data-name="Layer 1"><linearGradient id="linear-gradient" gradientUnits="userSpaceOnUse" x1="256" x2="256" y1="451" y2="68.168"><stop offset=".322" stop-color="#a163f5"/><stop offset=".466" stop-color="#b074ee"/><stop offset=".752" stop-color="#d8a1dd"/><stop offset=".898" stop-color="#efbad3"/></linearGradient><linearGradient id="linear-gradient-2" x1="290.406" x2="290.406" xlink:href="#linear-gradient" y1="451.001" y2="68.168"/><linearGradient id="linear-gradient-3" x1="221.594" x2="221.594" xlink:href="#linear-gradient" y1="451.001" y2="68.168"/><linearGradient id="linear-gradient-4" xlink:href="#linear-gradient" y1="451" y2="68.169"/><linearGradient id="linear-gradient-5" x1="174.643" x2="174.643" xlink:href="#linear-gradient" y1="451" y2="68.169"/><path d="m337.3 324.8h-26.964a14.015 14.015 0 0 1 -14-14v-29.2a81.321 81.321 0 0 0 14.331-10.54 60.178 60.178 0 0 0 46.607-58.4v-13.323a20.477 20.477 0 0 0 1.608-11.289 20.915 20.915 0 0 0 -1.608-5.5v-53.858a92.227 92.227 0 0 0 -92.122-92.122 109.991 109.991 0 0 0 -57.141 15.956c-31.707 19.265-51.031 53.53-52.155 90.446-3.408.944-6.845 1.808-10.316 2.567a6 6 0 1 0 2.56 11.723c2.7-.591 5.389-1.244 8.058-1.942.143 1.8.315 3.6.546 5.4l.465 3.62-15.736 3.441a6 6 0 0 0 2.567 11.721l14.71-3.217.019.149a20.556 20.556 0 0 0 -5.767 11.614 20.821 20.821 0 0 0 12.729 22.109c.278.111.561.192.841.291l-4.632 10.96a51.589 51.589 0 0 0 12.685 58.009 63.865 63.865 0 0 0 -7.136.543 6 6 0 0 0 -5.059 4.675l-4.431 20.435a5.989 5.989 0 0 0 .887 4.607c-10.37 9.412-24.858 25.374-29.372 44.223a49.256 49.256 0 0 0 -4.474 20.602v94.932a6 6 0 0 0 6 6h250a6 6 0 0 0 6-6v-94.932a49.76 49.76 0 0 0 -49.7-49.7zm-12.508-113.171a68.87 68.87 0 0 1 -68.792 68.792 69.6 69.6 0 0 1 -69.521-69.521v-41.19a206.577 206.577 0 0 0 105.044-71.61 117.673 117.673 0 0 0 1.2 17.438c3.5 23.96 14.48 43.434 32.065 57.2zm-112.285 80.792h3.157v18.379a14 14 0 0 1 -13.381 13.969c-.059-1.36-.12-2.72-.152-4.081.085 0 .169.018.255.018a6 6 0 0 0 5.864-4.729l4.43-20.435a5.985 5.985 0 0 0 -.173-3.121zm132.767-79.773a48.08 48.08 0 0 1 -18.351 37.64 80.291 80.291 0 0 0 9.869-38.659v-.022c.522.039 1.044.065 1.567.065a20.869 20.869 0 0 0 6.915-1.211zm.791-17.6c-.053.092-.1.185-.149.28a8.587 8.587 0 0 1 -4.225 3.688 8.809 8.809 0 0 1 -4.9.5v-15.963a6.274 6.274 0 0 1 6.537.282 8.643 8.643 0 0 1 2.736 11.214zm-78.718-123.593a6 6 0 0 0 -8.4 1.2 193.461 193.461 0 0 1 -90.881 66.5 96.9 96.9 0 0 1 97.087-90.581 80.212 80.212 0 0 1 80.122 80.122v42.904h-.017c-22.986-11.759-36.648-31.07-40.6-57.411a108.426 108.426 0 0 1 1.1-37.543 6 6 0 0 0 -10.964-4.546 194.179 194.179 0 0 1 -124.5 89.365l-1.357.3-.332-2.577q-.472-3.673-.669-7.332a205.475 205.475 0 0 0 100.606-72 6 6 0 0 0 -1.195-8.401zm-102.511 118.318a8.672 8.672 0 0 1 3.668-5.96 6.3 6.3 0 0 1 5.975-.518v16.3a8.838 8.838 0 0 1 -4.327-.575 8.7 8.7 0 0 1 -5.316-9.247zm8.116 36.307 2.168-5.13a81.641 81.641 0 0 0 38.358 59.471h-5.131q-.717 0-1.427-.023a37.688 37.688 0 0 1 -30.838-17.7 39.459 39.459 0 0 1 -3.13-36.618zm.234 65.382a51.987 51.987 0 0 1 26.836 5.818l-1.811 8.357a63.712 63.712 0 0 0 -26.605-5.821h-.231zm.353 171.97h-36.539v-70.658q10.367 14.885 32.638 27.156c.165.091.343.177.516.253.082.035 1.894.835 4.629 2.338a62.565 62.565 0 0 0 -1.244 40.911zm29.051-.017v.017h-16.309a50.506 50.506 0 0 1 -1.14-34.205c9.778 7.434 20.249 19.173 17.449 34.188zm-5.912-40.292a93.028 93.028 0 0 0 -21.487-13.834c-22.438-12.389-34.238-26.533-35.073-42.04-1.385-25.708 26.972-49.34 34.753-55.32a51.749 51.749 0 0 1 15.214 3.3c-.029 6.021.2 12.075.708 18.056a5.911 5.911 0 0 0 .15.916 38.172 38.172 0 0 0 15.4 22.364l9.745 6.728a40.479 40.479 0 0 1 14.95 47.462l-2.734 7.349-15.6 27.064c-2.83-7.802-8.21-15.235-16.026-22.045zm178.322 40.309h-36.539a62.527 62.527 0 0 0 -2.247-43.384 6 6 0 0 0 -11.014 4.763 50.457 50.457 0 0 1 .519 38.621h-109.682l22.915-39.767a5.9 5.9 0 0 0 .425-.9l2.909-7.819a52.452 52.452 0 0 0 -4.854-46.412q1.3.764 2.649 1.523c22.6 12.728 58.851 26.469 110.066 26.469q11.88 0 24.853-1.048zm0-80c-61.645 5.277-103.732-9.724-128.4-23.484a146.661 146.661 0 0 1 -33.924-25.606 26.029 26.029 0 0 0 14.988-23.542v-23.469a80.934 80.934 0 0 0 56.672-.065v23.534a26.029 26.029 0 0 0 26 26h26.964a37.746 37.746 0 0 1 37.7 37.7z" fill="url(#linear-gradient)"/><path d="m290.406 161.189a18.924 18.924 0 0 0 -18.9 18.9 6 6 0 0 0 12 0 6.9 6.9 0 0 1 13.805 0 6 6 0 0 0 12 0 18.924 18.924 0 0 0 -18.905-18.9z" fill="url(#linear-gradient-2)"/><path d="m234.5 186.091a6 6 0 0 0 6-6 18.9 18.9 0 0 0 -37.805 0 6 6 0 0 0 12 0 6.9 6.9 0 0 1 13.805 0 6 6 0 0 0 6 6z" fill="url(#linear-gradient-3)"/><path d="m273.268 224.182a24.449 24.449 0 0 1 -34.536 0 6 6 0 1 0 -8.484 8.485 36.46 36.46 0 0 0 51.5 0 6 6 0 1 0 -8.484-8.485z" fill="url(#linear-gradient-4)"/><path d="m189.325 385.089c-10.9-4.99-17.6-11.482-19.927-19.293-3.4-11.438 3.523-22.624 3.623-22.781a6 6 0 0 0 -10.1-6.477c-.41.635-9.972 15.762-5.064 32.536 3.318 11.343 12.225 20.4 26.474 26.927a6 6 0 0 0 5-10.912z" fill="url(#linear-gradient-5)"/></svg>