<svg id="Layer_1" height="512" viewBox="0 0 512 512" width="512" xmlns="http://www.w3.org/2000/svg" xmlns:xlink="http://www.w3.org/1999/xlink" data-name="Layer 1"><linearGradient id="linear-gradient" gradientUnits="userSpaceOnUse" x1="256" x2="256" y1="455" y2="100.639"><stop offset=".322" stop-color="#a163f5"/><stop offset=".466" stop-color="#b074ee"/><stop offset=".752" stop-color="#d8a1dd"/><stop offset=".898" stop-color="#efbad3"/></linearGradient><linearGradient id="linear-gradient-2" xlink:href="#linear-gradient" y1="455" y2="100.639"/><linearGradient id="linear-gradient-3" xlink:href="#linear-gradient" y1="455" y2="100.638"/><linearGradient id="linear-gradient-5" x1="290.406" x2="290.406" xlink:href="#linear-gradient" y1="455" y2="100.64"/><linearGradient id="linear-gradient-6" x1="221.594" x2="221.594" xlink:href="#linear-gradient" y1="455" y2="100.64"/><path d="m337.3 312.755-30.019-.344a53.2 53.2 0 0 0 -6.787-12.555l-3.351-4.594v-13.062c11.79-8.017 19.92-19.4 22.038-32.281a80.916 80.916 0 0 0 17.614-50.333v-.023c.522.04 1.044.066 1.567.066a20.711 20.711 0 0 0 20.523-23.624 20.544 20.544 0 0 0 -6.3-12.12v-41.172a26.389 26.389 0 0 0 -22.771-26.1 80.75 80.75 0 0 0 -147.6-.044 26.387 26.387 0 0 0 -23.117 26.147v41.335a20.545 20.545 0 0 0 -6.131 11.959 20.711 20.711 0 0 0 20.522 23.624c.577 0 1.152-.033 1.725-.081v.038a80.916 80.916 0 0 0 17.614 50.333c2.118 12.885 10.248 24.264 22.038 32.281v13.061l-3.35 4.593a53.2 53.2 0 0 0 -6.788 12.554l-30.019.345a49.76 49.76 0 0 0 -49.7 49.7v94.932a6 6 0 0 0 6 6h249.992a6 6 0 0 0 6-6v-94.931a49.76 49.76 0 0 0 -49.7-49.704zm6.583-140.567a8.691 8.691 0 0 1 -2.189 14.788 8.818 8.818 0 0 1 -4.9.5v-15.956a6.42 6.42 0 0 1 5.932-.092 5.95 5.95 0 0 0 1.154.76zm-3.3-49.475v36.021a18.373 18.373 0 0 0 -3.79.241v-29.575a80.639 80.639 0 0 0 -2.107-18.259 14.327 14.327 0 0 1 5.896 11.572zm-165.375 64.727a8.8 8.8 0 0 1 -5.056-.464 8.7 8.7 0 0 1 -1.648-15.205 6.373 6.373 0 0 1 6.7-.16zm0-58.039v29.599a18.32 18.32 0 0 0 -4.116-.258v-36.029a14.345 14.345 0 0 1 6.291-11.866 80.666 80.666 0 0 0 -2.175 18.553zm-.208 321.99h-38v-88.932a37.746 37.746 0 0 1 37.7-37.7h.3zm27.256-109.548v109.548h-15.256v-126.636h14.689a52.7 52.7 0 0 0 .631 16.258 5.985 5.985 0 0 0 -.064.83zm-15.048-142.255v-70.188a68.792 68.792 0 1 1 137.584 0v70.187a68.937 68.937 0 0 1 -7.171 30.547c-7.221-21.866-32.109-38.034-61.621-38.034s-54.4 16.167-61.621 38.034a68.937 68.937 0 0 1 -7.171-30.546zm17.048 43.625c0-21.567 23.212-39.112 51.744-39.112s51.744 17.545 51.744 39.112-23.212 39.113-51.744 39.113-51.744-17.546-51.744-39.113zm80.884 45.437v8.569a31.485 31.485 0 0 1 -16.186 27.507l-12.954 7.196-12.954-7.2a31.485 31.485 0 0 1 -16.186-27.507v-8.565a77.639 77.639 0 0 0 58.28 0zm-67.444 24a43.485 43.485 0 0 0 19.522 22.562l10.13 5.628-16.382 25.285a.349.349 0 0 1 -.3.175.359.359 0 0 1 -.319-.137l-7.457-8.9a40.9 40.9 0 0 1 -5.194-44.611zm79.613 138.737h-83.053v-85.742l6.891 8.228a12.262 12.262 0 0 0 9.469 4.433q.391 0 .785-.025a12.267 12.267 0 0 0 9.636-5.628l14.963-23.095 14.962 23.094a12.269 12.269 0 0 0 9.637 5.629q.393.026.785.025a12.26 12.26 0 0 0 9.469-4.434l6.456-7.707zm.4-111.685a5.956 5.956 0 0 0 -.369 1.536c-.083.319-.158.64-.249.959a40.612 40.612 0 0 1 -7.98 15.064l-7.457 8.9a.347.347 0 0 1 -.319.138.351.351 0 0 1 -.3-.176l-16.381-25.284 10.13-5.628a43.485 43.485 0 0 0 19.516-22.557 40.517 40.517 0 0 1 3.408 27.052zm27.291 111.689h-15.691v-108.565a52.764 52.764 0 0 0 1-18.072h14.691zm50 0h-38v-126.636h.3a37.746 37.746 0 0 1 37.7 37.7z" fill="url(#linear-gradient)"/><path d="m256 380.381a7.279 7.279 0 1 0 7.279 7.278 7.287 7.287 0 0 0 -7.279-7.278z" fill="url(#linear-gradient-2)"/><circle cx="256" cy="425.476" fill="url(#linear-gradient-3)" r="7.279"/><path d="m260.84 252.835a23.728 23.728 0 1 0 17.06-40.346h-43.666a23.725 23.725 0 1 0 16.777 40.5l.046-.046a3.976 3.976 0 0 1 2.693-1.251h4.691a3.529 3.529 0 0 1 2.399 1.143zm-18.295-8.352-.036.037a11.729 11.729 0 1 1 -8.275-20.031h43.627a11.724 11.724 0 1 1 -8.462 19.936 15.326 15.326 0 0 0 -10.958-4.734h-4.691a15.8 15.8 0 0 0 -11.205 4.792z" fill="url(#linear-gradient-2)"/><path d="m277.5 174.05a6 6 0 0 0 6-6 6.9 6.9 0 0 1 13.805 0 6 6 0 0 0 12 0 18.9 18.9 0 0 0 -37.805 0 6 6 0 0 0 6 6z" fill="url(#linear-gradient-5)"/><path d="m214.691 168.05a6.9 6.9 0 0 1 13.805 0 6 6 0 0 0 12 0 18.9 18.9 0 0 0 -37.805 0 6 6 0 0 0 12 0z" fill="url(#linear-gradient-6)"/><path d="m269.9 231.9a6 6 0 0 0 -6-6h-15.8a6 6 0 0 0 0 12h15.8a6 6 0 0 0 6-6z" fill="url(#linear-gradient-2)"/></svg>