<svg id="Layer_1" height="512" viewBox="0 0 512 512" width="512" xmlns="http://www.w3.org/2000/svg" xmlns:xlink="http://www.w3.org/1999/xlink" data-name="Layer 1"><linearGradient id="linear-gradient" gradientUnits="userSpaceOnUse" x1="256" x2="256" y1="457" y2="105.95"><stop offset=".322" stop-color="#a163f5"/><stop offset=".466" stop-color="#b074ee"/><stop offset=".752" stop-color="#d8a1dd"/><stop offset=".898" stop-color="#efbad3"/></linearGradient><linearGradient id="linear-gradient-2" x1="221.661" x2="221.661" xlink:href="#linear-gradient" y1="457.001" y2="105.95"/><linearGradient id="linear-gradient-3" x1="289.894" x2="289.894" xlink:href="#linear-gradient" y1="457.001" y2="105.95"/><linearGradient id="linear-gradient-4" x1="258.801" x2="258.801" xlink:href="#linear-gradient" y1="457" y2="105.95"/><linearGradient id="linear-gradient-5" x1="256.717" x2="256.717" xlink:href="#linear-gradient" y1="457" y2="105.949"/><path d="m340.681 320.346h-21.4q-2.46-1.878-5.049-3.616l-13.659-16.19v-18.64a66.2 66.2 0 0 0 27.817-33.531 43.715 43.715 0 0 0 22.19-37.932v-6.925a19.294 19.294 0 0 0 .893-9.081 20.051 20.051 0 0 0 -.893-3.639v-70.049a68.024 68.024 0 0 0 -36.9-60.256 76.738 76.738 0 0 0 -56.85-25.241h-.037a76.733 76.733 0 0 0 -56.975 25.34 68.023 68.023 0 0 0 -36.71 60.157v66.124a19.5 19.5 0 0 0 0 20.557v3.017a43.262 43.262 0 0 0 21.872 37.737 66.361 66.361 0 0 0 26.552 32.869v19.493l-13.522 16.027q-2.718 1.808-5.287 3.779h-21.4a51.581 51.581 0 0 0 -51.523 51.522v98.885a6 6 0 0 0 6 6h260.4a6 6 0 0 0 6-6v-98.885a51.581 51.581 0 0 0 -51.519-51.522zm-25.615 11.954a85.7 85.7 0 0 1 27.657 43.005l-24.861 11.376-8.424-6.967c2.973-19.944 4.715-36.996 5.628-47.414zm-11.38-9.459c-3.661 22.978-9.952 33.446-15.666 40.08a37.147 37.147 0 0 0 -2.01-3.71 38.573 38.573 0 0 0 -16.526-14.511 75.249 75.249 0 0 0 26.881-30.531zm28.7-93.674c.042-.739.089-1.478.107-2.222l.215-10.195a19.7 19.7 0 0 0 5.387-.939 31.673 31.673 0 0 1 -5.71 13.357zm2.584-24.959a7.82 7.82 0 0 1 -2.008.5l.308-14.6a5.117 5.117 0 0 1 3.132.862 7.577 7.577 0 0 1 -1.432 13.241zm3.61-83.466v58.108a17.17 17.17 0 0 0 -5.057-.778l1.056-50.09c0-.042 0-.084 0-.126a52.009 52.009 0 0 0 -10.915-31.8 37.488 37.488 0 0 1 -7.564-19.974 56.021 56.021 0 0 1 22.479 44.661zm-113.846-64.993a64.711 64.711 0 0 1 32.056-8.5h.031a64.715 64.715 0 0 1 31.511 8.232v8.443a21.539 21.539 0 0 1 -21.49 21.538h-20.617a21.539 21.539 0 0 1 -21.491-21.538zm-51.476 145.357a7.572 7.572 0 0 1 2.178-10.139 5.4 5.4 0 0 1 5.473-.263v13.971a7.69 7.69 0 0 1 -4.04-.465 7.356 7.356 0 0 1 -2.516-1.687 6 6 0 0 0 -1.095-1.417zm2.408 15.224a19.605 19.605 0 0 0 4.109.452c.379 0 .757-.015 1.134-.037v8.62c0 1.167.033 2.326.093 3.478a31.269 31.269 0 0 1 -5.336-12.513zm5.243-88.474v50.408a17.376 17.376 0 0 0 -5.8.122v-57.643a56.017 56.017 0 0 1 22.571-44.731v.755a29.611 29.611 0 0 1 -6.9 18.5c-6.736 8.207-9.871 18.564-9.871 32.589zm12 97.509v-41.065a30.183 30.183 0 0 0 58.441-2.918h8.85a30.233 30.233 0 1 0 0-12h-8.85a30.183 30.183 0 0 0 -58.441-2.918v-38.608c0-11.1 2.271-19.04 7.146-24.989a41.626 41.626 0 0 0 9.618-26.052l.037-9.228q1.475-1.565 3.041-3.02a33.545 33.545 0 0 0 33.474 32.892h20.617a33.55 33.55 0 0 0 33.486-33.369c1.258 1.144 2.466 2.351 3.638 3.6v5.095a50 50 0 0 0 10.234 30.644 39.958 39.958 0 0 1 8.384 24.367l-1.161 55.061c-.147.138-.3.265-.447.41l.43.431-.906 42.977a54 54 0 0 1 -53.984 52.69h-19.6a54.061 54.061 0 0 1 -54.007-54zm10.658-49.985a18.191 18.191 0 1 1 18.192 18.233 18.233 18.233 0 0 1 -18.192-18.233zm68.038 0a18.191 18.191 0 1 1 18.195 18.233 18.232 18.232 0 0 1 -18.195-18.233zm-55.87 138.784a75.277 75.277 0 0 0 26.908 30.548 38.8 38.8 0 0 0 -18.587 18.179c-5.708-6.636-11.986-17.106-15.642-40.049zm-18.8 18.137c.913 10.417 2.655 27.469 5.628 47.414l-8.424 6.967-24.86-11.376a85.7 85.7 0 0 1 27.655-43.006zm-65.135 132.452v-92.885a39.566 39.566 0 0 1 39.522-39.522h8.308a97.81 97.81 0 0 0 -22.93 43.737l-.29 1.249a6 6 0 0 0 3.348 6.814l24.107 11.032-20.311 16.8a6 6 0 0 0 -2.085 5.667 168.858 168.858 0 0 0 15.707 47.111zm58.958 0a156.85 156.85 0 0 1 -16.829-45.784l30.822-25.489c4.488 26.734 10.026 50.631 16.517 71.273zm57.805 0h-14.7c-7.649-23.441-14.012-51.5-18.927-83.488-.679-4.418-1.3-8.7-1.858-12.816a84.892 84.892 0 0 0 6.994 7.7c.869.873 1.7 1.7 2.466 2.529a6.049 6.049 0 0 0 4.42 1.932 5.976 5.976 0 0 0 5.96-5.661c.045-.632 1.124-13.22 15.645-19.76zm-25.031-163.07v-14.605a65.664 65.664 0 0 0 23.38 4.287h19.6a66.019 66.019 0 0 0 22.061-3.77v14.09c-8.008 22.649-24.228 32.911-32.491 36.819a63.943 63.943 0 0 1 -32.553-36.821zm37.031 163.07v-110.744c17.353 6.051 18.579 20.258 18.624 20.883a6 6 0 0 0 10.382 3.783c.771-.827 1.6-1.656 2.466-2.528a85.491 85.491 0 0 0 6.865-7.547c-.556 4.069-1.166 8.3-1.837 12.664-4.915 31.993-11.279 60.049-18.927 83.488zm30.175 0c6.491-20.641 12.029-44.538 16.517-71.273l30.822 25.489a156.845 156.845 0 0 1 -16.828 45.784zm89.468 0h-45.38a168.856 168.856 0 0 0 15.706-47.111 6 6 0 0 0 -2.085-5.667l-20.311-16.8 24.107-11.032a6 6 0 0 0 3.348-6.814l-.291-1.253a97.8 97.8 0 0 0 -22.926-43.733h8.307a39.566 39.566 0 0 1 39.519 39.525z" fill="url(#linear-gradient)"/><path d="m237.916 169.408a6 6 0 1 0 -12 0 4.256 4.256 0 1 1 -8.511 0 6 6 0 0 0 -12 0 16.256 16.256 0 1 0 32.511 0z" fill="url(#linear-gradient-2)"/><path d="m306.149 169.408a6 6 0 0 0 -12 0 4.255 4.255 0 1 1 -8.51 0 6 6 0 0 0 -12 0 16.255 16.255 0 1 0 32.51 0z" fill="url(#linear-gradient-3)"/><path d="m256.348 240.834c.407.025.812.038 1.218.038a19.7 19.7 0 0 0 13.02-4.941l1.077-.958a27.552 27.552 0 0 0 16.5 5.475h.879a6 6 0 0 0 6-6v-5.748a22.985 22.985 0 0 0 -22.942-22.971h-26.593a22.986 22.986 0 0 0 -22.945 22.971v5.745a6 6 0 0 0 6 6 22.9 22.9 0 0 0 14.973-5.532 19.537 19.537 0 0 0 12.813 5.921zm-17.715-18.716-.814 1.268a11.031 11.031 0 0 1 -3.041 3.141 10.972 10.972 0 0 1 10.729-8.8h26.593a10.97 10.97 0 0 1 10.885 9.835 15.6 15.6 0 0 1 -6.678-4.586 6 6 0 0 0 -8.548-.587l-5.143 4.572a7.579 7.579 0 0 1 -5.5 1.894 7.554 7.554 0 0 1 -5.574-3.018l-3.05-4.074a6 6 0 0 0 -4.8-2.4c-.073 0-.145 0-.216 0a6 6 0 0 0 -4.843 2.755z" fill="url(#linear-gradient-4)"/><path d="m264.276 260.9a6 6 0 0 0 0-12h-15.119a6 6 0 0 0 0 12z" fill="url(#linear-gradient-5)"/></svg>