<svg id="Layer_1" height="512" viewBox="0 0 512 512" width="512" xmlns="http://www.w3.org/2000/svg" xmlns:xlink="http://www.w3.org/1999/xlink" data-name="Layer 1"><linearGradient id="linear-gradient" gradientUnits="userSpaceOnUse" x1="256" x2="256" y1="471" y2="83.495"><stop offset=".322" stop-color="#a163f5"/><stop offset=".466" stop-color="#b074ee"/><stop offset=".752" stop-color="#d8a1dd"/><stop offset=".898" stop-color="#efbad3"/></linearGradient><linearGradient id="linear-gradient-2" x1="290.406" x2="290.406" xlink:href="#linear-gradient" y1="471" y2="83.496"/><linearGradient id="linear-gradient-3" x1="221.594" x2="221.594" xlink:href="#linear-gradient" y1="471" y2="83.496"/><linearGradient id="linear-gradient-4" xlink:href="#linear-gradient" y1="471" y2="83.494"/><linearGradient id="linear-gradient-5" x1="202.162" x2="202.162" xlink:href="#linear-gradient" y1="471" y2="83.495"/><linearGradient id="linear-gradient-6" x1="329.503" x2="329.503" xlink:href="#linear-gradient" y1="471" y2="83.495"/><path d="m337.3 330.514h-26.964a14.017 14.017 0 0 1 -14-14v-29.19a81.378 81.378 0 0 0 21.979-18.609 127.109 127.109 0 0 0 30.5-23.788c.187 4.952.294 10.037.294 15.3a6 6 0 0 0 12 0q0-15.054-1.034-29.063a126.967 126.967 0 1 0 -167.075 36.675 81.454 81.454 0 0 0 22.667 19.47v29.2a14.017 14.017 0 0 1 -14 14h-26.967a49.76 49.76 0 0 0 -49.7 49.7v94.932a6 6 0 0 0 6 6h250a6 6 0 0 0 6-6v-94.924a49.76 49.76 0 0 0 -49.7-49.703zm-12.505-175.34a39.969 39.969 0 0 0 -68.7 21 39.973 39.973 0 0 0 -68.886-20.8v-17.859c32.662-6.369 52.34-19.36 63.607-30.156a77.481 77.481 0 0 0 16.724-22.774c14.577 7.284 38.938 22.114 57.252 56.827zm-1.2 27.3a28 28 0 1 1 -28-28 28.031 28.031 0 0 1 27.999 27.999zm-79 0a28 28 0 1 1 -28-28 28.031 28.031 0 0 1 27.999 27.999zm87.537 61.888a80.384 80.384 0 0 0 4.661-27.014v-47.082c5.148 16.042 9.039 34.989 10.966 57.391a114.956 114.956 0 0 1 -15.628 16.704zm-69.432-201.336a114.953 114.953 0 0 1 95.376 168.518c-4.944-37.223-15.912-68.162-32.8-92.333-19.413-27.785-42.634-40.855-58.412-48.269a16.96 16.96 0 0 1 -4.164-27.916zm-121.252 114.806a115.129 115.129 0 0 1 106.44-114.661 29.067 29.067 0 0 0 9.054 35.782c-5.259 11.637-26.086 44.571-94.675 49.79a6 6 0 0 0 .449 11.984c.153 0 .307-.006.461-.018 4.175-.318 8.177-.74 12.031-1.247v37.293a18.114 18.114 0 0 0 -13.529 2.905 20.553 20.553 0 0 0 -8.718 14.1 20.712 20.712 0 0 0 20.523 23.625c.576 0 1.151-.033 1.724-.081v.038a80.416 80.416 0 0 0 4.283 25.9 115.257 115.257 0 0 1 -38.043-85.41zm33.76 31.538v15.83a8.81 8.81 0 0 1 -5.056-.463 8.7 8.7 0 0 1 -1.649-15.2 6.371 6.371 0 0 1 6.705-.167zm12 27.977v-7.772a39.973 39.973 0 0 0 68.886-20.8 39.969 39.969 0 0 0 68.7 21v7.575a68.792 68.792 0 1 1 -137.584 0zm107.675 120.061a48.406 48.406 0 0 1 -10.018 26.374l-.031.04a36.389 36.389 0 0 1 -57.436 0 49.625 49.625 0 0 1 -10.24-26.439 25.977 25.977 0 0 0 10.506-20.865v-23.518a80.691 80.691 0 0 0 56.672.008v23.51a25.976 25.976 0 0 0 10.547 20.89zm-93.219 5.106a26.181 26.181 0 0 0 3.965-.3 61.7 61.7 0 0 0 12.3 28.976 48.083 48.083 0 0 0 38.188 18.673 48.081 48.081 0 0 0 38.156-18.631l.032-.04a60.476 60.476 0 0 0 12.145-28.968 26.067 26.067 0 0 0 3.885.292h23.125a88.15 88.15 0 0 1 -17.052 37.863l-.349.446a76.388 76.388 0 0 1 -120.231-.441 89.42 89.42 0 0 1 -17.18-37.868zm-35.055.884a101.435 101.435 0 0 0 19.75 44.354 88.388 88.388 0 0 0 139.126.5l.378-.481a100.2 100.2 0 0 0 19.627-44.348 37.351 37.351 0 0 1 7.658 2.6 108.573 108.573 0 0 1 -20.96 46.648l-.394.5a96.388 96.388 0 0 1 -151.75-.5 109.776 109.776 0 0 1 -21.088-46.691 37.387 37.387 0 0 1 7.653-2.58zm208.391 125.751h-36.539a62.533 62.533 0 0 0 -2.248-43.384 6 6 0 1 0 -11.013 4.764 50.45 50.45 0 0 1 .518 38.62h-139.436a50.45 50.45 0 0 1 .518-38.62 6 6 0 1 0 -11.013-4.764 62.533 62.533 0 0 0 -2.248 43.384h-36.539v-88.932a37.585 37.585 0 0 1 11.275-26.857 121.673 121.673 0 0 0 22.3 46.674 108.386 108.386 0 0 0 170.644.562l.423-.538a120.5 120.5 0 0 0 22.19-46.6 37.584 37.584 0 0 1 11.168 26.759z" fill="url(#linear-gradient)"/><path d="m290.406 161.906a18.924 18.924 0 0 0 -18.9 18.9 6 6 0 0 0 12 0 6.9 6.9 0 1 1 13.8 0 6 6 0 0 0 12 0 18.924 18.924 0 0 0 -18.9-18.9z" fill="url(#linear-gradient-2)"/><path d="m202.692 180.809a6 6 0 0 0 12 0 6.9 6.9 0 1 1 13.8 0 6 6 0 0 0 12 0 18.9 18.9 0 1 0 -37.8 0z" fill="url(#linear-gradient-3)"/><path d="m281.752 238.385a6 6 0 1 0 -8.485-8.485 24.449 24.449 0 0 1 -34.534 0 6 6 0 1 0 -8.485 8.485 36.46 36.46 0 0 0 51.5 0z" fill="url(#linear-gradient-4)"/><path d="m169.82 115.178c.141 0 .283-.006.426-.015a103.107 103.107 0 0 0 29.381-7.408c20.735-8.625 34.772-23.007 40.6-41.593a6 6 0 0 0 -11.451-3.588c-11.477 36.632-58.7 40.568-59.37 40.618a6 6 0 0 0 .419 11.986z" fill="url(#linear-gradient-5)"/><path d="m310.715 89.351c1.067.356 26.169 9.014 29.742 35.807a6 6 0 0 0 11.894-1.586c-4.586-34.4-36.543-45.183-37.9-45.625a6 6 0 0 0 -3.734 11.4z" fill="url(#linear-gradient-6)"/></svg>