<svg id="Layer_1" height="512" viewBox="0 0 512 512" width="512" xmlns="http://www.w3.org/2000/svg" xmlns:xlink="http://www.w3.org/1999/xlink" data-name="Layer 1"><linearGradient id="linear-gradient" gradientUnits="userSpaceOnUse" x1="256" x2="256" y1="465" y2="86.978"><stop offset=".322" stop-color="#a163f5"/><stop offset=".466" stop-color="#b074ee"/><stop offset=".752" stop-color="#d8a1dd"/><stop offset=".898" stop-color="#efbad3"/></linearGradient><linearGradient id="linear-gradient-2" x1="241.584" x2="241.584" xlink:href="#linear-gradient" y1="465" y2="86.978"/><linearGradient id="linear-gradient-3" x1="348.606" x2="348.606" xlink:href="#linear-gradient" y1="465" y2="86.978"/><linearGradient id="linear-gradient-4" x1="290.406" x2="290.406" xlink:href="#linear-gradient" y1="465" y2="86.98"/><linearGradient id="linear-gradient-5" x1="221.594" x2="221.594" xlink:href="#linear-gradient" y1="465" y2="86.98"/><linearGradient id="linear-gradient-6" xlink:href="#linear-gradient" y1="465.001" y2="86.979"/><path d="m337.3 327.113h-7.966v-12.195a32.293 32.293 0 0 0 -12.221-25.218 26.793 26.793 0 0 0 -18.083-6.957h-.721a80.807 80.807 0 0 0 38.483-68.792v-.022c.521.039 1.043.065 1.567.065a20.711 20.711 0 0 0 20.523-23.624 20.55 20.55 0 0 0 -8.718-14.106c-.068-.047-.14-.085-.209-.131a137.142 137.142 0 0 0 3.091-55.8c-2.453-16.076-18.874-40.843-21.794-44.73-1.126-1.5-1.692-2.256-16.724-7.442l-.107-.036a3.5 3.5 0 0 1 -2.43-3.343 15.468 15.468 0 0 0 -6.181-12.4 90.4 90.4 0 0 0 -54.142-18.126c-53.085 0-96.274 47.017-96.274 104.808a112.371 112.371 0 0 0 6.249 37.229 20.551 20.551 0 0 0 -8.682 14.076 20.712 20.712 0 0 0 20.524 23.625c.576 0 1.15-.033 1.723-.081v.038a80.807 80.807 0 0 0 38.483 68.792h-.715a26.8 26.8 0 0 0 -18.089 6.956 32.3 32.3 0 0 0 -12.218 25.224v12.195h-7.969a49.76 49.76 0 0 0 -49.7 49.7v94.933a6 6 0 0 0 6 6h250a6 6 0 0 0 6-6v-94.935a49.76 49.76 0 0 0 -49.7-49.703zm-145.529 138.636h-54.771v-88.933a37.746 37.746 0 0 1 37.7-37.7h9.561a37.53 37.53 0 0 0 7.507 13.711zm107-171.011a20.1 20.1 0 0 1 10.456 4q.2.186.4.381a14.9 14.9 0 0 1 4.4 10.609v.542a15.675 15.675 0 0 1 -10.783 14.9 13.974 13.974 0 0 1 -6.9-12.063v-18.369zm48.236-102.648a8.7 8.7 0 0 1 -5.316 9.243 8.818 8.818 0 0 1 -4.9.5v-15.954a6.364 6.364 0 0 1 6.547.25 8.68 8.68 0 0 1 3.669 5.961zm-171.766 9.7a8.811 8.811 0 0 1 -5.089-.456 8.7 8.7 0 0 1 -1.649-15.2 6.38 6.38 0 0 1 6.781-.117zm.077-28.417a18.306 18.306 0 0 0 -2.059-.25 100.368 100.368 0 0 1 -5.865-34.063c0-51.174 37.805-92.808 84.274-92.808a78.488 78.488 0 0 1 46.994 15.764 3.423 3.423 0 0 1 1.329 2.757 15.474 15.474 0 0 0 10.67 14.739c4.394 1.516 9.617 3.427 11.758 4.334 5.194 7.31 17.085 27.285 18.765 38.289a125.07 125.07 0 0 1 -2.849 51q-.774.066-1.543.2v-3.279l.035-4.235a19.759 19.759 0 0 0 -19.759-19.921 7.769 7.769 0 0 1 -7.76-7.76v-11.366a31.289 31.289 0 0 1 11.6 13.226 6 6 0 0 0 10.214 1.111c.517-.678 12.516-16.849.165-37.892a6 6 0 1 0 -10.348 6.074 25.325 25.325 0 0 1 3.805 14.975 44.049 44.049 0 0 0 -19.226-12.416 5.975 5.975 0 0 0 -.855-.266 44.437 44.437 0 0 0 -28.776 1.069 32.3 32.3 0 0 1 -32.728-5.717 8.734 8.734 0 0 0 -13 1.792c-6.745 10.221-15.88 21.477-24.336 27.557l1.082-15.681a6 6 0 0 0 -9.539-5.248 54.141 54.141 0 0 0 -22.006 43.462zm11.89 40.591.15-55.124a42.049 42.049 0 0 1 6.415-22.265l-.638 9.258a6 6 0 0 0 7.441 6.234c5.338-1.335 19.43-7.292 37.607-33.766a44.263 44.263 0 0 0 42.005 5.56 32.454 32.454 0 0 1 17.12-1.706v15.983a19.783 19.783 0 0 0 19.76 19.76 7.757 7.757 0 0 1 7.759 7.824l-.035 4.284v43.941a68.792 68.792 0 0 1 -137.584.017zm10.774 95.77a14.9 14.9 0 0 1 4.4-10.609q.195-.195.4-.381a20.1 20.1 0 0 1 10.456-4h2.432v18.375a13.974 13.974 0 0 1 -6.9 12.063 15.675 15.675 0 0 1 -10.783-14.9zm-3.222 20.766a27.4 27.4 0 0 0 18.779 7.436h28.239a7.965 7.965 0 1 1 0 15.93h-21.6a25.491 25.491 0 0 1 -25.418-23.366zm113.47 135.249h-104.459v-16.6a117.035 117.035 0 0 0 104.459-.472zm0-30.722a105.129 105.129 0 0 1 -104.459.547v-18.539a117.031 117.031 0 0 0 104.459-.473zm0-32.11a105.127 105.127 0 0 1 -104.459.547v-18.539a117.04 117.04 0 0 0 104.459-.473zm0-32.11a105.127 105.127 0 0 1 -104.459.546v-9.271a37.579 37.579 0 0 0 16.409 3.786h21.6a19.965 19.965 0 0 0 0-39.93h-17.49a25.986 25.986 0 0 0 3.374-12.825v-23.513a80.647 80.647 0 0 0 56.672 0v23.517a25.986 25.986 0 0 0 3.374 12.825h-3.524a19.965 19.965 0 0 0 0 39.93h7.634a37.586 37.586 0 0 0 16.41-3.786zm-4.121-20.087a25.534 25.534 0 0 1 -12.289 3.148h-7.634a7.965 7.965 0 0 1 0-15.93h14.275a27.4 27.4 0 0 0 18.779-7.438 25.544 25.544 0 0 1 -13.131 20.22zm70.891 115.029h-54.77v-112.925a37.542 37.542 0 0 0 7.506-13.711h9.564a37.746 37.746 0 0 1 37.7 37.7z" fill="url(#linear-gradient)"/><circle cx="241.584" cy="346.19" fill="url(#linear-gradient-2)" r="6.5"/><path d="m359.682 403.161h-22.152a6 6 0 0 0 0 12h22.152a6 6 0 0 0 0-12z" fill="url(#linear-gradient-3)"/><path d="m277.5 188.407a6 6 0 0 0 6-6 6.9 6.9 0 1 1 13.8 0 6 6 0 1 0 12 0 18.9 18.9 0 1 0 -37.8 0 6 6 0 0 0 6 6z" fill="url(#linear-gradient-4)"/><path d="m234.5 188.407a6 6 0 0 0 6-6 18.9 18.9 0 0 0 -37.8 0 6 6 0 1 0 12 0 6.9 6.9 0 1 1 13.8 0 6 6 0 0 0 6 6z" fill="url(#linear-gradient-5)"/><path d="m281.752 234.983a6 6 0 1 0 -8.485-8.484 24.42 24.42 0 0 1 -34.534 0 6 6 0 1 0 -8.485 8.484 36.416 36.416 0 0 0 51.5 0z" fill="url(#linear-gradient-6)"/></svg>