<svg id="Layer_1" height="512" viewBox="0 0 512 512" width="512" xmlns="http://www.w3.org/2000/svg" xmlns:xlink="http://www.w3.org/1999/xlink" data-name="Layer 1"><linearGradient id="linear-gradient" gradientUnits="userSpaceOnUse" x1="256" x2="256" y1="471" y2="83.495"><stop offset=".322" stop-color="#a163f5"/><stop offset=".466" stop-color="#b074ee"/><stop offset=".752" stop-color="#d8a1dd"/><stop offset=".898" stop-color="#efbad3"/></linearGradient><linearGradient id="linear-gradient-2" xlink:href="#linear-gradient" y1="471" y2="83.494"/><linearGradient id="linear-gradient-3" xlink:href="#linear-gradient" y1="471" y2="83.495"/><linearGradient id="linear-gradient-4" x1="295.88" x2="295.88" xlink:href="#linear-gradient" y1="471.001" y2="83.496"/><linearGradient id="linear-gradient-5" x1="216.307" x2="216.307" xlink:href="#linear-gradient" y1="471.001" y2="83.496"/><linearGradient id="linear-gradient-6" x1="255.596" x2="255.596" xlink:href="#linear-gradient" y1="471" y2="83.496"/><path d="m338.916 322.284c-.783-6.7-3.793-12.033-7.387-16.557 8.009-4.956 16.462-11.632 18.194-24.79 1.768-13.425-4.842-22.017-11.457-28.976a50.741 50.741 0 0 0 8.058-8.621 50.172 50.172 0 0 0 8.156-42.811l-2.819-10.635a6.044 6.044 0 0 0 -.5-1.269 19.309 19.309 0 0 0 .457-8.187 12.887 12.887 0 0 0 -1.618-5.146v-50.03a86.13 86.13 0 0 0 -86.015-86.14 102.564 102.564 0 0 0 -53.326 14.908c-29.537 17.948-47.541 49.826-48.688 84.2-3.069.845-6.146 1.619-9.269 2.3a6 6 0 1 0 2.577 11.722c2.36-.515 4.7-1.085 7.032-1.687.129 1.516.28 3.033.475 4.552l.467 3.632c-8.413 1.717-13.659 2.367-13.779 2.381a6 6 0 1 0 1.416 11.916c.47-.056 5.088-.623 12.471-2.058a19.517 19.517 0 0 0 -3.969 9.447 18.268 18.268 0 0 0 4.608 15.5v10.814a56.449 56.449 0 0 0 29.947 49.721 77.038 77.038 0 0 0 21.717 20.185v19.285a35.306 35.306 0 0 0 -24.81 26.3h-16.154a49.76 49.76 0 0 0 -49.7 49.7v94.932a6 6 0 0 0 6 6h250a6 6 0 0 0 6-6v-94.926a49.753 49.753 0 0 0 -48.084-49.662zm-1.09-42.914c-.772 5.87-3.48 9.534-7.819 12.882l.955-6.7a6 6 0 0 0 -11.881-1.691l-1.012 7.1c-3.484-4.467-5.249-8.768-4.459-14.776 1.12-8.509 6.284-12.388 14.628-17.376.237.255.466.515.708.766 6.703 6.95 9.916 11.925 8.88 19.795zm-41.49 38.873v-9.543a23.159 23.159 0 0 1 6.945 4.9 30.707 30.707 0 0 0 1.44 32.563 24.789 24.789 0 0 0 -2.364 1.045l-.593.305a13.046 13.046 0 0 0 -6.764 9.761l-.838 5.621-20.732-11.4a35.709 35.709 0 0 0 22.906-33.252zm-31.836 23.257a58.685 58.685 0 0 1 -17.009 0 23.5 23.5 0 0 1 -19.831-23.252v-35.548a75.617 75.617 0 0 0 56.672-.355v35.9a23.5 23.5 0 0 1 -19.832 23.255zm31.832-45.55v-19.879c2.021-1.3 3.985-2.681 5.871-4.161-.188.872-.358 1.772-.482 2.707-1.732 13.159 4.7 21.8 11.153 28.657-.558.413-1.107.845-1.653 1.287a35.035 35.035 0 0 0 -14.885-8.616zm10.535 63.1a1.453 1.453 0 0 1 .38-.859l.6-.307c5.259-2.7 11.179-1.46 15.448 3.249l.474.521a1.959 1.959 0 0 1 .335 1.482l-.294 1.972a24.708 24.708 0 0 0 -12.909-3.686 23.982 23.982 0 0 0 -4.445.416zm17.191-22.793.3-2.3a6 6 0 0 0 -11.9-1.555l-.293 2.242a17.494 17.494 0 0 1 -.731-8.271c.882-6.706 4.281-10.536 9.765-14.3 4.323 5.055 6.615 9.634 5.734 16.339a17.5 17.5 0 0 1 -2.871 7.839zm-28.181-179.3a28.247 28.247 0 1 1 -28.243 28.243 28.279 28.279 0 0 1 28.247-28.245zm-39.787 22.16a40.371 40.371 0 0 0 -24.177-31.008c24.315-12.208 43.365-27.583 56.446-45.5.157 3.335.467 6.844 1 10.471a86.528 86.528 0 0 0 11.117 32.144 40.185 40.185 0 0 0 -44.382 33.89zm86.781 24.49a38.23 38.23 0 0 1 -6.213 32.619 38.789 38.789 0 0 1 -5.4 5.932c-.18-.377-.358-.756-.523-1.14a49.793 49.793 0 0 1 -2.662-7.454 75.321 75.321 0 0 0 2.927-21.123v-7.952c0-.525.659-1.059.924-1.6.071 0 .19.007.261.007a20.034 20.034 0 0 0 7.432-1.441 19.262 19.262 0 0 0 2.375-1.161zm-7.046-13.588a39.639 39.639 0 0 0 -.725-13.8 5.183 5.183 0 0 1 1.519.7 7.654 7.654 0 0 1 -.794 13.1zm-69.425-118.35a6 6 0 0 0 -8.4 1.2 179.617 179.617 0 0 1 -83.775 61.522 89.755 89.755 0 0 1 89.756-83.269 74.116 74.116 0 0 1 74.019 74.14v39.23c-21-10.9-33.21-28.6-36.836-52.727a97.95 97.95 0 0 1 1.136-34.765 6.006 6.006 0 0 0 -11.418-3.658c-14.664 38.08-52.011 59.868-80.759 71.448-1.138.458-2.27.9-3.4 1.332a39.926 39.926 0 0 0 -8.231 3.006c-8.491 2.937-16.5 5.212-23.483 6.956l-.32-2.5q-.418-3.243-.6-6.474a191.621 191.621 0 0 0 93.511-67.04 6 6 0 0 0 -1.2-8.401zm-95.223 110.493a7.662 7.662 0 0 1 3.237-5.263 5.158 5.158 0 0 1 2.719-.89 39.587 39.587 0 0 0 -.711 14.5c-.187-.06-.373-.114-.557-.188a7.676 7.676 0 0 1 -4.688-8.159zm4.823 24.594v-4.11a16.529 16.529 0 0 0 2.742.252 1.051 1.051 0 0 0 .258-.017v8.881a76.394 76.394 0 0 0 1.824 15.446 43.851 43.851 0 0 1 -4.824-20.452zm27.182-46.556q3.483-1.219 7.065-2.585a28.288 28.288 0 1 1 -7.065 2.585zm-11.639 56.69a40.212 40.212 0 0 0 64.551-25.6 40.214 40.214 0 0 0 62.829 26.882 63.676 63.676 0 0 1 -63.323 57.866 64.349 64.349 0 0 1 -64.057-59.146zm10.457 113.134a23.377 23.377 0 0 1 13.664-21.324v9.545a35.706 35.706 0 0 0 22.9 33.254l-36.564 20.101zm123.72 130.854h-139.439a50.455 50.455 0 0 1 .519-38.62 6 6 0 1 0 -11.014-4.764 62.538 62.538 0 0 0 -2.247 43.384h-36.539v-88.932a37.745 37.745 0 0 1 37.7-37.7h15.3v40.791a10 10 0 0 0 13.443 9.388 5.947 5.947 0 0 0 .825-.375l51.732-28.442 37.877 20.823c-6.669 8.191-9.841 16.389-9.416 24.4.6 11.271 8.224 21.012 22.668 28.954.131.072.265.139.4.2a28.906 28.906 0 0 1 14.893 20.907 6 6 0 0 0 4.845 4.933c.054.01.108.007.162.015a50.964 50.964 0 0 1 -1.709 5.038zm11.355-39.372-1.307 3.515-6.109 10.6a41.43 41.43 0 0 0 -16.89-16.431c-10.459-5.781-15.951-12.164-16.324-18.973-.418-7.647 5.559-15.531 10.99-20.879.131-.117.259-.241.381-.371a53.53 53.53 0 0 1 6.081-5.121l-.082-.117a12.489 12.489 0 0 1 2.2.767c0 2.943.131 5.9.38 8.813a5.93 5.93 0 0 0 .15.916 22.383 22.383 0 0 0 9.033 13.118l4.966 3.429a17.682 17.682 0 0 1 6.531 20.734zm37.925 39.372h-36.531a61.893 61.893 0 0 0 2.861-18.665 5.983 5.983 0 0 0 -.395-2.127l5.479-9.509a5.89 5.89 0 0 0 .425-.9l1.482-3.985a29.671 29.671 0 0 0 -10.959-34.792l-4.965-3.429a10.388 10.388 0 0 1 -4.087-5.687c-.035-.425-.057-.853-.085-1.28.238-.049.478-.089.715-.16a8.264 8.264 0 0 0 5.745-6.813l1.287-8.63a13.915 13.915 0 0 0 -3.313-11.308l-.474-.524a27.058 27.058 0 0 0 -4.063-3.641 29.808 29.808 0 0 0 9.855-15.165 37.739 37.739 0 0 1 37.023 37.683z" fill="url(#linear-gradient)"/><path d="m256 387.525a10.544 10.544 0 1 0 10.544 10.544 10.556 10.556 0 0 0 -10.544-10.544zm0 12a1.457 1.457 0 1 1 1.456-1.456 1.457 1.457 0 0 1 -1.456 1.456z" fill="url(#linear-gradient-2)"/><path d="m256 429.405a10.544 10.544 0 1 0 10.544 10.544 10.556 10.556 0 0 0 -10.544-10.544zm0 12a1.457 1.457 0 1 1 1.456-1.456 1.457 1.457 0 0 1 -1.456 1.456z" fill="url(#linear-gradient-3)"/><path d="m283.874 188.205a6 6 0 0 0 6-6 6.007 6.007 0 0 1 12.013 0 6 6 0 0 0 12 0 18.007 18.007 0 0 0 -36.013 0 6 6 0 0 0 6 6z" fill="url(#linear-gradient-4)"/><path d="m204.3 188.205a6 6 0 0 0 6-6 6.007 6.007 0 0 1 12.013 0 6 6 0 0 0 12 0 18.007 18.007 0 0 0 -36.013 0 6 6 0 0 0 6 6z" fill="url(#linear-gradient-5)"/><path d="m279.854 236.313a6 6 0 1 0 -8.485-8.486 22.331 22.331 0 0 1 -31.546 0 6 6 0 0 0 -8.485 8.486 34.347 34.347 0 0 0 48.516 0z" fill="url(#linear-gradient-6)"/></svg>