<svg id="Layer_1" height="512" viewBox="0 0 512 512" width="512" xmlns="http://www.w3.org/2000/svg" xmlns:xlink="http://www.w3.org/1999/xlink" data-name="Layer 1"><linearGradient id="linear-gradient" gradientUnits="userSpaceOnUse" x1="256" x2="256" y1="451" y2="68.168"><stop offset=".322" stop-color="#a163f5"/><stop offset=".466" stop-color="#b074ee"/><stop offset=".752" stop-color="#d8a1dd"/><stop offset=".898" stop-color="#efbad3"/></linearGradient><linearGradient id="linear-gradient-2" x1="280.398" x2="280.398" xlink:href="#linear-gradient" y1="451" y2="68.168"/><linearGradient id="linear-gradient-3" x1="280.398" x2="280.398" xlink:href="#linear-gradient" y1="451" y2="68.169"/><linearGradient id="linear-gradient-4" x1="290.406" x2="290.406" xlink:href="#linear-gradient" y1="451" y2="68.168"/><linearGradient id="linear-gradient-5" x1="221.594" x2="221.594" xlink:href="#linear-gradient" y1="451" y2="68.168"/><linearGradient id="linear-gradient-6" xlink:href="#linear-gradient" y1="451" y2="68.169"/><path d="m337.3 357.649h-26.964a14.016 14.016 0 0 1 -14-14v-29.207a81.364 81.364 0 0 0 33.156-36.464 100.278 100.278 0 0 0 23.888-159.839 101.038 101.038 0 0 0 -28.2-19.867l.195-.27a116.153 116.153 0 0 0 -21.852-12.465h28.553a11 11 0 1 0 0-12h-27.83a51.892 51.892 0 0 0 -4.509-45.32 52.285 52.285 0 0 0 -15.766-16.126 51.8 51.8 0 0 0 -52.906-2.127 52.15 52.15 0 0 0 -18.236 16.562 51.882 51.882 0 0 0 -5.6 47.011h-23.26a6 6 0 0 0 0 12h26.955a116.411 116.411 0 0 0 -69.756 107.816c-2.606.193-4.826.386-6.688.633a6 6 0 1 0 1.58 11.9c1.54-.2 3.55-.379 5.876-.552a116 116 0 0 0 42.894 77.345 81.383 81.383 0 0 0 30.837 31.778v29.2a14.016 14.016 0 0 1 -14 14h-26.967a49.76 49.76 0 0 0 -49.7 49.7v94.933a6 6 0 0 0 6 6h250a6 6 0 0 0 6-6v-94.938a49.76 49.76 0 0 0 -49.7-49.703zm-114.527-324.405a39.7 39.7 0 0 1 32.963-17.529 39.588 39.588 0 0 1 21.68 6.427 40.223 40.223 0 0 1 12.125 12.4 39.775 39.775 0 0 1 -2.266 45.115l.425.326a116.021 116.021 0 0 0 -56.239-1.183q-4.512 1.029-8.859 2.389c.037-.128.071-.255.1-.386l1.493-1.147a40.072 40.072 0 0 1 -2.363-3.442c-.007-.01-.013-.022-.02-.032a39.769 39.769 0 0 1 .962-42.936zm-67.325 180.392q-.975-4.575-1.542-9.169c6.261-.488 13.465-1.169 21.3-2.323v1.747a18.11 18.11 0 0 0 -13.529 2.9 20.548 20.548 0 0 0 -6.229 6.845zm9.388 8.99a8.677 8.677 0 0 1 3.667-5.96 6.371 6.371 0 0 1 6.705-.161v15.828a8.8 8.8 0 0 1 -5.056-.463 8.7 8.7 0 0 1 -5.316-9.244zm1.937 20.758a20.854 20.854 0 0 0 6.711 1.141c.577 0 1.151-.033 1.724-.081v.038a81.025 81.025 0 0 0 1.023 12.793 104.412 104.412 0 0 1 -9.458-13.891zm-13.643-50.892a104.074 104.074 0 0 1 121.227-103.16 54.411 54.411 0 0 0 -36.113 21.878 6 6 0 0 0 9.717 7.041 42.2 42.2 0 0 1 33.4-17.474l.9-.007a88.445 88.445 0 0 1 52.977 159.479 80.808 80.808 0 0 0 1.556-15.767v-.023c.522.04 1.044.066 1.567.066a20.714 20.714 0 0 0 20.521-23.625 20.55 20.55 0 0 0 -8.717-14.105 18.1 18.1 0 0 0 -13.373-2.926v-45.7a20.685 20.685 0 0 0 -20.662-20.669 8.025 8.025 0 0 1 -7.747-5.894c-4.275-15.761-17.222-23.383-17.771-23.7a6 6 0 0 0 -8.618 3.1c-25.862 69.167-93.285 78.681-128.864 81.486zm183.662 39.878v-15.956a6.359 6.359 0 0 1 6.548.252 8.7 8.7 0 0 1 -1.649 15.2 8.816 8.816 0 0 1 -4.899.504zm-149.584 12.112v-44.422a180.94 180.94 0 0 0 33.44-10c32.388-13.407 55.714-35.964 69.439-67.116a28.281 28.281 0 0 1 6.714 11.8 20.05 20.05 0 0 0 19.329 14.756 8.672 8.672 0 0 1 8.662 8.662v86.317a68.792 68.792 0 1 1 -137.584 0zm62.792 251.803h-66.314a52.443 52.443 0 0 1 .485-40.275 6 6 0 1 0 -11.013-4.763 64.516 64.516 0 0 0 -2.229 45.038h-33.929v-88.933a37.746 37.746 0 0 1 37.7-37.7h9.278a84.508 84.508 0 0 0 8.98 12.271 70.268 70.268 0 0 0 47.776 23.27l9.266 23.589zm.48-99.116a6 6 0 0 0 -5.5-3.806 58.444 58.444 0 0 1 -43.025-19.387c-1.229-1.391-2.388-2.844-3.508-4.327h3.216a26.03 26.03 0 0 0 26-26v-23.516a80.654 80.654 0 0 0 56.672 0v23.517a26.03 26.03 0 0 0 26 26h3.239q-2.005 2.658-4.25 5.13a57.737 57.737 0 0 1 -41.8 18.584 6 6 0 0 0 -5.462 3.72l-5.939 14.464zm124.52 99.116h-33.929a64.516 64.516 0 0 0 -2.229-45.038 6 6 0 0 0 -11.013 4.763 52.443 52.443 0 0 1 .485 40.275h-66.314v-67.454l9.708-23.642a69.649 69.649 0 0 0 46.492-22.334 84.481 84.481 0 0 0 9.834-13.206h9.266a37.746 37.746 0 0 1 37.7 37.7z" fill="url(#linear-gradient)"/><path d="m280.4 433.527a8.445 8.445 0 1 0 8.445 8.445 8.455 8.455 0 0 0 -8.445-8.445z" fill="url(#linear-gradient-2)"/><path d="m280.4 468.981a8.445 8.445 0 1 0 8.445 8.445 8.455 8.455 0 0 0 -8.445-8.445z" fill="url(#linear-gradient-3)"/><path d="m277.5 218.943a6 6 0 0 0 6-6 6.9 6.9 0 0 1 13.8 0 6 6 0 0 0 12 0 18.9 18.9 0 0 0 -37.8 0 6 6 0 0 0 6 6z" fill="url(#linear-gradient-4)"/><path d="m234.5 218.943a6 6 0 0 0 6-6 18.9 18.9 0 0 0 -37.8 0 6 6 0 0 0 12 0 6.9 6.9 0 0 1 13.8 0 6 6 0 0 0 6 6z" fill="url(#linear-gradient-5)"/><path d="m281.752 265.52a6 6 0 0 0 -8.485-8.485 24.449 24.449 0 0 1 -34.534 0 6 6 0 0 0 -8.485 8.485 36.46 36.46 0 0 0 51.5 0z" fill="url(#linear-gradient-6)"/></svg>