<svg id="Layer_1" height="512" viewBox="0 0 512 512" width="512" xmlns="http://www.w3.org/2000/svg" xmlns:xlink="http://www.w3.org/1999/xlink" data-name="Layer 1"><linearGradient id="linear-gradient" gradientUnits="userSpaceOnUse" x1="256" x2="256" y1="451" y2="68.168"><stop offset=".322" stop-color="#a163f5"/><stop offset=".466" stop-color="#b074ee"/><stop offset=".752" stop-color="#d8a1dd"/><stop offset=".898" stop-color="#efbad3"/></linearGradient><linearGradient id="linear-gradient-2" x1="290.406" x2="290.406" xlink:href="#linear-gradient" y1="451" y2="68.168"/><linearGradient id="linear-gradient-3" x1="221.594" x2="221.594" xlink:href="#linear-gradient" y1="451" y2="68.168"/><linearGradient id="linear-gradient-4" xlink:href="#linear-gradient" y1="451" y2="68.168"/><linearGradient id="linear-gradient-5" x1="292.535" x2="292.535" xlink:href="#linear-gradient" y1="451" y2="68.168"/><path d="m370.921 348.684v-239.693a83.2 83.2 0 0 0 -124.5-72.2 5.976 5.976 0 0 0 -1.691-.246h-14.957a76.953 76.953 0 0 0 -76.866 76.866v227.179a49.76 49.76 0 0 0 -27.907 44.657v94.933a6 6 0 0 0 6 6h250a6 6 0 0 0 6-6v-94.933a49.574 49.574 0 0 0 -16.079-36.563zm-206.014-235.272a64.939 64.939 0 0 1 64.866-64.866h.853a83.274 83.274 0 0 0 -15.73 20.3 6 6 0 1 0 10.505 5.8 71.181 71.181 0 0 1 133.52 34.349v231.505a49.388 49.388 0 0 0 -21.624-4.958h-.505v-180.835a16.018 16.018 0 0 0 -16-16h-55.224a32.223 32.223 0 0 1 -29.568-19.407 6 6 0 0 0 -11.115.262l-3.98 10.5a13.455 13.455 0 0 1 -12.516 8.641 22.2 22.2 0 0 0 -22.176 22.176v171.9c-.142.922-.265 1.842-.35 2.762h-11.163a49.725 49.725 0 0 0 -9.8.974zm42.661 188.244a5.994 5.994 0 0 0 -5.1 2.835l-4.261 6.87v-32.516a80.546 80.546 0 0 0 17.456 13.537v9.274zm8.1 12v7.888a14.163 14.163 0 0 1 -.165 2.046 32.088 32.088 0 0 1 -2.12-9.934zm-12.2 11.994a44.08 44.08 0 0 0 21.068 25.213l21.164 11.437a25.852 25.852 0 0 1 -33.445 4.238 32.07 32.07 0 0 1 -14.555-28.028 5.977 5.977 0 0 0 .509-2.413v-1.964zm26.773 14.656a32.443 32.443 0 0 1 -6.651-4.785 25.8 25.8 0 0 0 4.074-13.977v-23.492a80.9 80.9 0 0 0 56.672-.015v23.507a25.816 25.816 0 0 0 4.075 13.976 32.464 32.464 0 0 1 -6.652 4.786l-25.759 13.921zm57.223 10.557a44.08 44.08 0 0 0 21.068-25.213l5.361 8.645a32.094 32.094 0 0 1 -14.15 32.244 25.85 25.85 0 0 1 -33.443-4.239zm8.872-29.319v-7.888h2.285a32.088 32.088 0 0 1 -2.12 9.934 14.175 14.175 0 0 1 -.165-2.046zm13.195-17.05a6 6 0 0 0 -5.1-2.835h-8.1v-9.272a80.9 80.9 0 0 0 26.654-24.831c.623-.922 1.219-1.86 1.8-2.805v64.393c-.038-.067-.062-.14-.1-.206zm11.092-58.474a68.818 68.818 0 0 1 -122.323 13.83c-.029-.045-.062-.084-.092-.127v-98.84a10.188 10.188 0 0 1 10.176-10.176 25.527 25.527 0 0 0 23.436-15.631 44.215 44.215 0 0 0 33.748 15.631h55.224a4 4 0 0 1 4 4v67.67a68.582 68.582 0 0 1 -4.169 23.643zm54.377 228.16h-36.539a62.535 62.535 0 0 0 -2.248-43.385 6 6 0 1 0 -11.013 4.764 50.453 50.453 0 0 1 .518 38.621h-139.436a50.453 50.453 0 0 1 .518-38.621 6 6 0 1 0 -11.013-4.764 62.535 62.535 0 0 0 -2.248 43.385h-36.539v-88.933a37.746 37.746 0 0 1 37.7-37.7h11.668a44.057 44.057 0 0 0 19.313 29.035 37.593 37.593 0 0 0 25.746 5.938v56.44a6.981 6.981 0 0 0 5.386 10.556c.2.02.407.031.614.031s.412-.011.614-.031a6.981 6.981 0 0 0 5.386-10.556v-60.112a37.931 37.931 0 0 0 12.573-10.142 37.935 37.935 0 0 0 12.57 10.143v60.111a6.981 6.981 0 0 0 5.387 10.556c.2.02.406.031.613.031s.412-.011.614-.031a6.981 6.981 0 0 0 5.386-10.556v-56.442a37.614 37.614 0 0 0 25.746-5.939 44.054 44.054 0 0 0 19.313-29.035h11.671a37.746 37.746 0 0 1 37.7 37.7z" fill="url(#linear-gradient)"/><path d="m290.406 171.936a18.924 18.924 0 0 0 -18.9 18.9 6 6 0 0 0 12 0 6.9 6.9 0 1 1 13.8 0 6 6 0 0 0 12 0 18.924 18.924 0 0 0 -18.9-18.9z" fill="url(#linear-gradient-2)"/><path d="m234.5 196.838a6 6 0 0 0 6-6 18.9 18.9 0 0 0 -37.8 0 6 6 0 0 0 12 0 6.9 6.9 0 0 1 13.8 0 6 6 0 0 0 6 6z" fill="url(#linear-gradient-3)"/><path d="m273.267 234.93a24.449 24.449 0 0 1 -34.534 0 6 6 0 0 0 -8.485 8.485 36.46 36.46 0 0 0 51.5 0 6 6 0 0 0 -8.485-8.485z" fill="url(#linear-gradient-4)"/><path d="m303.209 119.048q1.947.064 3.836.063a125.521 125.521 0 0 0 32.334-4.191 6 6 0 0 0 -3.387-11.511c-.572.168-57.5 16.395-83.706-20.721a6 6 0 1 0 -9.8 6.921c12.976 18.381 33.975 28.561 60.723 29.439z" fill="url(#linear-gradient-5)"/></svg>