<svg id="Layer_1" height="512" viewBox="0 0 512 512" width="512" xmlns="http://www.w3.org/2000/svg" xmlns:xlink="http://www.w3.org/1999/xlink" data-name="Layer 1"><linearGradient id="linear-gradient" gradientUnits="userSpaceOnUse" x1="256" x2="256" y1="455" y2="100.639"><stop offset=".322" stop-color="#a163f5"/><stop offset=".466" stop-color="#b074ee"/><stop offset=".752" stop-color="#d8a1dd"/><stop offset=".898" stop-color="#efbad3"/></linearGradient><linearGradient id="linear-gradient-2" x1="290.406" x2="290.406" xlink:href="#linear-gradient" y1="454.999" y2="100.638"/><linearGradient id="linear-gradient-3" x1="221.594" x2="221.594" xlink:href="#linear-gradient" y1="454.999" y2="100.638"/><linearGradient id="linear-gradient-4" xlink:href="#linear-gradient" y1="455" y2="100.639"/><path d="m337.3 328.628h-13.144a30.931 30.931 0 0 0 -8.5-22.247 6.106 6.106 0 0 0 -4.366-1.882h-14.954v-19.077a81.239 81.239 0 0 0 35.982-43.5v6.707a6 6 0 0 0 12 0v-32.746a6.053 6.053 0 0 0 -.124-1.22c.658-.192 1.312-.415 1.958-.674a20.821 20.821 0 0 0 12.73-22.11 20.537 20.537 0 0 0 -6.711-12.509 92.409 92.409 0 0 0 9.917-41.793v-17.137a87.8 87.8 0 0 0 -87.7-87.7h-32.7a19.023 19.023 0 0 0 -18.433 14.417 96.18 96.18 0 0 0 -45.355 32.655 95.438 95.438 0 0 0 -11.54 95.659 17.966 17.966 0 0 0 -4.681 2.3 20.555 20.555 0 0 0 -8.718 14.1 20.817 20.817 0 0 0 12.73 22.109 21.1 21.1 0 0 0 2.7.855 5.942 5.942 0 0 0 -.1 1.04v32.755a6 6 0 0 0 12 0v-4.975a81.265 81.265 0 0 0 35.371 41.77v19.708h-15.19c-.036 0-.073 0-.11 0a6 6 0 0 0 -4.3 1.935 30.968 30.968 0 0 0 -8.289 21.561h-13.073a49.76 49.76 0 0 0 -49.7 49.7v94.933a6 6 0 0 0 6 6h250a6 6 0 0 0 6-6v-94.931a49.76 49.76 0 0 0 -49.7-49.703zm4.394-125.779a8.834 8.834 0 0 1 -4.9.5v-2.115a93.771 93.771 0 0 0 8.964-11.062 8.832 8.832 0 0 1 1.251 3.433 8.7 8.7 0 0 1 -5.318 9.244zm-166.483.463a8.819 8.819 0 0 1 -5.056-.463 8.7 8.7 0 0 1 -1.649-15.2 6.026 6.026 0 0 1 3.6-1.02c.979 1.622 2.023 3.213 3.1 4.784zm0-43.8v5.7a83.445 83.445 0 0 1 55.172-107.729 6 6 0 0 0 4.316-5.758 7 7 0 0 1 6.989-6.989h32.7a75.79 75.79 0 0 1 75.7 75.7v17.137a80.263 80.263 0 0 1 -13.434 44.672v-2.868a64.022 64.022 0 0 0 -14.154-40.077 107.814 107.814 0 0 1 -15.557-26.085 106.913 106.913 0 0 1 -7.97-36.471l-.373-8.044a6 6 0 0 0 -11.988.554l.373 8.047a125.311 125.311 0 0 0 2.468 19.648 49.215 49.215 0 0 0 -5.8 32.121 117.875 117.875 0 0 1 -41.93-52.51 6 6 0 0 0 -5.562-3.75h-.441a6 6 0 0 0 -5.962 5.325l-2.381 21.065a26.08 26.08 0 0 1 -21.125 22.787 38.238 38.238 0 0 0 -31.044 37.526zm12 55.948v-55.947a26.225 26.225 0 0 1 21.289-25.734 38.023 38.023 0 0 0 30.8-33.225l.185-1.633a129.882 129.882 0 0 0 50.915 48.269 6 6 0 0 0 8.566-6.955l-2.527-8.859a37.072 37.072 0 0 1 -1.1-14.887c.182.452.346.914.534 1.363a119.792 119.792 0 0 0 17.288 28.987 51.989 51.989 0 0 1 11.493 32.542v19.6a5.918 5.918 0 0 0 .138 1.209v15.271a68.792 68.792 0 1 1 -137.584 0zm98.26 106.77a70.1 70.1 0 0 1 -59.041.321 26.106 26.106 0 0 0 1.237-7.924v-23.514a80.72 80.72 0 0 0 56.672.006v23.509a25.916 25.916 0 0 0 1.129 7.603zm-84.035-1.814a80.777 80.777 0 0 0 54.132 20.5h.487a80.794 80.794 0 0 0 54.38-21.114 19.322 19.322 0 0 1 -3.435 21.167c-9.681 9.783-38.832 13.952-49.433 14.75-.677-.026-1.349-.063-2.04-.063a103.36 103.36 0 0 1 -44.973-10.173 18.8 18.8 0 0 1 -10.425-13.555 19.172 19.172 0 0 1 1.304-11.511zm106.7 52.785q1.266 3.093 2.327 6.232h-17.3a43.407 43.407 0 0 0 -3.3-6.232zm-14.7-12c2.694-.848 5.35-1.8 7.888-2.869l1.348 2.869zm4.312 39.755a73.531 73.531 0 0 0 -1.045-9.523h17.06q1.008 4.74 1.575 9.523zm18.326 12a103.667 103.667 0 0 1 -.668 12.055h-19.639a107.98 107.98 0 0 0 1.727-12.055zm-96.023-28.046c-.241 3.379-.367 6.968-.322 10.673l-18.829-6.024a100.857 100.857 0 0 1 1.711-10.774zm-14.362-17.763c1.118-3.556 2.261-6.687 3.253-9.212a115.582 115.582 0 0 0 14.352 5.2c-.511 2.2-1.2 5.5-1.838 9.549zm14.959 41.329a77.407 77.407 0 0 0 3.954 16.276l-20.534-7.212a49.068 49.068 0 0 1 -3.428-15.465zm-34.366 58.788a50.462 50.462 0 0 1 .518-38.621 6 6 0 1 0 -11.013-4.764 62.535 62.535 0 0 0 -2.248 43.385h-36.539v-88.933a37.746 37.746 0 0 1 37.7-37.7h15.614a30.448 30.448 0 0 0 8.138 11.15c-5.561 13.5-16.869 47.181-4.193 73.2a6 6 0 0 0 3.406 3.033l37.44 13.15a6 6 0 0 0 6.795-9.264c-15.674-20.9-9.106-56.323-6.9-66.05a117.118 117.118 0 0 0 20.532 1.806c13.18 0 22.221 5.756 26.872 17.107 9.105 22.221-.914 62.687-20.234 82.5zm114.592 0h-23.074q2.165-2.975 4.123-6.2h22.446q-1.632 3.147-3.495 6.2zm8.807-18.2h-21.511a114.978 114.978 0 0 0 4.53-12.055h20.605a103.25 103.25 0 0 1 -3.624 12.058zm16.037 18.2h-11.045a115.3 115.3 0 0 0 11.85-35.176 50.48 50.48 0 0 1 -.805 35.176zm49.282 0h-36.539a62.535 62.535 0 0 0 -2.248-43.385 6 6 0 0 0 -7.888-3.125c-.18.078-.353.165-.522.257a117.813 117.813 0 0 0 -11.043-58.019l-4.86-10.345a30.521 30.521 0 0 0 9.551-12.019h15.849a37.746 37.746 0 0 1 37.7 37.7z" fill="url(#linear-gradient)"/><path d="m277.5 189.923a6 6 0 0 0 6-6 6.9 6.9 0 1 1 13.8 0 6 6 0 0 0 12 0 18.9 18.9 0 1 0 -37.8 0 6 6 0 0 0 6 6z" fill="url(#linear-gradient-2)"/><path d="m234.5 189.923a6 6 0 0 0 6-6 18.9 18.9 0 1 0 -37.8 0 6 6 0 0 0 12 0 6.9 6.9 0 1 1 13.8 0 6 6 0 0 0 6 6z" fill="url(#linear-gradient-3)"/><path d="m281.752 236.5a6 6 0 0 0 -8.485-8.485 24.447 24.447 0 0 1 -34.534 0 6 6 0 0 0 -8.485 8.485 36.46 36.46 0 0 0 51.5 0z" fill="url(#linear-gradient-4)"/></svg>