<svg id="Layer_1" height="512" viewBox="0 0 512 512" width="512" xmlns="http://www.w3.org/2000/svg" xmlns:xlink="http://www.w3.org/1999/xlink" data-name="Layer 1"><linearGradient id="linear-gradient" gradientUnits="userSpaceOnUse" x1="294.332" x2="294.332" y1="455.001" y2="100.639"><stop offset=".322" stop-color="#a163f5"/><stop offset=".466" stop-color="#b074ee"/><stop offset=".752" stop-color="#d8a1dd"/><stop offset=".898" stop-color="#efbad3"/></linearGradient><linearGradient id="linear-gradient-2" x1="221.594" x2="221.594" xlink:href="#linear-gradient" y1="455.001" y2="100.639"/><linearGradient id="linear-gradient-3" x1="256" x2="256" xlink:href="#linear-gradient" y1="455" y2="100.638"/><linearGradient id="linear-gradient-4" x1="256" x2="256" xlink:href="#linear-gradient" y1="455" y2="100.639"/><path d="m301.234 207.1a6 6 0 0 0 12 0 18.9 18.9 0 1 0 -37.8 0 6 6 0 0 0 12 0 6.9 6.9 0 1 1 13.8 0z" fill="url(#linear-gradient)"/><path d="m214.692 207.1a6.9 6.9 0 1 1 13.8 0 6 6 0 0 0 12 0 18.9 18.9 0 1 0 -37.8 0 6 6 0 0 0 12 0z" fill="url(#linear-gradient-2)"/><path d="m273.267 236.449a24.447 24.447 0 0 1 -34.534 0 6 6 0 0 0 -8.485 8.486 36.462 36.462 0 0 0 51.5 0 6 6 0 0 0 -8.485-8.486z" fill="url(#linear-gradient-3)"/><path d="m403.084 264.9a80.584 80.584 0 0 0 -8.374-35.568c-13.874-28.449-21.469-61.256-21.964-94.876l-.413-28.022a82.231 82.231 0 0 0 -82.139-82.134h-84.044a31.646 31.646 0 0 0 -31.58 30.36 74.741 74.741 0 0 0 -34.9 63.066l-.276 16.563c-.57 34.165-8.006 66.144-22.1 95.048a80.583 80.583 0 0 0 -8.373 35.568c0 29.246 16.267 56.739 45.019 76.722a49.76 49.76 0 0 0 -28.94 45.14v94.933a6 6 0 0 0 6 6h250a6 6 0 0 0 6-6v-94.933a49.76 49.76 0 0 0 -28.942-45.142c28.776-19.973 45.026-47.376 45.026-76.725zm-282.167 0a68.675 68.675 0 0 1 7.159-30.308c14.871-30.493 22.715-64.175 23.314-100.108l.277-16.663a62.77 62.77 0 0 1 23.873-49.174 82.162 82.162 0 0 0 15.626 36.85c-10.215 11.121-15.958 26.419-15.958 43.005v22.927h-8.779a6 6 0 0 0 0 12h1.727a17.939 17.939 0 0 0 -6.477 2.781 20.551 20.551 0 0 0 -8.718 14.1 20.714 20.714 0 0 0 20.523 23.625c.577 0 1.151-.033 1.724-.081v.037a80.821 80.821 0 0 0 40.456 69.957v29.211a14.017 14.017 0 0 1 -14 14h-26.964a50 50 0 0 0 -5.5.311l.095-.162c-30.745-18.053-48.378-44.408-48.378-72.308zm178.683 83.6a79.794 79.794 0 0 1 -3.182 28.175 142.6 142.6 0 0 1 -81.343.716 79.956 79.956 0 0 1 -3.341-29.311 9.567 9.567 0 0 0 .027-1.055 26.04 26.04 0 0 0 15.908-23.96v-23.518a80.647 80.647 0 0 0 56.672 0v23.517a26.031 26.031 0 0 0 15.281 23.678 10.081 10.081 0 0 0 -.022 1.758zm-8.047 41.943c-8.628 20.554-22.716 40.636-35.9 59.275-13.055-18.452-26.988-38.312-35.637-58.644a153.873 153.873 0 0 0 71.54-.631zm-35.553-97.754a68.871 68.871 0 0 1 -68.792-68.789v-4.747a30.191 30.191 0 0 0 24.609 12.715h14.217a30.252 30.252 0 0 0 30.217-30.218v-1.45h3.424v1.451a30.252 30.252 0 0 0 30.217 30.218h14.217a30.1 30.1 0 0 0 20.683-8.218v.25a68.871 68.871 0 0 1 -68.792 68.788zm-62.4-91.043v-18.217h50.651v18.217a18.238 18.238 0 0 1 -18.217 18.218h-14.217a18.238 18.238 0 0 1 -18.217-18.218zm78.075 0v-18.217h50.651v18.217a18.238 18.238 0 0 1 -18.217 18.218h-14.217a18.238 18.238 0 0 1 -18.217-18.218zm-6-30.217a6 6 0 0 0 -6 6v10.771h-3.424v-10.771a6 6 0 0 0 -6-6h-63.043v-22.929c0-13.076 4.286-25.09 11.938-33.927a82.392 82.392 0 0 0 57.627 23.571h46.712a21.332 21.332 0 0 1 21.307 21.308v11.975zm-90.467 24.49v15.828a8.8 8.8 0 0 1 -5.056-.463 8.7 8.7 0 0 1 -1.649-15.2 6.371 6.371 0 0 1 6.705-.165zm.579 236.4a62.533 62.533 0 0 0 -2.248 43.384h-36.539v-88.936a37.746 37.746 0 0 1 37.7-37.7h15.83l-18.958 33.578a6 6 0 0 0 .853 7.06l8.672 9.222-12.933 1.288a6 6 0 0 0 -4.3 9.445l14.194 19.983a5.967 5.967 0 0 0 -2.271 2.672zm10.5 43.384a50.475 50.475 0 0 1 -.7-35.477l25.2 35.477zm139.436 0h-24.4l25.116-35.433a50.481 50.481 0 0 1 -.721 35.43zm-39.107 0h-61.116l-45.865-64.573 14.775-1.472a6 6 0 0 0 3.776-10.081l-13.992-14.877 15.379-27.237a100.4 100.4 0 0 0 4.884 25.924 5.937 5.937 0 0 0 .443 1.377c8.734 26.353 26.5 51.475 41.745 73.012q2.076 2.933 4.094 5.795a6 6 0 0 0 9.812 0q2.015-2.859 4.094-5.8c20.652-29.185 45.983-64.98 47.117-101.49l16.044 28.419-13.992 14.88a6 6 0 0 0 3.776 10.081l14.787 1.473zm88.384-88.936v88.933h-36.539a62.533 62.533 0 0 0 -2.248-43.384 5.964 5.964 0 0 0 -2.256-2.662l14.177-20a6 6 0 0 0 -4.3-9.44l-12.934-1.29 8.672-9.222a6 6 0 0 0 .853-7.06l-18.958-33.578h15.833a37.746 37.746 0 0 1 37.7 37.703zm-32.521-49.433a50.131 50.131 0 0 0 -5.182-.27h-26.961a14.017 14.017 0 0 1 -14-14v-29.211a80.821 80.821 0 0 0 40.456-69.953v-.022c.522.04 1.044.066 1.567.066a20.714 20.714 0 0 0 20.523-23.625 20.548 20.548 0 0 0 -8.717-14.1 17.945 17.945 0 0 0 -6.48-2.781h2.34a6 6 0 0 0 0-12h-9.233v-11.984a33.345 33.345 0 0 0 -33.307-33.308h-46.712a70.365 70.365 0 0 1 -52.239-23.287q-.379-.42-.75-.847a70.191 70.191 0 0 1 -17.245-46.1 19.633 19.633 0 0 1 19.611-19.612h84.044a70.238 70.238 0 0 1 70.14 70.226l.413 28.111c.521 35.371 8.535 69.936 23.178 99.96a68.681 68.681 0 0 1 7.159 30.307c0 28.055-17.693 54.361-48.605 72.43zm-5.687-125.55v-15.956a6.357 6.357 0 0 1 6.548.252 8.7 8.7 0 0 1 -1.649 15.2 8.816 8.816 0 0 1 -4.899.504z" fill="url(#linear-gradient-4)"/></svg>