<svg id="Layer_1" height="512" viewBox="0 0 512 512" width="512" xmlns="http://www.w3.org/2000/svg" xmlns:xlink="http://www.w3.org/1999/xlink" data-name="Layer 1"><linearGradient id="linear-gradient" gradientUnits="userSpaceOnUse" x1="256" x2="256" y1="455" y2="100.639"><stop offset=".322" stop-color="#a163f5"/><stop offset=".466" stop-color="#b074ee"/><stop offset=".752" stop-color="#d8a1dd"/><stop offset=".898" stop-color="#efbad3"/></linearGradient><linearGradient id="linear-gradient-2" x1="219.283" x2="219.283" xlink:href="#linear-gradient" y1="455" y2="100.639"/><linearGradient id="linear-gradient-3" x1="290.749" x2="290.749" xlink:href="#linear-gradient" y1="455" y2="100.639"/><linearGradient id="linear-gradient-4" xlink:href="#linear-gradient" y1="455" y2="100.638"/><path d="m340.681 322.773h-21.4l-18.708-19.805v-14.719a77.081 77.081 0 0 0 31.767-62.209l1.324-33.416h1.091a20.089 20.089 0 0 0 19.271-25.674v-44.85a70.952 70.952 0 0 0 -38.543-62.88 80.085 80.085 0 0 0 -59.366-26.4h-.039a80.1 80.1 0 0 0 -59.5 26.5 70.962 70.962 0 0 0 -38.34 62.777v44.071a20.04 20.04 0 0 0 19.008 26.457h.83l-.025 33.294a77.11 77.11 0 0 0 33.478 63.55v13.5l-18.809 19.804h-21.4a51.582 51.582 0 0 0 -51.52 51.527v98.885a6 6 0 0 0 6 6h260.4a6 6 0 0 0 6-6v-98.885a51.582 51.582 0 0 0 -51.519-51.527zm-25.615 11.955a85.71 85.71 0 0 1 27.657 43.005l-24.862 11.376-8.423-6.966c2.973-19.943 4.715-36.997 5.628-47.415zm-11.38-9.458c-3.661 22.978-9.952 33.446-15.666 40.08a36.927 36.927 0 0 0 -2.01-3.71 38.567 38.567 0 0 0 -16.526-14.517 75.249 75.249 0 0 0 26.881-30.531zm-2.286-262.687v-.445a68.166 68.166 0 0 1 5.863 5.888 5.981 5.981 0 0 0 1.886 1.439 58.871 58.871 0 0 1 32.876 52.635v31.737a19.867 19.867 0 0 0 -4.758-1.227v-23.06c0-.671-.013-1.341-.037-2.018a49.5 49.5 0 0 0 -21.5-38.484 5.956 5.956 0 0 0 -.8-.466l-18.1-8.773a34.652 34.652 0 0 0 4.57-17.226zm-131.162 59.517a58.873 58.873 0 0 1 32.879-52.631 5.973 5.973 0 0 0 2.451-2.2 68.093 68.093 0 0 1 50.509-22.449h.033a68.009 68.009 0 0 1 33.29 8.746v9.017a22.842 22.842 0 0 1 -22.791 22.842h-8.557c4.384-6.458 8.133-15.034 5.372-23.318a6 6 0 0 0 -8.114-3.592l-25.386 11.2a139.279 139.279 0 0 0 -18.406 9.839l-13.41 8.525a49.128 49.128 0 0 0 -23.067 39.342q-.041 1.061-.042 2.126v23.029a19.826 19.826 0 0 0 -4.758 1.159zm12.972 58.025a5.948 5.948 0 0 0 -1.683.53c-.175-.015-.352-.027-.531-.027h-3.75a8.088 8.088 0 0 1 0-16.175h3.754a6 6 0 0 0 6-6v-28.9q0-.832.032-1.659a37.137 37.137 0 0 1 17.514-29.682l13.41-8.525a127.124 127.124 0 0 1 16.814-8.987l16.243-7.166c-2.316 5.254-7.065 10.746-10.03 13.454a6 6 0 0 0 4.032 10.444h21.6a34.6 34.6 0 0 0 22.3-8.126l20.357 9.868a37.414 37.414 0 0 1 15.973 28.8c.019.525.03 1.052.03 1.578v28.9a6 6 0 0 0 6 6h3.487a8.088 8.088 0 0 1 0 16.175h-3.762c-.181 0-.359.012-.536.028a5.917 5.917 0 0 0 -1.678-.531 28.5 28.5 0 0 0 -31.929 22.176l-1.342 6.275q-.6 2.8-1.466 5.524a32.61 32.61 0 0 0 -21.078-7.831 6 6 0 0 0 -2.017.349l-.695.248a42.514 42.514 0 0 1 -29.13-.218 6 6 0 0 0 -2.1-.379 32.608 32.608 0 0 0 -21.061 7.817c-.575-1.814-1.085-3.649-1.483-5.511l-1.342-6.274a28.5 28.5 0 0 0 -31.933-22.179zm109.516 50.753-6.275 1.827a9.333 9.333 0 0 1 -9.1-2.265l-4.616-4.489a21.282 21.282 0 0 0 -8.891-5.185 54.421 54.421 0 0 0 10.091-2.469 20.524 20.524 0 0 1 15.142 7.877zm-41.835-9.783a21.277 21.277 0 0 0 -10.514 7.982 9.274 9.274 0 0 1 -9.684 3.776l-11.035-2.471 3.26-4.208a20.525 20.525 0 0 1 15.129-7.876 54.457 54.457 0 0 0 12.844 2.793zm-60.84 4.831.025-33.871a16.487 16.487 0 0 1 13.332 12.763l1.343 6.273a71.379 71.379 0 0 0 4.291 13.4l-4.653 6.009a6 6 0 0 0 3.433 9.528l20.249 4.534a21.476 21.476 0 0 0 4.7.522 21.218 21.218 0 0 0 17.461-9.165 9.311 9.311 0 0 1 14.141-1.366l4.616 4.489a21.351 21.351 0 0 0 20.815 5.184l14.739-4.292a6 6 0 0 0 3.066-9.434l-4.655-6.012a71.323 71.323 0 0 0 4.293-13.4l1.343-6.274a16.483 16.483 0 0 1 13.085-12.714l-1.331 33.584v.238a65.144 65.144 0 0 1 -130.288 0zm25.684 90.67a75.277 75.277 0 0 0 26.908 30.548 38.807 38.807 0 0 0 -18.587 18.178c-5.708-6.635-11.986-17.1-15.642-40.048zm-18.8 18.136c.913 10.418 2.655 27.47 5.628 47.415l-8.423 6.966-24.861-11.376a85.711 85.711 0 0 1 27.655-43.009zm-65.135 132.449v-92.881a39.567 39.567 0 0 1 39.522-39.523h8.308a97.813 97.813 0 0 0 -22.93 43.734l-.29 1.249a6 6 0 0 0 3.348 6.813l24.108 11.032-20.312 16.8a6 6 0 0 0 -2.085 5.667 168.854 168.854 0 0 0 15.707 47.112zm58.958 0a156.861 156.861 0 0 1 -16.832-45.781l30.822-25.49c4.488 26.735 10.026 50.632 16.517 71.274zm59.245 0h-16.143c-7.649-23.441-14.012-51.5-18.927-83.489-.679-4.417-1.3-8.7-1.858-12.815a84.731 84.731 0 0 0 6.994 7.7c.869.873 1.7 1.7 2.466 2.53a6.049 6.049 0 0 0 4.42 1.932 5.976 5.976 0 0 0 5.96-5.661c.046-.653 1.2-14.035 17.085-20.365zm-26.471-163.07v-7.876a76.975 76.975 0 0 0 65.043-.775v8.652c-8.008 22.65-24.228 32.912-32.491 36.819a63.936 63.936 0 0 1 -32.555-36.82zm38.468 163.07v-110.214c15.985 6.312 17.141 19.745 17.184 20.352a6 6 0 0 0 10.382 3.784c.771-.828 1.6-1.657 2.466-2.529a85.607 85.607 0 0 0 6.872-7.545c-.556 4.069-1.166 8.3-1.837 12.663-4.915 31.994-11.279 60.049-18.927 83.489zm28.735 0c6.491-20.641 12.029-44.538 16.517-71.274l30.822 25.49a156.845 156.845 0 0 1 -16.828 45.784zm89.468 0h-45.377a168.852 168.852 0 0 0 15.706-47.112 6 6 0 0 0 -2.085-5.667l-20.312-16.8 24.108-11.032a6 6 0 0 0 3.348-6.813l-.291-1.253a97.811 97.811 0 0 0 -22.926-43.734h8.307a39.567 39.567 0 0 1 39.519 39.53z" fill="url(#linear-gradient)"/><path d="m236.024 164.019a6 6 0 0 0 -12 0 4.741 4.741 0 1 1 -9.482 0 6 6 0 0 0 -12 0 16.741 16.741 0 1 0 33.482 0z" fill="url(#linear-gradient-2)"/><path d="m290.749 180.779a16.769 16.769 0 0 0 16.741-16.76 6 6 0 0 0 -12 0 4.741 4.741 0 1 1 -9.482 0 6 6 0 0 0 -12 0 16.77 16.77 0 0 0 16.741 16.76z" fill="url(#linear-gradient-3)"/><path d="m270.49 257.626a6 6 0 0 0 -8.49-8.485 8.491 8.491 0 0 1 -12.008 0 6 6 0 0 0 -8.486 8.485 20.492 20.492 0 0 0 28.98 0z" fill="url(#linear-gradient-4)"/></svg>