<svg id="Layer_1" height="512" viewBox="0 0 512 512" width="512" xmlns="http://www.w3.org/2000/svg" xmlns:xlink="http://www.w3.org/1999/xlink" data-name="Layer 1"><linearGradient id="linear-gradient" gradientUnits="userSpaceOnUse" x1="290.837" x2="290.837" y1="470.999" y2="83.494"><stop offset=".322" stop-color="#a163f5"/><stop offset=".466" stop-color="#b074ee"/><stop offset=".752" stop-color="#d8a1dd"/><stop offset=".898" stop-color="#efbad3"/></linearGradient><linearGradient id="linear-gradient-2" x1="222.026" x2="222.026" xlink:href="#linear-gradient" y1="470.999" y2="83.494"/><linearGradient id="linear-gradient-3" x1="256.432" x2="256.432" xlink:href="#linear-gradient" y1="470.999" y2="83.494"/><linearGradient id="linear-gradient-4" x1="256" x2="256" xlink:href="#linear-gradient" y1="471" y2="83.495"/><path d="m309.74 190.12a18.9 18.9 0 0 0 -37.805 0 6 6 0 0 0 12 0 6.9 6.9 0 0 1 13.805 0 6 6 0 0 0 12 0z" fill="url(#linear-gradient)"/><path d="m234.928 196.12a6 6 0 0 0 6-6 18.9 18.9 0 1 0 -37.8 0 6 6 0 0 0 12 0 6.9 6.9 0 1 1 13.8 0 6 6 0 0 0 6 6z" fill="url(#linear-gradient-2)"/><path d="m273.7 234.211a24.446 24.446 0 0 1 -34.533 0 6 6 0 0 0 -8.485 8.486 36.46 36.46 0 0 0 51.5 0 6 6 0 1 0 -8.486-8.486z" fill="url(#linear-gradient-3)"/><path d="m384.391 264.683c21.423-30.964 26.119-68.87 12.884-104-16.841-44.7-40.649-83.3-57.656-107.8-15.176-21.87-43.142-31.532-68-23.5a48.34 48.34 0 0 0 -15.587 8.279 48.942 48.942 0 0 0 -15.657-8.279c-24.859-8.036-52.821 1.628-68 23.5-17.007 24.507-40.815 63.1-57.656 107.8-13.235 35.129-8.539 73.035 12.884 104a113.79 113.79 0 0 0 88.497 48.938v7.205a14.016 14.016 0 0 1 -14 14h-26.96a49.76 49.76 0 0 0 -49.7 49.7v94.932a6 6 0 0 0 6 6h250a6 6 0 0 0 6-6v-94.929a49.76 49.76 0 0 0 -49.7-49.7h-26.96a14.016 14.016 0 0 1 -14-14v-7.245a113.793 113.793 0 0 0 87.611-48.901zm-132.938-195.757c1.02-7.454 5.4-22.156 23.859-28.124 19.873-6.421 42.262 1.359 54.449 18.921 16.62 23.949 39.876 61.64 56.284 105.191a101.426 101.426 0 0 1 -89.277 136.664v-9.962a80.821 80.821 0 0 0 40.456-69.957v-53.052a243.338 243.338 0 0 1 15.6 55.8 6 6 0 1 0 11.851-1.887c-11.106-69.71-42.441-108.02-66.775-127.88-19.686-16.069-37.895-22.976-46.461-25.567.005-.049.012-.098.014-.147zm57.977 72.309c-20.711-34.224-51.782-48.418-65.844-53.337 1.375-2.8 2.56-5.343 3.553-7.569 7.009 2.057 24.712 8.389 43.7 24.04a148.117 148.117 0 0 1 18.685 18.467c2.695 5.505 1.764 12.506-.094 18.399zm-171.953 116.621a99.57 99.57 0 0 1 -11.522-92.942c16.408-43.551 39.664-81.242 56.284-105.191 12.187-17.562 34.577-25.344 54.449-18.921a37.564 37.564 0 0 1 11.075 5.627 47.53 47.53 0 0 0 -8.277 21.071c-3.147 8.092-28.828 70.581-78.765 92.727a6 6 0 1 0 4.865 10.969c3.464-1.536 6.813-3.241 10.054-5.083v14.952a18.117 18.117 0 0 0 -13.53 2.905 20.554 20.554 0 0 0 -8.717 14.1 20.714 20.714 0 0 0 20.523 23.63c.576 0 1.15-.033 1.724-.082v.039a80.822 80.822 0 0 0 40.46 69.959v10a100.348 100.348 0 0 1 -78.623-43.76zm38.163-64.174v15.828a8.8 8.8 0 0 1 -5.056-.464 8.7 8.7 0 0 1 -1.649-15.2 6.373 6.373 0 0 1 6.705-.164zm162.088 153.144a37.746 37.746 0 0 1 37.7 37.7v88.932h-36.535a62.533 62.533 0 0 0 -2.248-43.384 6 6 0 0 0 -11.014 4.763 50.443 50.443 0 0 1 .518 38.621h-139.436a50.462 50.462 0 0 1 .518-38.621 6 6 0 1 0 -11.013-4.763 62.533 62.533 0 0 0 -2.248 43.384h-36.538v-88.929a37.745 37.745 0 0 1 37.7-37.7h10.813a81.836 81.836 0 0 0 16.627 40.956l49.234 63.273a6 6 0 0 0 4.735 2.315 6 6 0 0 0 4.735-2.315l49.237-63.264a80.574 80.574 0 0 0 16.463-40.965zm-30.846-.292 8.034.292a68.512 68.512 0 0 1 -13.869 33.593l-44.5 57.182-44.5-57.189a69.768 69.768 0 0 1 -14.02-33.586l8.036-.3a61.708 61.708 0 0 0 12.3 28.976l33.451 42.989a6 6 0 0 0 4.734 2.316 6 6 0 0 0 4.735-2.315l33.454-42.992a60.466 60.466 0 0 0 12.145-28.966zm-11.567-4.814a48.413 48.413 0 0 1 -10.046 26.41l-28.723 36.905-28.716-36.906a49.612 49.612 0 0 1 -10.241-26.438 25.977 25.977 0 0 0 10.511-20.865v-23.517a80.649 80.649 0 0 0 56.673 0v23.517a25.976 25.976 0 0 0 10.542 20.894zm-38.883-51.269a68.869 68.869 0 0 1 -68.792-68.792v-63.327c23.421-17.138 39.975-41.091 50.3-59.638 12.314 4.141 47.625 19.064 66.567 58.642a6 6 0 0 0 5.074 3.4c.114.007.226.01.339.01a6 6 0 0 0 5.08-2.819 62.392 62.392 0 0 0 7.185-18.02c1.047 1.626 2.053 3.265 3.038 4.911v76.841a68.87 68.87 0 0 1 -68.791 68.792z" fill="url(#linear-gradient-4)"/></svg>