<svg id="Layer_1" height="512" viewBox="0 0 512 512" width="512" xmlns="http://www.w3.org/2000/svg" xmlns:xlink="http://www.w3.org/1999/xlink" data-name="Layer 1"><linearGradient id="linear-gradient" gradientUnits="userSpaceOnUse" x1="256" x2="256" y1="457" y2="105.95"><stop offset=".322" stop-color="#a163f5"/><stop offset=".466" stop-color="#b074ee"/><stop offset=".752" stop-color="#d8a1dd"/><stop offset=".898" stop-color="#efbad3"/></linearGradient><linearGradient id="linear-gradient-2" x1="290.406" x2="290.406" xlink:href="#linear-gradient" y1="456.999" y2="105.949"/><linearGradient id="linear-gradient-3" x1="221.594" x2="221.594" xlink:href="#linear-gradient" y1="456.999" y2="105.949"/><linearGradient id="linear-gradient-4" xlink:href="#linear-gradient" y1="456.999" y2="105.95"/><linearGradient id="linear-gradient-5" x1="183.309" x2="183.309" xlink:href="#linear-gradient" y1="457" y2="105.954"/><path d="m344.121 323.5c-.948-21.638-13.438-40.906-34.295-53.462a80.6 80.6 0 0 0 26.966-60.185v-.023c.522.04 1.044.065 1.568.065a20.709 20.709 0 0 0 20.522-23.624 20.547 20.547 0 0 0 -8.718-14.1 17.924 17.924 0 0 0 -6.1-2.7 5.992 5.992 0 0 0 2.773-5.053v-68.356a57.785 57.785 0 0 0 -57.721-57.719h-32.054a37.78 37.78 0 0 0 -30.218 15.108 5.973 5.973 0 0 0 -2.049-.367h-14.333a54.686 54.686 0 0 0 -54.624 54.624v66.966a5.983 5.983 0 0 0 .643 2.692 20.673 20.673 0 0 0 9.21 31.017 20.947 20.947 0 0 0 7.793 1.514c.576 0 1.151-.033 1.724-.081v.039a80.6 80.6 0 0 0 26.972 60.19c-20.834 12.573-33.346 31.907-34.3 53.457a49.771 49.771 0 0 0 -42.88 49.224v94.931a6 6 0 0 0 6 6h250a6 6 0 0 0 6-6v-94.931a49.771 49.771 0 0 0 -42.879-49.226zm-7.329-141.715a6.359 6.359 0 0 1 6.548.252 8.7 8.7 0 0 1 -1.649 15.2 8.818 8.818 0 0 1 -4.9.5zm-79.73-131.442h32.052a45.772 45.772 0 0 1 45.721 45.719v62.35c-1.791-.009-4.2-1.369-6.785-3.832a29.2 29.2 0 0 1 -8.791-21.127v-11.983a24.449 24.449 0 0 0 -24.421-24.422h-11.8a6 6 0 0 0 0 12h11.8a12.442 12.442 0 0 1 12.148 9.824h-66.986a8.765 8.765 0 0 1 -8.756-8.756v-33.957a25.846 25.846 0 0 1 25.818-25.816zm-89.224 57.365a42.672 42.672 0 0 1 42.624-42.624h8.338v46.633a57.038 57.038 0 0 1 -50.957 56.643zm7.37 90a8.8 8.8 0 0 1 -5.056-.463 8.7 8.7 0 0 1 -1.649-15.2 6.375 6.375 0 0 1 6.705-.161zm12 12.15v-34.041a69.209 69.209 0 0 0 41.712-48.181 20.61 20.61 0 0 0 11.08 3.236h67.257v2.581a41.257 41.257 0 0 0 12.512 29.814 32.092 32.092 0 0 0 5.021 3.946v42.642a68.792 68.792 0 1 1 -137.584 0zm120.975 92.309c0 6.313-2.613 12.228-7.147 17.316a14.082 14.082 0 0 1 -4.7-10.458v-28.5c7.672 6.143 11.847 13.703 11.847 21.639zm-16.454 25c-9.345 5.789-21.914 9.347-35.729 9.347s-26.377-3.556-35.721-9.341a25.95 25.95 0 0 0 7.385-18.143v-23.524a80.661 80.661 0 0 0 56.672 0v23.516a26.118 26.118 0 0 0 7.393 18.137zm-76.065-46.626v28.489a13.969 13.969 0 0 1 -4.7 10.459c-4.535-5.088-7.148-11-7.148-17.317.001-7.898 4.189-15.483 11.848-21.639zm-22.58 12.319a34.873 34.873 0 0 0 -1.267 9.312c0 12.8 6.969 24.683 19.623 33.457 11.983 8.309 27.809 12.885 44.56 12.885s32.577-4.576 44.561-12.885c12.653-8.774 19.622-20.656 19.622-33.457a34.315 34.315 0 0 0 -1.338-9.426c8.588 9.551 13.338 21.091 13.338 33.426 0 32.715-33.463 58.342-76.183 58.342s-76.183-25.627-76.183-58.342c0-12.251 4.726-23.772 13.267-33.32zm181.916 168.797h-38v-34a6 6 0 1 0 -12 0v34h-138v-34a6 6 0 1 0 -12 0v34h-38v-88.931a37.759 37.759 0 0 1 31.585-37.2c5.579 34.86 41.957 60.98 87.415 60.98s81.836-26.12 87.415-60.98a37.759 37.759 0 0 1 31.585 37.2z" fill="url(#linear-gradient)"/><path d="m277.5 184.316a6 6 0 0 0 6-6 6.9 6.9 0 1 1 13.8 0 6 6 0 1 0 12 0 18.9 18.9 0 1 0 -37.8 0 6 6 0 0 0 6 6z" fill="url(#linear-gradient-2)"/><path d="m214.692 178.316a6.9 6.9 0 1 1 13.8 0 6 6 0 0 0 12 0 18.9 18.9 0 0 0 -37.8 0 6 6 0 1 0 12 0z" fill="url(#linear-gradient-3)"/><path d="m230.248 222.407a6 6 0 0 0 0 8.486 36.418 36.418 0 0 0 51.5 0 6 6 0 1 0 -8.485-8.485 24.42 24.42 0 0 1 -34.534 0 6 6 0 0 0 -8.481-.001z" fill="url(#linear-gradient-4)"/><path d="m183.309 103.441a6 6 0 0 0 -6 6v38.15a6 6 0 0 0 12 0v-38.15a6 6 0 0 0 -6-6z" fill="url(#linear-gradient-5)"/></svg>