<svg id="Layer_1" height="512" viewBox="0 0 512 512" width="512" xmlns="http://www.w3.org/2000/svg" xmlns:xlink="http://www.w3.org/1999/xlink" data-name="Layer 1"><linearGradient id="linear-gradient" gradientUnits="userSpaceOnUse" x1="256" x2="256" y1="457" y2="105.95"><stop offset=".322" stop-color="#a163f5"/><stop offset=".466" stop-color="#b074ee"/><stop offset=".752" stop-color="#d8a1dd"/><stop offset=".898" stop-color="#efbad3"/></linearGradient><linearGradient id="linear-gradient-2" x1="290.406" x2="290.406" xlink:href="#linear-gradient" y1="457" y2="105.951"/><linearGradient id="linear-gradient-3" x1="221.594" x2="221.594" xlink:href="#linear-gradient" y1="457" y2="105.951"/><linearGradient id="linear-gradient-4" xlink:href="#linear-gradient" y1="457" y2="105.95"/><linearGradient id="linear-gradient-5" x1="284.541" x2="284.541" xlink:href="#linear-gradient" y1="457" y2="105.95"/><path d="m337.3 329.919h-27.78a52.828 52.828 0 0 0 -9.029-20.208l-3.352-4.6v-18.864a80.817 80.817 0 0 0 39.653-69.495v-.023c.522.04 1.044.066 1.568.066a20.713 20.713 0 0 0 20.522-23.624 20.61 20.61 0 0 0 -4.789-10.543v-69.785a52.878 52.878 0 0 0 -21.983-42.853l-44.674-32.083a34.291 34.291 0 0 0 -35.931-2.61l-31.881 16.509a15.223 15.223 0 0 0 -15.234-1.437l-22.135 10.311a45.759 45.759 0 0 0 -26.348 41.338v83.076a20.714 20.714 0 0 0 17.577 31.7c.576 0 1.151-.033 1.724-.082v.039a80.82 80.82 0 0 0 39.653 69.5v18.869l-3.352 4.6a52.81 52.81 0 0 0 -9.028 20.208h-27.781a49.76 49.76 0 0 0 -49.7 49.7v94.933a6 6 0 0 0 6 6h250a6 6 0 0 0 6-6v-94.939a49.76 49.76 0 0 0 -49.7-49.703zm-40.206 22.136a40.611 40.611 0 0 1 -7.981 15.063l-7.457 8.9a.38.38 0 0 1 -.32.137.345.345 0 0 1 -.3-.176l-16.384-25.279 10.13-5.627a43.491 43.491 0 0 0 19.518-22.564 40.588 40.588 0 0 1 2.791 29.546zm-29.727 24.9-1.367 1.121a21.144 21.144 0 0 0 -20.343.1l-1.167-1 11.51-17.764zm-24.321-42.375a31.486 31.486 0 0 1 -16.185-27.508v-14.987a80.5 80.5 0 0 0 58.278 0v14.987a31.486 31.486 0 0 1 -16.185 27.508l-12.954 7.196zm103.961-139.68a8.7 8.7 0 0 1 -5.316 9.244 8.817 8.817 0 0 1 -4.9.5v-15.96a6.359 6.359 0 0 1 6.548.252 8.674 8.674 0 0 1 3.668 5.964zm-171.8 9.706a8.814 8.814 0 0 1 -5.055-.461 8.7 8.7 0 0 1 -1.649-15.206 6.373 6.373 0 0 1 6.7-.16zm0-28.441a18.305 18.305 0 0 0 -7.3.176v-74.323a33.717 33.717 0 0 1 19.414-30.46l22.135-10.31a3.169 3.169 0 0 1 3.985 1.152 6 6 0 0 0 7.805 2.08l35.777-18.527a22.345 22.345 0 0 1 23.413 1.7l44.674 32.083a40.852 40.852 0 0 1 16.983 33.107v50.138a26.679 26.679 0 0 0 -23.369-13.844 6.207 6.207 0 0 1 -6.2-6.2v-6.79q6.024.472 12.133.482h3.031a6 6 0 0 0 0-12h-3.031a142.173 142.173 0 0 1 -16.9-1 6.061 6.061 0 0 0 -.825-.107 138.559 138.559 0 0 1 -70.625-30.285c-.082-.07-.166-.138-.252-.2q-4.417-3.626-8.58-7.63a15.747 15.747 0 0 1 15.551-13.387h25.064a6 6 0 1 0 0-12h-25.064a27.753 27.753 0 0 0 -27.726 27.721 6 6 0 0 0 1.75 4.235l.14.14c.19.19.385.373.576.562a65.7 65.7 0 0 0 -42.561 61.449zm12 40.591v-62.629a53.694 53.694 0 0 1 35.134-50.359h7.913a150.387 150.387 0 0 0 70.269 30.957v8.213a18.22 18.22 0 0 0 18.2 18.2 14.677 14.677 0 0 1 14.66 14.66v1.257c-.122.046-.241.1-.362.151a5.993 5.993 0 0 0 -8.23 5.567v33.98a68.792 68.792 0 1 1 -137.584 0zm30.493 105.753a43.489 43.489 0 0 0 19.523 22.561l10.129 5.627-16.382 25.285a.345.345 0 0 1 -.3.176.369.369 0 0 1 -.32-.138l-7.457-8.9a40.9 40.9 0 0 1 -5.194-44.61zm-57.56 146.046h-23.14v-88.933a37.717 37.717 0 0 1 18.917-32.669 189.269 189.269 0 0 1 4.223 121.602zm12.505 0a201.311 201.311 0 0 0 -5.514-125.872 37.718 37.718 0 0 1 7.572-.764h15.447a200.208 200.208 0 0 0 29.306 126.636zm56.34-7.4a188.223 188.223 0 0 1 -27.266-114.062 53.748 53.748 0 0 0 1.648 8.247 52.571 52.571 0 0 0 10.324 19.487l7.457 8.9a12.257 12.257 0 0 0 9.469 4.433c.26 0 .522-.008.784-.023a12.351 12.351 0 0 0 5.5-1.66l1.988 1.7zm11.1 7.4 10.792-79.509a8.98 8.98 0 0 1 9.976-.065l10.8 79.574zm32.744-80.561 2.032-1.672a12.341 12.341 0 0 0 5.733 1.814q.395.022.784.023a12.263 12.263 0 0 0 9.469-4.432l7.457-8.9a52.559 52.559 0 0 0 10.324-19.486 53.889 53.889 0 0 0 1.32-5.875 188.2 188.2 0 0 1 -27.229 111.354zm19.208 80.561a200.221 200.221 0 0 0 29.306-126.636h15.957a37.684 37.684 0 0 1 7.1.68 201.313 201.313 0 0 0 -5.546 125.956zm82.958 0h-23.638a189.269 189.269 0 0 1 4.313-121.839 37.724 37.724 0 0 1 19.33 32.906z" fill="url(#linear-gradient)"/><path d="m277.5 191.214a6 6 0 0 0 6-6 6.9 6.9 0 1 1 13.8 0 6 6 0 0 0 12 0 18.9 18.9 0 1 0 -37.8 0 6 6 0 0 0 6 6z" fill="url(#linear-gradient-2)"/><path d="m234.5 191.214a6 6 0 0 0 6-6 18.9 18.9 0 1 0 -37.8 0 6 6 0 0 0 12 0 6.9 6.9 0 1 1 13.8 0 6 6 0 0 0 6 6z" fill="url(#linear-gradient-3)"/><path d="m281.752 237.791a6 6 0 0 0 -8.485-8.486 24.447 24.447 0 0 1 -34.534 0 6 6 0 0 0 -8.485 8.486 36.462 36.462 0 0 0 51.5 0z" fill="url(#linear-gradient-4)"/><path d="m252.5 79.514a6 6 0 0 0 0 12h1.468a82.024 82.024 0 0 1 58.377 24.186 6 6 0 0 0 8.486-8.486 93.952 93.952 0 0 0 -66.868-27.7z" fill="url(#linear-gradient-5)"/></svg>