<svg id="Layer_1" height="512" viewBox="0 0 512 512" width="512" xmlns="http://www.w3.org/2000/svg" xmlns:xlink="http://www.w3.org/1999/xlink" data-name="Layer 1"><linearGradient id="linear-gradient" gradientUnits="userSpaceOnUse" x1="256" x2="256" y1="465" y2="86.979"><stop offset=".322" stop-color="#a163f5"/><stop offset=".466" stop-color="#b074ee"/><stop offset=".752" stop-color="#d8a1dd"/><stop offset=".898" stop-color="#efbad3"/></linearGradient><linearGradient id="linear-gradient-2" x1="290.406" x2="290.406" xlink:href="#linear-gradient" y1="465" y2="86.98"/><linearGradient id="linear-gradient-3" x1="221.594" x2="221.594" xlink:href="#linear-gradient" y1="465" y2="86.98"/><linearGradient id="linear-gradient-4" xlink:href="#linear-gradient" y1="465" y2="86.979"/><path d="m354.128 333.871c-8.083-20.008-24.793-38.966-47.136-53.492a80.662 80.662 0 0 0 29.8-62.61v-.024c.522.04 1.044.065 1.568.065a20.709 20.709 0 0 0 20.522-23.624 20.552 20.552 0 0 0 -8.718-14.105 18.1 18.1 0 0 0 -13.372-2.926v-5.374a35.826 35.826 0 0 0 13.192 2.5h1.039a6 6 0 0 0 6-6l.2-22.387v-28.89a51.7 51.7 0 0 0 -29.681-46.957 31.219 31.219 0 0 0 -24.8-28.269l-52.966-10.811a46.64 46.64 0 0 0 -52.423 27.906h-5.121a37.5 37.5 0 0 0 -37.459 37.459v83.248a5.986 5.986 0 0 0 2.372 4.771 20.709 20.709 0 0 0 8.546 31.945 20.947 20.947 0 0 0 7.793 1.514c.576 0 1.151-.032 1.724-.081v.04a80.662 80.662 0 0 0 29.8 62.61c-22.339 14.523-39.046 33.476-47.131 53.479a49.46 49.46 0 0 0 -32.877 46.781v94.932a6 6 0 0 0 6 6h250a6 6 0 0 0 6-6v-94.932a49.976 49.976 0 0 0 -32.872-46.768zm-9.294 9.57a2.35 2.35 0 0 1 -1.17 2.8l-13.247 6.814a5.958 5.958 0 0 0 -1.522 1.128c2.4-15.646 1.056-29.885-4.062-43.353 9.522 10.245 16.493 21.451 20.001 32.611zm-1.5-153.49a8.7 8.7 0 0 1 -1.648 15.2 8.809 8.809 0 0 1 -4.9.5v-15.951a6.359 6.359 0 0 1 6.553.251zm1.888-72.943v8.371a23.6 23.6 0 0 0 -11.959-3.235 6 6 0 0 0 0 12 11.768 11.768 0 0 1 11.76 11.756v15.874a23.7 23.7 0 0 1 -11.9-6.471 32.175 32.175 0 0 1 -9.485-22.9v-23.318a33.187 33.187 0 0 0 -33.149-33.15h-2.592a33.074 33.074 0 0 0 -22.297 8.614 23.282 23.282 0 0 1 -26.02 4.088v-6.7c0-5.183 1.5-8.927 4.584-11.446 4.973-4.062 14.181-5.095 25.275-2.845l44.9 10.458a39.779 39.779 0 0 1 30.888 38.904zm-126.649-67.185a34.47 34.47 0 0 1 28.8-7.1l52.977 10.817a19.179 19.179 0 0 1 14.15 12.278l-42.42-9.88c-.054-.013-.107-.025-.161-.036-14.889-3.041-27.442-1.161-35.344 5.291-4.1 3.351-9 9.669-9 20.742v5.544c-12.206 1.922-19.475-8.5-21.7-12.32a34.456 34.456 0 0 1 12.698-25.336zm-43.4 155.8a8.8 8.8 0 0 1 -5.024-.472 8.7 8.7 0 0 1 -1.649-15.2 6.211 6.211 0 0 1 5.07-.826 8.438 8.438 0 0 1 1.6 4.946zm0-87.223.019 57.048a20.356 20.356 0 0 0 -8.422-1.872v-77.244a25.488 25.488 0 0 1 25.459-25.459h1.988a46.9 46.9 0 0 0 -.364 5.751 6 6 0 0 0 .617 2.65 39.962 39.962 0 0 0 6.159 8.913 30.712 30.712 0 0 0 -25.453 30.213zm12.032 99.363-.032-99.365a18.688 18.688 0 0 1 18.667-18.667h18.714.079.088 8.859a5.965 5.965 0 0 0 1.157-.114c12.768 6.06 27.963 3.78 38.934-6.192a21.1 21.1 0 0 1 14.22-5.494h2.592a21.173 21.173 0 0 1 21.149 21.15v23.319a44.092 44.092 0 0 0 13 31.383c.051.051.105.1.157.15v53.834a68.792 68.792 0 0 1 -137.584 0zm50.01 128.319 10.13 5.628-16.379 25.29a.347.347 0 0 1 -.3.176.326.326 0 0 1 -.319-.137l-7.457-8.9a40.9 40.9 0 0 1 -5.194-44.611 43.489 43.489 0 0 0 19.522 22.558zm-9.554-31.007v-21.66a80.661 80.661 0 0 0 56.672 0v21.66a31.475 31.475 0 0 1 -15.379 20.525l-12.954 7.192-12.954-7.2a31.478 31.478 0 0 1 -15.382-20.513zm28.339 45.354 11.364 17.541-1.364 1.122a21.152 21.152 0 0 0 -20.343.1l-1.167-1zm8.652-8.715 10.13-5.628a43.489 43.489 0 0 0 19.518-22.562 40.9 40.9 0 0 1 -5.194 44.611l-7.457 8.9a.326.326 0 0 1 -.319.137.347.347 0 0 1 -.3-.176zm-97.485-8.274c3.507-11.159 10.478-22.365 20-32.611-5.118 13.468-6.464 27.707-4.062 43.353a5.988 5.988 0 0 0 -1.521-1.128l-13.248-6.814a2.349 2.349 0 0 1 -1.169-2.8zm-30.167 126.131v-88.932a37.513 37.513 0 0 1 18.609-32.539 14.351 14.351 0 0 0 2.041 4.288h-3.9a9.15 9.15 0 0 0 -8.25 13.112l49.974 104.069zm71.638 0-50.358-105.181h20.559a6 6 0 0 0 5.49-3.585 143.772 143.772 0 0 0 5.518 18.911l32.665 89.855zm21.327-14.621-28.84-79.334c-10.06-27.675-9.466-50.039 1.869-70.383a77.209 77.209 0 0 1 9.624-13.378l3.046-3.468v16.645l-4.155 5.695a52.871 52.871 0 0 0 2.182 65.113l7.457 8.9a12.257 12.257 0 0 0 9.469 4.434q.39 0 .783-.025a12.35 12.35 0 0 0 5.5-1.659l1.988 1.7zm10.125 14.621 10.792-79.509a8.984 8.984 0 0 1 9.976-.065l10.8 79.574zm32.744-80.561 2.032-1.673a12.318 12.318 0 0 0 5.734 1.814c.262.017.524.025.783.025a12.257 12.257 0 0 0 9.469-4.434l7.457-8.9a52.872 52.872 0 0 0 2.182-65.114l-4.155-5.694v-16.647l3.047 3.469a77.243 77.243 0 0 1 9.623 13.376c11.335 20.345 11.93 42.709 1.869 70.384l-29.023 79.835zm16.654 80.561 32.665-89.855a143.619 143.619 0 0 0 5.518-18.911 6 6 0 0 0 5.49 3.585h20.559l-50.358 105.181zm85.512 0h-58.476l6.763-14.083h21.942a6 6 0 0 0 0-12h-16.18l37.451-77.988a9.149 9.149 0 0 0 -8.249-13.111h-3.9a14.369 14.369 0 0 0 2.033-4.264 37.948 37.948 0 0 1 18.616 32.514z" fill="url(#linear-gradient)"/><path d="m277.5 192.229a6 6 0 0 0 6-6 6.9 6.9 0 1 1 13.8 0 6 6 0 1 0 12 0 18.9 18.9 0 1 0 -37.8 0 6 6 0 0 0 6 6z" fill="url(#linear-gradient-2)"/><path d="m214.692 186.229a6.9 6.9 0 1 1 13.8 0 6 6 0 0 0 12 0 18.9 18.9 0 0 0 -37.8 0 6 6 0 1 0 12 0z" fill="url(#linear-gradient-3)"/><path d="m230.248 230.32a6 6 0 0 0 0 8.486 36.416 36.416 0 0 0 51.5 0 6 6 0 1 0 -8.485-8.485 24.417 24.417 0 0 1 -34.534 0 6 6 0 0 0 -8.481-.001z" fill="url(#linear-gradient-4)"/></svg>