<svg id="Layer_1" height="512" viewBox="0 0 512 512" width="512" xmlns="http://www.w3.org/2000/svg" xmlns:xlink="http://www.w3.org/1999/xlink" data-name="Layer 1"><linearGradient id="linear-gradient" gradientUnits="userSpaceOnUse" x1="256" x2="256" y1="465" y2="86.979"><stop offset=".322" stop-color="#a163f5"/><stop offset=".466" stop-color="#b074ee"/><stop offset=".752" stop-color="#d8a1dd"/><stop offset=".898" stop-color="#efbad3"/></linearGradient><linearGradient id="linear-gradient-2" x1="276.813" x2="276.813" xlink:href="#linear-gradient" y1="465" y2="86.981"/><linearGradient id="linear-gradient-3" x1="276.813" x2="276.813" xlink:href="#linear-gradient" y1="465" y2="86.98"/><linearGradient id="linear-gradient-5" x1="235.187" x2="235.187" xlink:href="#linear-gradient" y1="465" y2="86.981"/><linearGradient id="linear-gradient-6" x1="235.187" x2="235.187" xlink:href="#linear-gradient" y1="465" y2="86.98"/><linearGradient id="linear-gradient-8" x1="290.484" x2="290.484" xlink:href="#linear-gradient" y1="465.001" y2="86.981"/><linearGradient id="linear-gradient-9" x1="221.672" x2="221.672" xlink:href="#linear-gradient" y1="465.001" y2="86.981"/><linearGradient id="linear-gradient-10" x1="256.079" x2="256.079" xlink:href="#linear-gradient" y1="465" y2="86.979"/><path d="m337.3 319.61h-11.158a45.153 45.153 0 0 0 -.667-4.617l-15.945-26.433a6 6 0 0 0 -5.1-2.833h-8.1v-6.262a80.822 80.822 0 0 0 40.534-70v-.023c.522.04 1.045.066 1.569.066a20.713 20.713 0 0 0 20.521-23.625 20.573 20.573 0 0 0 -5.591-11.448v-64.294a68.464 68.464 0 0 0 -68.387-68.387h-57.802a68.464 68.464 0 0 0 -68.386 68.387v64.14a20.555 20.555 0 0 0 -5.748 11.6 20.712 20.712 0 0 0 20.521 23.619c.577 0 1.152-.033 1.725-.082v.04a80.82 80.82 0 0 0 40.378 69.911v6.352h-8.1a6 6 0 0 0 -5.1 2.835l-15.945 26.433a45.153 45.153 0 0 0 -.667 4.617h-11.152a49.76 49.76 0 0 0 -49.7 49.7v94.932a6 6 0 0 0 6 6h250a6 6 0 0 0 6-6v-94.924a49.76 49.76 0 0 0 -49.7-49.704zm-28.766-9.893 5.362 8.645a32.094 32.094 0 0 1 -14.15 32.244l-21.072 13.8-12.556-17.934 21.349-11.537a44.075 44.075 0 0 0 21.064-25.218zm-9.91-11.994a32.088 32.088 0 0 1 -2.12 9.934 14.036 14.036 0 0 1 -.165-2.047v-7.887zm48.461-110.123a8.7 8.7 0 0 1 -5.315 9.244 8.82 8.82 0 0 1 -4.9.5v-15.953a6.359 6.359 0 0 1 6.548.253 8.664 8.664 0 0 1 3.667 5.956zm-171.8 9.707a8.8 8.8 0 0 1 -5.055-.463 8.7 8.7 0 0 1 -1.648-15.2 6.365 6.365 0 0 1 6.7-.161zm0-28.443a18.431 18.431 0 0 0 -4.5-.246v-58.48a56.451 56.451 0 0 1 56.386-56.387h57.808a56.451 56.451 0 0 1 56.387 56.387v58.491a18.383 18.383 0 0 0 -4.5.214v-8.363a80.439 80.439 0 0 0 -13.38-44.545 39.021 39.021 0 0 0 -53.086-11.627c-.021.013-.044.026-.065.04a27.193 27.193 0 0 1 -28.516 0 39.022 39.022 0 0 0 -53.15 11.584 80.441 80.441 0 0 0 -13.386 44.553zm12 40.593v-48.977a68.484 68.484 0 0 1 11.392-37.928 26.851 26.851 0 0 1 22.476-12.068 27.515 27.515 0 0 1 14.4 4.093 39.133 39.133 0 0 0 40.993.04c.021-.013.043-.025.063-.039a27.066 27.066 0 0 1 36.873 7.983 68.469 68.469 0 0 1 11.386 37.92v48.98a68.792 68.792 0 0 1 -137.584 0zm28.378 88.263v7.887a14.177 14.177 0 0 1 -.164 2.047 32.06 32.06 0 0 1 -2.121-9.934zm-17.557 20.639 5.362-8.645a44.078 44.078 0 0 0 21.067 25.213l21.349 11.537-12.555 17.936-21.072-13.8a32.094 32.094 0 0 1 -14.15-32.238zm50.556 139.884h-61.662v-54a6 6 0 0 0 -12 0v54h-38v-88.929a37.745 37.745 0 0 1 37.7-37.7h11.668a44.051 44.051 0 0 0 19.314 29.036l25.938 16.98a6 6 0 0 0 8.2-1.578l8.839-12.625zm-18.421-133.87a32.443 32.443 0 0 1 -6.651-4.785 25.8 25.8 0 0 0 4.074-13.978v-20.532a80.647 80.647 0 0 0 56.672.062v20.47a25.822 25.822 0 0 0 4.075 13.977 32.492 32.492 0 0 1 -6.652 4.786l-25.759 13.92zm144.759 133.873h-38v-54a6 6 0 0 0 -12 0v54h-64.337v-98.646l11.513 16.445a6 6 0 0 0 8.2 1.578l25.938-16.98a44.051 44.051 0 0 0 19.314-29.036h11.672a37.745 37.745 0 0 1 37.7 37.7z" fill="url(#linear-gradient)"/><path d="m276.814 384.235a7.28 7.28 0 1 0 7.278 7.28 7.289 7.289 0 0 0 -7.278-7.28z" fill="url(#linear-gradient-2)"/><path d="m276.814 412.144a7.279 7.279 0 1 0 7.278 7.279 7.288 7.288 0 0 0 -7.278-7.279z" fill="url(#linear-gradient-3)"/><path d="m276.814 440.052a7.279 7.279 0 1 0 7.278 7.279 7.288 7.288 0 0 0 -7.278-7.279z" fill="url(#linear-gradient-3)"/><path d="m227.908 391.515a7.279 7.279 0 1 0 7.278-7.28 7.287 7.287 0 0 0 -7.278 7.28z" fill="url(#linear-gradient-5)"/><path d="m235.186 412.144a7.279 7.279 0 1 0 7.28 7.279 7.287 7.287 0 0 0 -7.28-7.279z" fill="url(#linear-gradient-6)"/><path d="m235.186 440.052a7.279 7.279 0 1 0 7.28 7.279 7.287 7.287 0 0 0 -7.28-7.279z" fill="url(#linear-gradient-6)"/><path d="m277.582 190.921a6 6 0 0 0 6-6 6.9 6.9 0 0 1 13.805 0 6 6 0 0 0 12 0 18.9 18.9 0 0 0 -37.805 0 6 6 0 0 0 6 6z" fill="url(#linear-gradient-8)"/><path d="m214.77 184.921a6.9 6.9 0 0 1 13.8 0 6 6 0 0 0 12 0 18.9 18.9 0 0 0 -37.8 0 6 6 0 0 0 12 0z" fill="url(#linear-gradient-9)"/><path d="m266.079 244.326a26.343 26.343 0 0 0 37.209 0 6 6 0 0 0 0-8.485l-14.362-14.363a26.349 26.349 0 0 0 -32.848-3.514 26.353 26.353 0 0 0 -32.85 3.514l-14.362 14.363a6 6 0 0 0 0 8.484 26.337 26.337 0 0 0 37.208 0l10-10zm14.363-14.362 9.186 9.186a14.326 14.326 0 0 1 -15.063-3.309l-9.186-9.187a14.338 14.338 0 0 1 15.063 3.31zm-42.85 5.878a14.334 14.334 0 0 1 -15.064 3.309l9.186-9.187a14.333 14.333 0 0 1 15.064-3.309z" fill="url(#linear-gradient-10)"/></svg>