<svg id="Layer_1" height="512" viewBox="0 0 512 512" width="512" xmlns="http://www.w3.org/2000/svg" xmlns:xlink="http://www.w3.org/1999/xlink" data-name="Layer 1"><linearGradient id="linear-gradient" gradientUnits="userSpaceOnUse" x1="256.003" x2="256.003" y1="465" y2="86.979"><stop offset=".322" stop-color="#a163f5"/><stop offset=".466" stop-color="#b074ee"/><stop offset=".752" stop-color="#d8a1dd"/><stop offset=".898" stop-color="#efbad3"/></linearGradient><linearGradient id="linear-gradient-2" x1="290.547" x2="290.547" xlink:href="#linear-gradient" y1="464.999" y2="86.979"/><linearGradient id="linear-gradient-3" x1="221.734" x2="221.734" xlink:href="#linear-gradient" y1="464.999" y2="86.979"/><linearGradient id="linear-gradient-4" x1="256.14" x2="256.14" xlink:href="#linear-gradient" y1="465" y2="86.978"/><path d="m337.438 327.447h-11.156a44.6 44.6 0 0 0 -.667-4.617 5.965 5.965 0 0 0 -.786-1.991l-15.158-24.439a6 6 0 0 0 -5.1-2.833h-8.1v-9.323a80.821 80.821 0 0 0 40.456-69.957v-.023c.521.04 1.044.066 1.568.066a20.71 20.71 0 0 0 20.528-23.63 20.627 20.627 0 0 0 -4.577-10.294l5.01-22.059a11.422 11.422 0 0 0 -9.463-15.291l1.752-1.9a42.638 42.638 0 0 0 -16.064-68.66c-13.867-5.336-27.722-11.243-41.181-17.558l-30.457-14.297a71.016 71.016 0 0 0 -84.5 18.637l-4.8 5.73-16.069 6.8a30 30 0 0 0 -18.351 27.672v27.328l-5.455.721a11.418 11.418 0 0 0 -9.387 7.379 10.655 10.655 0 0 0 2.327 10.9 56.888 56.888 0 0 0 16.792 12.258 10.153 10.153 0 0 0 -5.767 10.3c1 8.262 7.129 15.1 15.534 17.622a21.119 21.119 0 0 0 -1.267 4.712 20.709 20.709 0 0 0 20.522 23.624c.576 0 1.151-.033 1.725-.081v.038a80.82 80.82 0 0 0 40.456 69.957v9.323h-8.1a6 6 0 0 0 -5.1 2.835l-15.158 24.442a5.987 5.987 0 0 0 -.786 1.991 44.878 44.878 0 0 0 -.667 4.617h-11.148a49.76 49.76 0 0 0 -49.7 49.7v94.933a6 6 0 0 0 6 6h250a6 6 0 0 0 6-6v-94.929a49.76 49.76 0 0 0 -49.706-49.703zm-28.766-9.893 5.361 8.645a32.094 32.094 0 0 1 -14.149 32.244l-21.073 13.8-10.34-14.771c-.139-.2-.262-.413-.406-.613l-.947-1.319-.862-1.231 21.349-11.537a44.082 44.082 0 0 0 21.067-25.218zm-52.531 28.576-25.759-13.92a32.519 32.519 0 0 1 -6.651-4.785 25.8 25.8 0 0 0 4.074-13.978v-23.517a80.647 80.647 0 0 0 56.672 0v23.517a25.813 25.813 0 0 0 4.075 13.977 32.526 32.526 0 0 1 -6.653 4.786zm5.807 29v15.848h-8.657v-15.848a19.224 19.224 0 0 1 3.63-11.277l.694-.967 1.132 1.617a19.188 19.188 0 0 1 3.201 10.627zm36.814-69.57a32.117 32.117 0 0 1 -2.12 9.934 14.036 14.036 0 0 1 -.165-2.047v-7.887zm43.07-103.892a8.81 8.81 0 0 1 -4.9.5v-15.956a6.362 6.362 0 0 1 6.547.251 8.7 8.7 0 0 1 -1.648 15.205zm-166.442.454a8.8 8.8 0 0 1 -5.1-.453 8.7 8.7 0 0 1 -1.649-15.205 6.381 6.381 0 0 1 6.8-.106zm.081-28.414a18.152 18.152 0 0 0 -12.146 1.957l-4.4-.882a10.094 10.094 0 0 1 -7.846-6.376l14.126-5.229a6 6 0 0 0 -1.194-11.561 47.55 47.55 0 0 1 -25.871-12.417l11.632-1.538.152-.022c23.355-3.7 28.7-28.621 28.912-29.681a6 6 0 0 0 -11.753-2.42 34.187 34.187 0 0 1 -4.1 9.713 22.225 22.225 0 0 1 -10.66 9.371v-25.143a18.017 18.017 0 0 1 11.018-16.623l17.4-7.36a6 6 0 0 0 2.259-1.671l5.733-6.837a59.008 59.008 0 0 1 70.212-15.489l30.455 14.3c13.716 6.435 27.836 12.457 41.968 17.894a30.636 30.636 0 0 1 11.544 49.335l-2.583 2.807a11.422 11.422 0 0 0 7.6 19.126c-.026.093-.05.187-.071.28l-4.208 18.537a18.313 18.313 0 0 0 -6.715-.109v-28.041a12.3 12.3 0 0 0 -20.769-8.924c-5.755 5.483-11.21 9.56-15.878 11.94l1.073-2.313a43.689 43.689 0 0 0 2.845-28.487l-2.329-9.7a6 6 0 0 0 -11.331-1 26.028 26.028 0 0 1 -17.423 14.725l-5.133 1.284q.262-.834.5-1.676a33.752 33.752 0 0 0 -10.411-34.7 34.17 34.17 0 0 0 -36.215-5.794l-3.953 1.69a69.811 69.811 0 0 0 -42.434 64.278zm52.534-82.244a6.1 6.1 0 0 0 -.2.844 14.072 14.072 0 0 1 -8.017 10.561 28.232 28.232 0 0 0 -15.679 20.766 19.481 19.481 0 0 1 -11.152-1.33 57.821 57.821 0 0 1 29.66-28.6l3.952-1.689c.478-.205.955-.383 1.436-.552zm-40.656 122.836.122-36.234v-31.12a58.017 58.017 0 0 1 1.54-13.271 30.94 30.94 0 0 0 11.592 2.242 30.233 30.233 0 0 0 11.6-2.2 6 6 0 0 0 3.525-5.466 16.152 16.152 0 0 1 9.2-14.533 26.055 26.055 0 0 0 14.747-19.628 5.965 5.965 0 0 0 -.572-3.573 22.473 22.473 0 0 1 11.065 5.283 21.572 21.572 0 0 1 6.756 22.451 42.436 42.436 0 0 1 -4.038 9.667l-.606 1.061a6 6 0 0 0 6.666 8.795l17.086-4.271a37.991 37.991 0 0 0 17.114-9.528 31.673 31.673 0 0 1 -2.671 17.3l-6.152 13.249a6 6 0 0 0 5.443 8.527h2.409c11.348 0 23.81-9.605 32.265-17.661a.227.227 0 0 1 .24-.067.274.274 0 0 1 .223.171.309.309 0 0 1 .03.131v68.655a68.792 68.792 0 0 1 -137.584.021zm28.456 91.259v7.887a14.177 14.177 0 0 1 -.165 2.047 32.059 32.059 0 0 1 -2.12-9.934zm-17.557 20.641 5.361-8.645a44.08 44.08 0 0 0 21.068 25.213l21.348 11.532-12.555 17.938-21.072-13.8a32.094 32.094 0 0 1 -14.15-32.238zm-11.107 139.883v-54a6 6 0 0 0 -12 0v54h-38v-88.933a37.745 37.745 0 0 1 37.7-37.7h11.668a44.053 44.053 0 0 0 19.313 29.035l25.938 16.981a6 6 0 0 0 8.2-1.578l1.327-1.9v14.372l-14.547 69.723zm51.862 0 13.166-63.105h10.846l12.417 63.105zm136.138 0h-38v-54a6 6 0 0 0 -12 0v54h-37.481l-13.712-69.683v-10.938a5.988 5.988 0 0 0 6.57 0l25.938-16.981a44.054 44.054 0 0 0 19.314-29.035h11.668a37.745 37.745 0 0 1 37.7 37.7z" fill="url(#linear-gradient)"/><path d="m277.645 188.742a6 6 0 0 0 6-6 6.9 6.9 0 0 1 13.8 0 6 6 0 1 0 12 0 18.9 18.9 0 1 0 -37.8 0 6 6 0 0 0 6 6z" fill="url(#linear-gradient-2)"/><path d="m234.637 188.742a6 6 0 0 0 6-6 18.9 18.9 0 0 0 -37.805 0 6 6 0 0 0 12 0 6.9 6.9 0 0 1 13.805 0 6 6 0 0 0 6 6z" fill="url(#linear-gradient-3)"/><path d="m281.892 235.318a6 6 0 0 0 -8.485-8.484 24.449 24.449 0 0 1 -34.534 0 6 6 0 0 0 -8.484 8.486 36.46 36.46 0 0 0 51.5 0z" fill="url(#linear-gradient-4)"/></svg>